<?xml version="1.0" standalone="no"?><!DOCTYPE svg PUBLIC "-//W3C//DTD SVG 1.1//EN" "http://www.w3.org/Graphics/SVG/1.1/DTD/svg11.dtd" ><svg xmlns="http://www.w3.org/2000/svg"><metadata></metadata><defs><font id="huxiaobo-gdh" horiz-adv-x="1080"><font-face font-family="zcool-gdh" font-weight="400" font-stretch="normal" units-per-em="1000" panose-1="2 1 6 0 3 1 1 1 1 1" ascent="860" descent="-141" x-height="1" bbox="0 -109 1040 744" underline-thickness="46" underline-position="-85" unicode-range="U+0020-ff1f" /><missing-glyph horiz-adv-x="1000"  /><glyph glyph-name="exclam" unicode="!" d="M235 261 l-195 0 l0 403 l195 0 l0 -403 ZM40 87 l0 142 l195 0 l0 -142 l-195 0 Z" /><glyph glyph-name="quotedbl" unicode="&quot;" d="M40 699 l143 0 l0 -208 l-143 0 l0 208 ZM369 699 l0 -208 l-143 0 l0 208 l143 0 Z" /><glyph glyph-name="numbersign" unicode="#" d="M447 636 l114 -9 l-14 -101 l102 1 l-7 -82 l-106 -4 l-17 -133 l112 2 l-5 -81 l-116 -3 l-19 -144 l-111 9 l16 131 l-128 -2 l-18 -129 l-114 8 l18 116 l-114 -3 l5 80 l118 4 l14 135 l-123 -4 l7 81 l128 4 l14 126 l114 -11 l-14 -110 l130 3 l14 116 ZM293 435 l-18 -134 l128 2 l18 135 l-128 -3 Z" /><glyph glyph-name="dollar" unicode="$" d="M40 623 l339 0 l0 -21 q-75 0 -106 -5 q-31 -5 -17 -14 l210 -178 l205 178 q28 19 -75 19 l0 21 l253 0 l0 -21 q-93 4 -121 -19 l-246 -209 l0 -16 l209 0 l0 -28 l-209 0 l0 -172 q0 -40 142 -39 l0 -22 l-342 0 l0 21 q125 0 125 43 l0 169 l-213 0 l0 28 l213 0 l0 25 l-237 200 q-16 9 -47.5 14 q-31.5 5 -82.5 5 l0 21 Z" /><glyph glyph-name="percent" unicode="%" d="M445 72 l0 290 l-242 -307 l-53 0 l228 296 l-338 0 l0 297 l342 0 l0 -293 l244 310 l54 0 l-231 -295 l338 0 l0 -298 l-342 0 ZM185 421 l51 0 l0 153 l-51 0 l0 -153 ZM591 144 l52 0 l0 156 l-52 0 l0 -156 Z" /><glyph glyph-name="ampersand" unicode="&amp;" d="M531 426 l-114 -68 l81 -63 l40 33 l218 0 l-135 -124 l75 -56 l88 0 l-49 -76 l-179 0 l-44 33 l-41 -33 l-431 0 l0 219 l121 72 l-90 67 l0 218 l460 0 l0 -222 ZM296 446 l53 30 l0 98 l-93 0 l0 -97 l40 -31 ZM284 272 l-42 -24 l0 -100 l94 0 l53 47 l-105 77 Z" /><glyph glyph-name="quotesingle" unicode="&#39;" d="M181 431 l-141 0 l0 210 l141 0 l0 -210 Z" /><glyph glyph-name="parenleft" unicode="(" d="M412 697 q-23 -28 -45 -55 q-22 -27 -37 -54 q-36 -61 -55 -121 q-28 -89 -8 -182 q6 -33 20 -67 q14 -34 34 -68 q37 -63 98 -127 l-240 0 q-36 35 -62 79 q-26 44 -43 97 q-34 103 -27 193 q4 38 15.5 77.5 q11.5 39.5 28.5 80.5 q32 75 86 147 l235 0 l0 0 Z" /><glyph glyph-name="parenright" unicode=")" d="M410 392 q11 -92 -25 -193 q-18 -53 -44.5 -97 q-26.5 -44 -62.5 -79 l-238 0 q30 33 54.5 65 q24.5 32 41.5 62 q21 35 35.5 68.5 q14.5 33.5 20.5 66.5 q19 91 -10 182 q-10 29 -22.5 60 q-12.5 31 -31.5 61 q-33 52 -81 109 l233 0 q28 -35 48.5 -72 q20.5 -37 37.5 -75 q35 -80 44 -158 Z" /><glyph glyph-name="asterisk" unicode="*" d="M716 470 q-2 -11 -11 -19.5 q-9 -8.5 -20 -13.5 l-278 -74 q-1 0 -4.5 0.5 q-3.5 0.5 -5.5 3.5 l0 7 l214 140 q15 11 31 13 q16 2 32 -2 q20 -5 30 -18 q12 -9 12 -37 ZM714 260 q10 -28 -12 -46 q-14 -11 -29 -14 q-15 -3 -32 -2 l-21 8 l-221 140 q-9 5 -4 10 q4 2 14 2 l276 -72 q4 0 9 -3 q5 -3 10 -7 l10 -16 ZM434 621 q13 -16 8 -33 l-45 -189 q-2 0 -2 -2 q0 -2 0 -4 l0 -7 q-4 -10 -9 -10 q-4 -2 -6.5 -1 q-2.5 1 -5.5 2 l-54 200 q-2 5 -2 9.5 q0 4.5 0 8.5 q0 19 10 28 q23 26 67 18 q19 0 39 -20 ZM363 342 l-224 -142 q-27 -13 -60 -2 q-39 16 -33 46 q0 22 24 35 l283 79 l3 0 l7 0 q7 -2 7 -7 l-7 -9 ZM106 428 q-11 2 -19 4.5 q-8 2.5 -13 4.5 q-9 5 -14.5 10.5 q-5.5 5.5 -10.5 10.5 q-4 8 -5 17.5 q-1 9.5 4 21.5 q12 25 52 28 q29 2 44 -9 l219 -142 q4 -5 2 -7 q-2 -2 -3 -3 q-1 -1 -4 -1 l-252 65 ZM383 349 q13 -1 9 -8 l56 -214 q0 -26 -32 -43 q-36 -12 -67 2 q-29 14 -29 42 q0 5 1 12 q1 7 6 15 l45 187 q2 5 4.5 6 q2.5 1 6.5 1 Z" /><glyph glyph-name="plus" unicode="+" d="M305 418 l0 210 l135 0 l0 -210 l268 0 l0 -100 l-268 0 l0 -225 l-135 0 l0 225 l-265 0 l0 100 l265 0 Z" /><glyph glyph-name="comma" unicode="," d="M135 155 l-69 0 l98 115 l-124 0 l0 150 l200 0 l0 -143 l-105 -122 Z" /><glyph glyph-name="hyphen" unicode="-" d="M40 282 l0 93 l674 0 l0 -93 l-674 0 Z" /><glyph glyph-name="period" unicode="." d="M261 280 q0 -9 2 -19.5 q2 -10.5 7 -22.5 l-230 0 q4 9 6.5 19 q2.5 10 2.5 23 l0 76 q0 13 -2.5 22.5 q-2.5 9.5 -6.5 19.5 l230 0 q-5 -11 -7 -22 q-2 -11 -2 -20 l0 -76 Z" /><glyph glyph-name="slash" unicode="/" d="M75 -23 l-35 16 l505 751 l35 -12 l-505 -755 Z" /><glyph glyph-name="zero" unicode="0" d="M626 46 l-586 0 l0 573 l586 0 l0 -573 ZM238 123 l188 0 l0 421 l-188 0 l0 -421 Z" /><glyph glyph-name="one" unicode="1" d="M242 46 l-202 0 l0 575 l202 0 l0 -575 Z" /><glyph glyph-name="two" unicode="2" d="M600 621 l0 -172 l-307 -328 l351 0 l-44 -75 l-560 0 l0 61 l365 381 l0 58 l-358 0 l0 75 l553 0 Z" /><glyph glyph-name="three" unicode="3" d="M424 374 l0 173 l-377 0 l0 74 l570 0 l0 -242 l-95 -37 l106 -59 l0 -237 l-588 0 l0 73 l384 0 l0 179 l-349 0 l0 76 l349 0 Z" /><glyph glyph-name="four" unicode="4" d="M627 147 l-58 0 l0 -101 l-187 0 l0 101 l-342 0 l0 74 l363 398 l166 0 l0 -398 l111 0 l-53 -74 ZM155 221 l227 0 l0 249 l-227 -249 Z" /><glyph glyph-name="five" unicode="5" d="M629 621 l-40 -75 l-356 0 l0 -146 l370 0 l0 -354 l-561 0 l0 75 l363 0 l0 204 l-365 0 l0 296 l589 0 Z" /><glyph glyph-name="six" unicode="6" d="M428 407 l-58 -77 l-128 0 l0 -209 l186 0 l0 286 l201 0 l0 -361 l-589 0 l0 575 l612 0 l-42 -77 l-368 0 l0 -137 l186 0 Z" /><glyph glyph-name="seven" unicode="7" d="M629 619 l0 -89 l-240 -484 l-214 0 l247 500 l-382 0 l0 73 l589 0 Z" /><glyph glyph-name="eight" unicode="8" d="M42 621 l561 0 l0 -221 l-54 -50 l62 -49 l0 -256 l-571 0 l0 258 l78 47 l-76 50 l0 221 ZM405 384 l2 161 l-165 0 l0 -161 l163 0 ZM232 121 l186 0 l0 189 l-186 -2 l0 -187 Z" /><glyph glyph-name="nine" unicode="9" d="M435 324 l0 295 l198 0 l0 -574 l-593 0 l0 76 l395 0 l0 126 l-393 2 l0 370 l393 0 l-61 -74 l-126 0 l0 -221 l187 0 Z" /><glyph glyph-name="colon" unicode=":" d="M40 541 l207 0 l0 -150 l-207 0 l0 150 ZM247 96 l-207 0 l0 149 l207 0 l0 -149 Z" /><glyph glyph-name="semicolon" unicode=";" d="M253 185 l-114 -124 l-76 0 l116 124 l-139 0 l0 153 l213 0 l0 -153 ZM40 564 l213 0 l0 -152 l-213 0 l0 152 Z" /><glyph glyph-name="less" unicode="&lt;" d="M351 362 l459 -156 l0 -100 l-770 258 l770 251 l0 -104 l-459 -149 Z" /><glyph glyph-name="equal" unicode="=" d="M715 505 l0 -97 l-675 0 l0 97 l675 0 ZM715 313 l0 -98 l-675 0 l0 98 l675 0 Z" /><glyph glyph-name="greater" unicode="&gt;" d="M814 357 l-774 -249 l0 105 l460 144 l-460 155 l0 101 l774 -256 Z" /><glyph glyph-name="question" unicode="?" d="M547 306 l-194 -54 l0 -67 l-204 0 l0 156 l197 51 l0 137 l-306 0 l0 76 l507 0 l0 -299 ZM353 155 l0 -124 l-204 0 l0 124 l204 0 Z" /><glyph glyph-name="at" unicode="@" d="M459 426 l0 56 l153 0 l0 -263 l35 0 l0 315 l-453 0 l0 -435 l642 0 l-52 -68 l-744 0 l0 574 l761 0 l0 -457 l-342 0 l0 60 l-44 -60 l-184 0 l0 334 l183 0 l45 -56 ZM459 219 l0 193 l-68 0 l0 -193 l68 0 Z" /><glyph glyph-name="A" unicode="A" d="M340 261 l240 0 l-59 -79 l-214 0 l-53 -137 l-214 0 l232 575 l368 0 l233 -575 l-212 0 l-81 216 l-108 282 l-32 0 l-100 -282 Z" /><glyph glyph-name="B" unicode="B" d="M626 347 l119 -60 l0 -242 l-705 0 l0 575 l491 0 l-74 -77 l-215 0 l0 -166 l289 0 l0 243 l200 0 l0 -219 l-105 -54 ZM540 122 l0 179 l-298 0 l0 -179 l298 0 Z" /><glyph glyph-name="C" unicode="C" d="M241 545 l0 -425 l518 0 l-44 -75 l-675 0 l0 575 l694 0 l-54 -75 l-439 0 Z" /><glyph glyph-name="D" unicode="D" d="M742 126 l-79 -81 l-623 0 l0 575 l502 0 l-71 -79 l-231 0 l0 -419 l302 0 l0 498 l128 0 l72 -75 l0 -419 Z" /><glyph glyph-name="E" unicode="E" d="M675 120 l-44 -75 l-591 0 l0 575 l633 0 l-45 -75 l-386 0 l0 -168 l414 0 l-44 -76 l-370 0 l0 -181 l433 0 Z" /><glyph glyph-name="F" unicode="F" d="M242 543 l0 -166 l394 0 l-47 -78 l-347 0 l0 -254 l-202 0 l0 575 l610 0 l-43 -77 l-365 0 Z" /><glyph glyph-name="G" unicode="G" d="M542 120 l0 202 l-149 0 l0 76 l349 0 l0 -353 l-200 0 l0 61 l-60 -61 l-442 0 l0 575 l705 0 l-44 -75 l-456 0 l0 -425 l297 0 Z" /><glyph glyph-name="H" unicode="H" d="M742 45 l-199 0 l0 330 l0 245 l199 0 l0 -575 ZM243 299 l0 -254 l-203 0 l0 575 l203 0 l0 -245 l300 0 l-63 -76 l-237 0 Z" /><glyph glyph-name="I" unicode="I" d="M235 45 l-195 0 l0 575 l195 0 l0 -575 Z" /><glyph glyph-name="J" unicode="J" d="M40 120 l255 0 l0 500 l203 0 l0 -575 l-437 0 l-21 75 Z" /><glyph glyph-name="K" unicode="K" d="M242 45 l-202 0 l0 575 l202 0 l0 -245 l261 245 l249 0 l-310 -280 l317 -295 l-246 0 l-271 254 l0 -254 Z" /><glyph glyph-name="L" unicode="L" d="M40 45 l0 575 l202 0 l0 -500 l370 0 l-42 -75 l-530 0 Z" /><glyph glyph-name="M" unicode="M" d="M891 45 l-180 0 l0 370 l-167 -370 l-154 0 l-165 365 l0 -365 l-185 0 l0 575 l248 0 l181 -394 l182 394 l240 0 l0 -575 Z" /><glyph glyph-name="N" unicode="N" d="M519 45 l-277 400 l0 -400 l-202 0 l0 575 l226 0 l276 -407 l0 407 l200 0 l0 -575 l-223 0 Z" /><glyph glyph-name="O" unicode="O" d="M243 543 l0 -421 l295 0 l0 498 l203 0 l0 -575 l-701 0 l0 575 l498 0 l-70 -77 l-225 0 Z" /><glyph glyph-name="P" unicode="P" d="M240 270 l0 -225 l-200 0 l0 575 l425 0 l-58 -77 l-167 0 l0 -198 l225 0 l0 275 l203 0 l0 -350 l-428 0 Z" /><glyph glyph-name="Q" unicode="Q" d="M242 120 l298 0 l0 500 l202 0 l0 -575 l-144 0 l102 -76 l-258 0 l-107 76 l-295 0 l0 575 l500 0 l-72 -75 l-226 0 l0 -425 Z" /><glyph glyph-name="R" unicode="R" d="M477 45 l-137 239 l-97 0 l0 -239 l-203 0 l0 575 l424 0 l-64 -75 l-157 0 l0 -186 l221 0 l0 261 l202 0 l0 -336 l-107 0 l132 -239 l-214 0 Z" /><glyph glyph-name="S" unicode="S" d="M245 547 l0 -172 l272 0 l-70 -74 l-405 0 l0 319 l703 0 l-38 -73 l-462 0 ZM721 45 l-681 0 l0 75 l477 0 l0 255 l204 0 l0 -330 Z" /><glyph glyph-name="T" unicode="T" d="M496 45 l-200 0 l0 498 l-256 0 l0 77 l730 0 l-44 -77 l-230 0 l0 -498 Z" /><glyph glyph-name="U" unicode="U" d="M238 123 l306 0 l-67 -77 l-437 0 l0 575 l198 0 l0 -498 ZM544 621 l194 0 l0 -575 l-194 0 l0 77 l0 498 Z" /><glyph glyph-name="V" unicode="V" d="M301 46 l-261 575 l207 0 l173 -419 l185 419 l201 0 l-273 -575 l-232 0 Z" /><glyph glyph-name="W" unicode="W" d="M233 621 l90 -370 l144 370 l93 0 l129 -363 l85 363 l191 0 l-144 -575 l-205 0 l-111 275 l-105 -275 l-205 0 l-155 575 l193 0 Z" /><glyph glyph-name="X" unicode="X" d="M807 621 l-260 -280 l274 -295 l-237 0 l-155 165 l-152 -165 l-237 0 l274 293 l-265 282 l235 0 l147 -161 l142 161 l234 0 Z" /><glyph glyph-name="Y" unicode="Y" d="M332 234 l-292 387 l227 0 l165 -240 l161 240 l225 0 l-286 -389 l0 -186 l-200 0 l0 188 Z" /><glyph glyph-name="Z" unicode="Z" d="M287 121 l465 0 l-53 -75 l-659 0 l0 89 l431 409 l-419 0 l0 77 l658 0 l0 -96 l-423 -404 Z" /><glyph glyph-name="bracketleft" unicode="[" d="M366 620 l-131 0 l0 -522 l131 0 l0 -77 l-326 0 l0 678 l326 0 l0 -79 Z" /><glyph glyph-name="backslash" unicode="\" d="M582 -7 l-35 -16 l-507 755 l35 12 l507 -751 Z" /><glyph glyph-name="bracketright" unicode="]" d="M170 98 l0 522 l-130 0 l0 79 l328 0 l0 -678 l-328 0 l0 77 l130 0 Z" /><glyph glyph-name="underscore" unicode="_" d="M1040 18 l0 -38 l-1000 0 l1 38 l999 0 Z" /><glyph glyph-name="a" unicode="a" d="M606 46 l-566 0 l0 404 l370 0 l-46 -69 l-135 0 l0 -268 l181 0 l0 337 l184 0 l0 -337 l58 0 l-46 -67 Z" /><glyph glyph-name="b" unicode="b" d="M357 376 l-126 0 l0 -258 l190 0 l0 332 l191 0 l0 -404 l-572 0 l0 575 l191 0 l0 -171 l190 0 l-64 -74 Z" /><glyph glyph-name="c" unicode="c" d="M40 46 l0 404 l567 0 l-35 -72 l-340 0 l0 -260 l373 0 l-40 -72 l-525 0 Z" /><glyph glyph-name="d" unicode="d" d="M612 621 l0 -575 l-572 0 l0 404 l379 0 l-55 -72 l-131 0 l0 -260 l186 0 l0 332 l0 171 l193 0 Z" /><glyph glyph-name="e" unicode="e" d="M605 200 l-372 0 l0 -84 l395 0 l-41 -70 l-547 0 l0 404 l372 0 l-60 -74 l-119 0 l0 -102 l179 0 l0 176 l193 0 l0 -250 Z" /><glyph glyph-name="f" unicode="f" d="M354 551 l0 -101 l172 0 l-37 -72 l-135 0 l0 -332 l-191 0 l0 332 l-123 0 l0 72 l123 0 l0 171 l363 0 l-40 -70 l-132 0 Z" /><glyph glyph-name="g" unicode="g" d="M426 450 l-53 -72 l-137 0 l0 -260 l190 0 l0 332 l193 0 l0 -557 l-549 0 l-30 68 l386 0 l0 85 l-383 0 l0 404 l383 0 Z" /><glyph glyph-name="h" unicode="h" d="M608 46 l-194 0 l0 404 l194 0 l0 -404 ZM233 378 l0 -332 l-193 0 l0 575 l193 0 l0 -171 l181 0 l-62 -72 l-119 0 Z" /><glyph glyph-name="i" unicode="i" d="M40 621 l193 0 l0 -124 l-193 0 l0 124 ZM233 46 l-193 0 l0 404 l193 0 l0 -404 Z" /><glyph glyph-name="j" unicode="j" d="M233 497 l0 124 l192 0 l0 -124 l-192 0 ZM425 450 l0 -557 l-364 0 l-21 68 l193 0 l0 489 l192 0 Z" /><glyph glyph-name="k" unicode="k" d="M439 279 l217 -233 l-216 0 l-207 216 l0 -216 l-193 0 l0 575 l193 0 l0 -310 l188 139 l239 0 l-221 -171 Z" /><glyph glyph-name="l" unicode="l" d="M239 46 l-199 0 l0 575 l199 0 l0 -575 Z" /><glyph glyph-name="m" unicode="m" d="M224 48 l-184 0 l0 403 l604 0 l-60 -72 l-58 0 l0 -331 l-186 0 l0 331 l-116 0 l0 -331 ZM828 48 l-184 0 l0 403 l184 0 l0 -403 Z" /><glyph glyph-name="n" unicode="n" d="M612 48 l-191 0 l0 403 l191 0 l0 -403 ZM233 379 l0 -331 l-193 0 l0 403 l381 0 l-67 -72 l-121 0 Z" /><glyph glyph-name="o" unicode="o" d="M235 116 l180 0 l0 333 l193 0 l0 -403 l-568 0 l0 403 l375 0 l-59 -72 l-121 0 l0 -261 Z" /><glyph glyph-name="p" unicode="p" d="M229 119 l184 0 l0 330 l192 0 l0 -403 l-376 0 l0 -154 l-189 0 l0 557 l373 0 l-61 -72 l-123 0 l0 -258 Z" /><glyph glyph-name="q" unicode="q" d="M236 116 l181 0 l0 333 l193 0 l0 -558 l-193 0 l0 155 l-377 0 l0 403 l377 0 l-51 -72 l-130 0 l0 -261 Z" /><glyph glyph-name="r" unicode="r" d="M235 46 l-195 0 l0 403 l449 0 l-42 -72 l-212 0 l0 -331 Z" /><glyph glyph-name="s" unicode="s" d="M624 449 l-42 -72 l-347 0 l0 -91 l179 0 l-63 -74 l-311 0 l0 237 l584 0 ZM605 46 l-563 0 l0 70 l372 0 l0 170 l191 0 l0 -240 Z" /><glyph glyph-name="t" unicode="t" d="M143 449 l0 132 l193 0 l0 -132 l176 0 l-49 -72 l-127 0 l0 -261 l167 0 l-42 -70 l-318 0 l0 331 l-103 0 l0 72 l103 0 Z" /><glyph glyph-name="u" unicode="u" d="M230 119 l186 0 l-46 -73 l-330 0 l0 403 l190 0 l0 -330 ZM609 46 l-193 0 l0 73 l0 330 l193 0 l0 -403 Z" /><glyph glyph-name="v" unicode="v" d="M482 449 l209 0 l-225 -403 l-200 0 l-226 403 l207 0 l119 -228 l116 228 Z" /><glyph glyph-name="w" unicode="w" d="M440 449 l133 0 l110 -224 l78 224 l203 0 l-163 -403 l-196 0 l-100 208 l-109 -208 l-195 0 l-161 403 l196 0 l84 -226 l120 226 Z" /><glyph glyph-name="x" unicode="x" d="M680 449 l-191 -191 l217 -212 l-231 0 l-104 101 l-101 -101 l-230 0 l217 212 l-194 191 l229 0 l83 -81 l79 81 l226 0 Z" /><glyph glyph-name="y" unicode="y" d="M364 230 l129 219 l200 0 l-329 -558 l-201 0 l100 158 l-223 400 l203 0 l121 -219 Z" /><glyph glyph-name="z" unicode="z" d="M603 449 l0 -81 l-316 -250 l346 0 l-51 -72 l-542 0 l0 75 l328 254 l-328 0 l0 74 l563 0 Z" /><glyph glyph-name="braceleft" unicode="{" d="M408 633 q-65 0 -80 -40 q-5 -8 -8.5 -17.5 q-3.5 -9.5 -4.5 -23.5 l-1 -56 q-2 -37 -7.5 -63 q-5.5 -26 -19.5 -42 q-5 -7 -12.5 -11.5 q-7.5 -4.5 -15.5 -9.5 q-5 -3 -12.5 -5.5 q-7.5 -2.5 -18.5 -5.5 q44 -18 61 -40 q25 -34 25 -109 q0 -69 15 -94 q19 -34 79 -34 l0 -74 l-45 0 q-145 0 -188 39 q-23 17 -32 51 q-3 14 -5.5 32.5 q-2.5 18.5 -2.5 41.5 l0 51 q-2 13 -3.5 24 q-1.5 11 -5.5 19 q-10 20 -30.5 31.5 q-20.5 11.5 -55.5 11.5 l0 98 q58 0 81 33 q14 22 14 74 q0 57 8 86 q3 20 10 35 q7 15 17 26 q44 51 189 51 l49 0 l0 -79 Z" /><glyph glyph-name="bar" unicode="|" d="M122 -19 l-82 0 l0 759 l82 0 l0 -759 Z" /><glyph glyph-name="braceright" unicode="}" d="M279 661 q10 -11 17 -26 q7 -15 9 -35 q5 -14 7 -35.5 q2 -21.5 2 -50.5 q0 -54 16 -74 q20 -33 78 -33 l0 -98 q-32 0 -53.5 -11.5 q-21.5 -11.5 -32.5 -31.5 q-2 -8 -4.5 -19 q-2.5 -11 -3.5 -24 l0 -51 q0 -23 -2 -41.5 q-2 -18.5 -7 -32.5 q-4 -17 -11.5 -29 q-7.5 -12 -18.5 -22 q-48 -39 -189 -39 l-46 0 l0 74 q60 0 81 34 q14 26 14 94 q0 74 24 109 q18 22 63 40 q-11 3 -18.5 5.5 q-7.5 2.5 -12.5 5.5 q-10 5 -16.5 9.5 q-6.5 4.5 -13.5 11.5 q-25 32 -26 105 l-2 56 q-1 14 -4 23.5 q-3 9.5 -8 17.5 q-17 40 -81 40 l0 79 l51 0 q143 0 188 -51 Z" /><glyph glyph-name="asciitilde" unicode="~" d="M1040 698 l0 -38 l-1000 0 l1 38 l999 0 Z" /><glyph glyph-name="periodcentered" unicode="·" d="M441 258 q-59 27 -58.5 97.5 q0.5 70.5 59 101.5 q58.5 31 117 -2 q58.5 -33 54.5 -101.5 q-4 -68.5 -58.5 -95.5 q-54.5 -27 -113.5 0 Z" /><glyph glyph-name="multiply" unicode="×" d="M497 436 l196 145 l95 -70 l-198 -145 l210 -156 l-96 -72 l-207 157 l-202 -150 l-95 68 l202 153 l-198 147 l92 70 l201 -147 Z" /><glyph glyph-name="emdash" unicode="&#x2014;" d="M0 373 l0 28 l1018 0 l0 -28 l-1018 0 Z" /><glyph glyph-name="quoteleft" unicode="&#x2018;" d="M561 622 l0 -135 l-189 0 l0 135 l102 114 l66 0 l-103 -114 l124 0 Z" /><glyph glyph-name="quoteright" unicode="&#x2019;" d="M246 478 l-69 0 l104 114 l-123 0 l0 135 l189 0 l0 -136 l-101 -113 Z" /><glyph glyph-name="quotedblleft" unicode="&#x201c;" d="M389 487 l0 139 l104 110 l68 0 l-103 -114 l123 0 l0 -135 l-192 0 ZM349 622 l0 -135 l-191 0 l0 139 l102 110 l68 0 l-103 -114 l124 0 Z" /><glyph glyph-name="quotedblright" unicode="&#x201d;" d="M246 478 l-67 0 l102 114 l-123 0 l0 135 l191 0 l0 -136 l-103 -113 ZM581 727 l0 -136 l-102 -113 l-67 0 l102 114 l-125 0 l0 135 l192 0 Z" /><glyph glyph-name="ellipsis" unicode="&#x2026;" d="M923 359 q0 -14 7 -30 l-167 0 q7 13 7 30 l0 54 q0 10 -1.5 18 q-1.5 8 -5.5 12 l167 0 q-3 -9 -5 -17 q-2 -8 -2 -13 l0 -54 ZM467 413 q0 22 -6 30 l167 0 q-7 -17 -7 -30 l0 -54 q0 -17 7 -30 l-167 0 q6 13 6 30 l0 54 ZM325 443 q-3 -9 -5 -17 q-2 -8 -2 -13 l0 -54 q0 -14 7 -30 l-167 0 q7 13 7 30 l0 54 q0 10 -1.5 18 q-1.5 8 -5.5 12 l167 0 Z" /><glyph glyph-name="uni3001" unicode="&#x3001;" d="M330 258 l198 0 l172 -215 l-204 0 l-166 215 Z" /><glyph glyph-name="uni3002" unicode="&#x3002;" d="M425 165 q0 -49 -48 -84 q-24 -17 -53.5 -27.5 q-29.5 -10.5 -62.5 -10.5 q-34 0 -63 10 q-29 10 -54 28 q-47 34 -47 84 q0 54 47 88 q51 37 117 37 q67 0 116 -37 q48 -35 48 -88 ZM186 165 q0 -56 75 -56 q76 0 76 56 q0 58 -76 58 q-75 0 -75 -58 Z" /><glyph glyph-name="uni3055" unicode="&#x3055;" d="M484 562 q66 31 70.5 43 q4.5 12 -5.5 26 q-10 14 17.5 4 q27.5 -10 47 -8 q19.5 2 15.5 -17.5 q-4 -19.5 -33.5 -39 q-29.5 -19.5 -83.5 -39.5 q125 -98 154 -125 q29 -27 25.5 -62 q-3.5 -35 -27 -23.5 q-23.5 11.5 -72.5 23 q-49 11.5 -111.5 19.5 q-62.5 8 -117 -25 q-54.5 -33 -58.5 -91.5 q-4 -58.5 41 -88 q45 -29.5 91.5 -29.5 q46.5 0 95.5 8 q49 8 74.5 11.5 q25.5 3.5 33 -18 q7.5 -21.5 -31.5 -35 q-39 -13.5 -142.5 -11.5 q-103.5 2 -158 58.5 q-54.5 56.5 -37 125 q17.5 68.5 80 99.5 q62.5 31 136.5 25.5 q74 -5.5 137 -17.5 l-148 141 q-160 -35 -187.5 -35.5 q-27.5 -0.5 -45 9.5 q-17.5 10 -23.5 25.5 q-6 15.5 39 10.5 q46 -6 178 21 q-47 39 -76.5 64.5 q-29.5 25.5 -41 56.5 q-11.5 31 19.5 45 q31 14 64.5 8 q33.5 -6 13.5 -14 q-20 -8 -39.5 -17.5 q-19.5 -9.5 0 -35.5 q19.5 -26 105.5 -92 Z" /><glyph glyph-name="uni306A" unicode="&#x306a;" d="M574 262 q62 -8 99.5 -23.5 q37.5 -15.5 31.5 -45 q-6 -29.5 -31.5 -19.5 q-25.5 10 -45 19.5 q-19.5 9.5 -54.5 25.5 q0 -94 -25.5 -123.5 q-25.5 -29.5 -76 -33 q-50.5 -3.5 -91.5 21.5 q-41 25 -43 64.5 q-2 39.5 47 76.5 q49 37 142 37 q-12 94 -6 131 q6 37 55 62 q49 25 74.5 39 q25.5 14 19.5 31.5 q-6 17.5 -19.5 31 q-13.5 13.5 10 6 q23.5 -7.5 58.5 -25 q35 -17.5 21.5 -37.5 q-13.5 -20 -60.5 -23.5 q-47 -3.5 -88 -29 q-41 -25.5 -35.5 -72.5 q5.5 -47 17.5 -113 ZM531 234 q-66 4 -103 -13.5 q-37 -17.5 -53 -37 q-16 -19.5 -10 -43 q6 -23.5 31.5 -35 q25.5 -11.5 54.5 -15.5 q29 -4 58.5 21 q29.5 25 21.5 123 ZM402 594 q47 12 72.5 27.5 q25.5 15.5 47 11.5 q21.5 -4 27.5 -19.5 q6 -15.5 -37 -33.5 q-43 -18 -125 -33 q-51 -121 -86 -178 q-35 -57 -58.5 -68.5 q-23.5 -11.5 -27.5 25.5 q-4 37 19.5 51 q23.5 14 49 53 q25.5 39 52.5 105 q-51 -8 -74.5 4 q-23.5 12 -9.5 23.5 q14 11.5 39 11.5 q25 0 64 8 q23 78 21.5 99.5 q-1.5 21.5 -5.5 37 q-4 15.5 21.5 6 q25.5 -9.5 45 -23 q19.5 -13.5 0 -37 q-19.5 -23.5 -35.5 -70.5 Z" /><glyph glyph-name="uni306E" unicode="&#x306e;" d="M512 648 q31 -31 13.5 -62 q-17.5 -31 -58.5 -113 q-41 -82 -74.5 -154.5 q-33.5 -72.5 -68.5 -80.5 q-35 -8 -70 54.5 q-35 62.5 -31 146.5 q4 84 76 150.5 q72 66.5 142.5 80.5 q70.5 14 121 8 q50.5 -6 103.5 -33.5 q53 -27.5 88 -88 q35 -60.5 31 -140.5 q-4 -80 -50.5 -152.5 q-46.5 -72.5 -121 -99.5 q-74.5 -27 -123.5 -27 q-49 0 41 29 q90 29 141 99.5 q51 70.5 56.5 152.5 q5.5 82 -47 158 q-52.5 76 -169.5 72 ZM480 645 q-98 -12 -158 -74.5 q-60 -62.5 -64 -129 q-4 -66.5 19.5 -105.5 q23.5 -39 35 -41 q11.5 -2 23.5 9.5 q12 11.5 78 140.5 q66 129 68 151 q2 22 -2 49 Z" /><glyph glyph-name="uni4E00" unicode="&#x4e00;" d="M912 383 l-26 -45 l-798 0 l0 45 l824 0 Z" /><glyph glyph-name="uni4E01" unicode="&#x4e01;" d="M881 621 l-220 0 l0 -569 l-314 0 l-25 46 l222 0 l0 523 l-451 0 l0 48 l814 0 l-26 -48 Z" /><glyph glyph-name="uni4E03" unicode="&#x4e03;" d="M437 99 l501 0 l-28 -47 l-592 0 l0 362 l-257 -31 l0 50 l257 30 l0 205 l119 0 l0 -192 l501 57 l-29 -50 l-472 -55 l0 -329 Z" /><glyph glyph-name="uni4E07" unicode="&#x4e07;" d="M740 463 l-29 -47 l-381 0 l-94 -362 l-116 0 l148 570 l-148 0 l0 43 l759 0 l-29 -43 l-466 0 l-42 -161 l398 0 ZM854 53 l-317 0 l-33 47 l236 0 l0 363 l114 0 l0 -410 Z" /><glyph glyph-name="uni4E09" unicode="&#x4e09;" d="M890 647 l-14 -47 l-757 0 l0 47 l771 0 ZM817 393 l-15 -47 l-620 0 l0 47 l635 0 ZM922 122 l-14 -48 l-831 0 l0 48 l845 0 Z" /><glyph glyph-name="uni4E0A" unicode="&#x4e0a;" d="M887 472 l-26 -46 l-409 0 l0 -328 l460 0 l-27 -45 l-797 0 l0 45 l240 0 l0 569 l124 0 l0 -195 l435 0 Z" /><glyph glyph-name="uni4E0B" unicode="&#x4e0b;" d="M385 622 l-294 0 l0 44 l818 0 l-25 -44 l-385 0 l0 -95 l114 0 l296 -344 l-141 0 l-269 313 l0 -442 l-114 0 l0 568 Z" /><glyph glyph-name="uni4E0D" unicode="&#x4e0d;" d="M495 620 l-56 -92 l114 0 l0 -476 l-119 0 l0 469 l-203 -335 l-137 0 l264 434 l-275 0 l0 48 l821 0 l-25 -48 l-384 0 ZM721 481 l195 -295 l-131 0 l-195 295 l131 0 Z" /><glyph glyph-name="uni4E0E" unicode="&#x4e0e;" d="M339 581 l572 0 l-33 -44 l-553 0 l-43 -132 l503 0 l-39 -44 l-598 0 l100 293 l118 0 l-27 -73 ZM896 67 l-269 0 l-30 43 l188 0 l0 295 l111 0 l0 -338 ZM734 253 l-17 -44 l-628 0 l0 44 l645 0 Z" /><glyph glyph-name="uni4E13" unicode="&#x4e13;" d="M409 205 l214 97 l-363 0 l0 1 l35 107 l-230 0 l0 48 l246 0 l24 75 l-222 0 l0 47 l238 0 l28 88 l117 0 l-29 -88 l411 0 l-35 -47 l-391 0 l-25 -75 l508 0 l-35 -48 l-488 0 l-20 -60 l427 0 l0 -44 l-1 -1 l-275 -134 l133 -32 l0 -87 l-383 96 l0 85 l116 -28 Z" /><glyph glyph-name="uni4E14" unicode="&#x4e14;" d="M702 668 l-26 -48 l-379 0 l0 -141 l405 0 l0 189 l116 0 l0 -568 l78 0 l-26 -47 l-767 0 l0 47 l79 0 l0 568 l520 0 ZM297 242 l0 -142 l405 0 l0 142 l-405 0 ZM702 431 l-405 0 l0 -142 l405 0 l0 142 Z" /><glyph glyph-name="uni4E16" unicode="&#x4e16;" d="M268 100 l653 0 l-28 -48 l-745 0 l0 395 l-72 0 l0 49 l72 0 l0 171 l120 0 l0 -171 l85 0 l0 172 l115 0 l0 -172 l227 0 l0 172 l115 0 l0 -172 l113 0 l-25 -49 l-88 0 l0 -280 l-457 0 l0 280 l-85 0 l0 -347 ZM468 447 l0 -231 l227 0 l0 231 l-227 0 Z" /><glyph glyph-name="uni4E1A" unicode="&#x4e1a;" d="M423 653 l0 -538 l143 0 l0 538 l125 0 l0 -361 l95 255 l121 0 l-116 -307 l-100 0 l0 -125 l218 0 l-26 -48 l-784 0 l0 48 l199 0 l0 125 l-92 0 l-116 307 l121 0 l87 -236 l0 342 l125 0 Z" /><glyph glyph-name="uni4E1C" unicode="&#x4e1c;" d="M910 531 l-559 0 l-91 -164 l207 0 l0 127 l116 0 l0 -127 l318 0 l-27 -47 l-291 0 l0 -268 l-216 0 l-24 46 l124 0 l0 222 l-349 0 l117 211 l-172 0 l0 47 l198 0 l51 91 l116 0 l-51 -91 l559 0 l-26 -47 ZM661 276 l116 0 l124 -223 l-116 0 l-124 223 ZM223 53 l-115 0 l120 223 l116 0 l-121 -223 Z" /><glyph glyph-name="uni4E22" unicode="&#x4e22;" d="M859 445 l-306 0 l0 -120 l376 0 l-26 -47 l-346 0 l-223 -171 l420 23 l-41 68 l115 0 l88 -144 l-116 0 l-41 68 l-19 -34 l-638 -33 l290 223 l-322 0 l0 47 l367 0 l0 120 l-335 0 l0 47 l335 0 l0 107 l-349 -17 l0 43 l811 41 l0 -43 l-346 -18 l0 -113 l333 0 l-27 -47 Z" /><glyph glyph-name="uni4E24" unicode="&#x4e24;" d="M818 53 l0 469 l-35 -38 l-96 0 l-20 -88 l69 0 l73 -343 l-103 0 l-56 269 l-60 -266 l-89 -1 l1 -2 l-102 0 l-56 269 l-61 -266 l-103 -1 l0 -2 l-112 0 l0 478 l219 0 l20 90 l-212 0 l0 47 l818 0 l-27 -47 l-167 0 l-21 -90 l234 0 l0 -478 l-114 0 ZM582 484 l-201 0 l-20 -88 l68 0 l64 -301 l89 389 ZM180 66 l96 418 l-96 0 l0 -418 ZM392 531 l201 0 l21 90 l-202 0 l-20 -90 Z" /><glyph glyph-name="uni4E25" unicode="&#x4e25;" d="M129 654 l792 0 l-26 -47 l-200 0 l0 -186 l205 0 l-28 -49 l-612 0 l0 -120 l-65 -186 l-116 0 l67 186 l0 169 l218 0 l0 186 l-235 0 l0 47 ZM575 607 l-92 0 l0 -186 l92 0 l0 186 ZM335 459 l-120 0 l-66 103 l121 0 l65 -103 ZM792 562 l119 0 l-64 -103 l-122 0 l67 103 Z" /><glyph glyph-name="uni4E2A" unicode="&#x4e2a;" d="M439 474 l126 0 l0 -421 l-126 0 l0 421 ZM269 668 l327 0 l-31 -47 l-196 0 l-170 -254 l-132 0 l202 301 ZM731 668 l202 -301 l-136 0 l-201 301 l135 0 Z" /><glyph glyph-name="uni4E2D" unicode="&#x4e2d;" d="M898 233 l-339 0 l0 -180 l-119 0 l0 180 l-338 0 l0 333 l338 0 l0 101 l119 0 l0 -101 l225 0 l-28 -47 l-197 0 l0 -239 l225 0 l0 286 l114 0 l0 -333 ZM440 519 l-224 0 l0 -239 l224 0 l0 239 Z" /><glyph glyph-name="uni4E32" unicode="&#x4e32;" d="M746 567 l-190 0 l0 -125 l211 0 l0 169 l114 0 l0 -213 l-325 0 l0 -54 l240 0 l-21 -44 l-219 0 l0 -124 l240 0 l0 168 l114 0 l0 -212 l-354 0 l0 -79 l-114 0 l0 79 l-353 0 l0 212 l353 0 l0 54 l-324 0 l0 213 l324 0 l0 57 l114 0 l0 -57 l211 0 l-21 -44 ZM203 176 l239 0 l0 124 l-239 0 l0 -124 ZM232 442 l210 0 l0 125 l-210 0 l0 -125 Z" /><glyph glyph-name="uni4E34" unicode="&#x4e34;" d="M402 344 l499 0 l0 -288 l-499 0 l0 288 ZM226 674 l116 0 l0 -465 l-39 -163 l-114 0 l37 166 l0 462 ZM548 569 l372 0 l-21 -52 l-202 0 l99 -146 l-132 0 l-99 146 l-45 0 l-75 -146 l-89 0 l142 282 l91 0 l-41 -84 ZM193 196 l-114 0 l0 404 l114 0 l0 -404 ZM599 103 l0 194 l-83 0 l0 -194 l83 0 ZM787 344 l-26 -47 l-48 0 l0 -194 l74 0 l0 241 Z" /><glyph glyph-name="uni4E39" unicode="&#x4e39;" d="M918 338 l-70 0 l0 -285 l-315 0 l-24 46 l225 0 l0 239 l-422 0 l0 -83 l-52 -202 l-114 0 l52 202 l0 83 l-116 0 l0 46 l116 0 l0 284 l536 0 l-24 -45 l-398 0 l0 -239 l422 0 l0 284 l114 0 l0 -284 l70 0 l0 -46 ZM541 590 l74 -172 l-119 0 l-76 172 l121 0 Z" /><glyph glyph-name="uni4E3A" unicode="&#x4e3a;" d="M901 53 l-310 0 l-33 47 l229 0 l0 426 l-24 -39 l-312 0 l-211 -431 l-142 0 l213 431 l-213 0 l0 47 l236 0 l66 133 l140 0 l-66 -133 l427 0 l0 -481 ZM575 182 l-83 218 l123 0 l84 -218 l-124 0 ZM214 553 l-43 114 l123 0 l44 -114 l-124 0 Z" /><glyph glyph-name="uni4E3B" unicode="&#x4e3b;" d="M872 59 l-771 0 l0 48 l342 0 l0 203 l-283 0 l0 48 l283 0 l0 157 l-317 0 l0 47 l304 0 l-33 99 l121 0 l33 -99 l322 0 l-26 -47 l-290 0 l0 -157 l282 0 l-26 -48 l-256 0 l0 -203 l341 0 l-26 -48 Z" /><glyph glyph-name="uni4E3D" unicode="&#x4e3d;" d="M98 583 l280 0 l-26 -48 l-140 0 l0 -140 l123 0 l42 -154 l-125 0 l-40 154 l0 -342 l-114 0 l0 530 ZM623 535 l0 -140 l123 0 l42 -154 l-125 0 l-40 154 l0 -342 l-114 0 l0 530 l280 0 l-26 -48 l-140 0 ZM789 77 l0 506 l114 0 l0 -530 l-137 0 l-13 24 l36 0 ZM492 53 l-136 0 l-14 24 l36 0 l0 506 l114 0 l0 -530 ZM61 667 l878 0 l-27 -47 l-851 0 l0 47 Z" /><glyph glyph-name="uni4E3E" unicode="&#x4e3e;" d="M238 542 l-41 110 l123 0 l42 -110 l87 0 l0 124 l121 0 l0 -124 l69 0 l42 110 l124 0 l-42 -110 l143 0 l-27 -47 l-130 0 l64 -101 l71 0 l-26 -47 l-143 0 l-95 148 l-259 0 l-122 -148 l-128 0 l122 148 l-139 0 l0 47 l144 0 ZM449 182 l0 95 l-338 0 l0 47 l338 0 l0 128 l121 0 l0 -128 l324 0 l-27 -47 l-297 0 l0 -95 l324 0 l-27 -48 l-297 0 l0 -79 l-121 0 l0 79 l-338 0 l0 48 l338 0 Z" /><glyph glyph-name="uni4E45" unicode="&#x4e45;" d="M764 53 l-241 180 l-172 -180 l-290 0 l0 43 l179 0 l410 421 l0 107 l114 0 l0 -139 l-165 -172 l339 -260 l-174 0 ZM318 624 l332 0 l-30 -44 l-334 0 l-97 -131 l-128 0 l161 219 l129 0 l-33 -44 Z" /><glyph glyph-name="uni4E48" unicode="&#x4e48;" d="M236 347 l-121 0 l139 321 l121 0 l-139 -321 ZM171 53 l240 568 l126 0 l-223 -519 l441 0 l-72 230 l116 0 l86 -279 l-116 0 l-12 40 l-24 -40 l-562 0 Z" /><glyph glyph-name="uni4E49" unicode="&#x4e49;" d="M596 318 l294 -257 l-192 0 l-198 173 l-198 -173 l-192 0 l294 257 l-289 252 l192 0 l193 -168 l193 168 l192 0 l-289 -252 ZM434 537 l-64 123 l146 0 l65 -123 l-147 0 Z" /><glyph glyph-name="uni4E4B" unicode="&#x4e4b;" d="M275 53 l-197 0 l0 47 l83 0 l537 424 l-583 0 l0 47 l304 0 l-50 97 l125 0 l50 -97 l328 0 l0 -47 l-597 -471 ZM352 100 l569 0 l-27 -47 l-505 0 l-37 47 Z" /><glyph glyph-name="uni4E4E" unicode="&#x4e4e;" d="M113 653 l798 9 l-26 -57 l-333 -4 l0 -249 l72 0 l62 192 l126 0 l-62 -192 l190 0 l-26 -67 l-362 0 l0 -226 l-255 0 l-25 52 l142 0 l0 174 l-355 0 l0 67 l162 0 l-74 174 l121 0 l74 -174 l72 0 l0 247 l-301 -3 l0 57 Z" /><glyph glyph-name="uni4E50" unicode="&#x4e50;" d="M854 297 l-307 0 l0 -244 l-193 0 l-27 47 l106 0 l0 197 l-298 0 l0 371 l693 0 l-26 -47 l-255 0 l0 -276 l334 0 l-27 -48 ZM433 345 l0 276 l-184 0 l0 -276 l184 0 ZM202 266 l140 0 l-82 -213 l-141 0 l83 213 ZM626 265 l140 0 l86 -212 l-140 0 l-86 212 Z" /><glyph glyph-name="uni4E5D" unicode="&#x4e5d;" d="M409 601 l195 0 l-30 -44 l-176 0 l-126 -504 l-201 0 l0 43 l100 0 l115 461 l-156 0 l0 44 l167 0 l16 67 l113 0 l-17 -67 ZM929 97 l-30 -44 l-295 0 l0 548 l114 0 l0 -504 l211 0 Z" /><glyph glyph-name="uni4E5F" unicode="&#x4e5f;" d="M458 208 l0 323 l-143 -22 l0 -386 l564 0 l-26 -46 l-660 0 l0 413 l-72 -11 l0 46 l72 10 l0 108 l122 0 l0 -90 l143 22 l0 52 l122 0 l0 -34 l243 36 l0 -1 l43 7 l0 -427 l-185 0 l-27 48 l90 0 l0 320 l-164 -26 l0 -342 l-122 0 Z" /><glyph glyph-name="uni4E60" unicode="&#x4e60;" d="M819 611 l-753 0 l0 47 l868 0 l0 -595 l-293 0 l-26 47 l204 0 l0 501 ZM87 63 l353 307 l186 0 l-352 -307 l-187 0 ZM535 415 l-172 0 l-155 147 l172 0 l155 -147 Z" /><glyph glyph-name="uni4E61" unicode="&#x4e61;" d="M730 372 l208 0 l-669 -318 l-208 0 l362 172 l-317 -40 l0 54 l341 163 l-298 -3 l0 49 l433 217 l208 0 l-429 -217 l180 -1 l157 75 l208 0 l-532 -254 l179 19 l177 84 Z" /><glyph glyph-name="uni4E66" unicode="&#x4e66;" d="M783 369 l-352 0 l0 -316 l-126 0 l0 316 l-219 0 l0 48 l219 0 l0 162 l-184 0 l0 48 l184 0 l0 41 l126 0 l0 -41 l210 0 l15 41 l136 0 l-15 -41 l62 0 l-38 -210 l113 0 l0 -345 l-254 0 l-26 48 l149 0 l0 249 ZM431 417 l239 0 l29 162 l-268 0 l0 -162 Z" /><glyph glyph-name="uni4E70" unicode="&#x4e70;" d="M96 664 l808 0 l-52 -140 l-139 0 l35 95 l-652 0 l0 45 ZM311 291 l-211 0 l0 45 l250 0 l29 33 l-105 0 l-71 102 l91 0 l-71 102 l150 0 l71 -102 l-112 0 l69 -77 l118 134 l147 0 l-168 -192 l349 0 l-25 -45 l-364 0 l-207 -235 l-147 0 l207 235 ZM530 244 l156 0 l193 -188 l-156 0 l-193 188 Z" /><glyph glyph-name="uni4E71" unicode="&#x4e71;" d="M420 100 l0 247 l110 0 l0 -295 l-436 0 l0 295 l162 0 l0 85 l-180 0 l0 47 l180 0 l0 111 l-156 0 l0 44 l319 0 l18 33 l110 0 l-45 -77 l-135 0 l0 -111 l182 0 l-26 -47 l-156 0 l0 -85 l53 0 l-30 -48 l-186 0 l0 -199 l216 0 ZM805 154 l118 0 l-17 -102 l-315 0 l0 616 l118 0 l0 -568 l87 0 l9 54 Z" /><glyph glyph-name="uni4E86" unicode="&#x4e86;" d="M591 439 l0 -384 l-295 0 l-28 44 l202 0 l0 393 l1 0 l171 127 l-537 0 l0 47 l789 0 l-303 -227 Z" /><glyph glyph-name="uni4E88" unicode="&#x4e88;" d="M755 345 l26 46 l-224 0 l0 -335 l-224 0 l-27 47 l135 0 l0 288 l-370 0 l0 44 l272 0 l-48 107 l121 0 l46 -107 l58 0 l106 186 l-466 0 l0 44 l613 0 l-132 -230 l287 0 l-52 -90 l-121 0 Z" /><glyph glyph-name="uni4E89" unicode="&#x4e89;" d="M828 351 l56 0 l-16 -47 l-40 0 l0 -120 l-296 0 l0 -131 l-256 0 l-27 47 l168 0 l0 84 l-281 0 l0 49 l281 0 l0 71 l-302 0 l0 47 l302 0 l0 73 l-281 0 l0 47 l426 0 l48 100 l-305 0 l-49 -68 l-116 0 l100 164 l134 0 l-35 -49 l401 0 l-66 -147 l154 0 l0 -120 ZM532 351 l181 0 l0 73 l-181 0 l0 -73 ZM713 304 l-181 0 l0 -71 l181 0 l0 71 Z" /><glyph glyph-name="uni4E8B" unicode="&#x4e8b;" d="M869 267 l54 0 l-25 -49 l-29 0 l0 -85 l-311 0 l0 -80 l-163 0 l-24 45 l70 0 l0 35 l-304 0 l-26 49 l330 0 l0 36 l-365 0 l0 49 l365 0 l0 38 l-304 0 l-26 47 l330 0 l0 33 l-331 0 l0 145 l331 0 l0 32 l-365 0 l0 49 l365 0 l0 56 l117 0 l0 -56 l365 0 l-25 -49 l-340 0 l0 -32 l311 0 l0 -145 l-311 0 l0 -33 l311 0 l0 -85 ZM441 431 l0 54 l-219 0 l0 -54 l219 0 ZM558 485 l0 -54 l200 0 l0 87 l-37 -33 l-163 0 ZM558 267 l195 0 l0 38 l-195 0 l0 -38 ZM753 218 l-195 0 l0 -36 l195 0 l0 36 Z" /><glyph glyph-name="uni4E8C" unicode="&#x4e8c;" d="M797 515 l-621 0 l0 73 l647 0 l-26 -73 ZM876 206 l-26 -74 l-727 0 l0 74 l753 0 Z" /><glyph glyph-name="uni4E8E" unicode="&#x4e8e;" d="M559 450 l378 0 l-26 -48 l-352 0 l0 -349 l-229 0 l-24 46 l136 0 l0 303 l-380 0 l0 48 l380 0 l0 171 l-314 0 l0 47 l743 0 l-27 -47 l-285 0 l0 -171 Z" /><glyph glyph-name="uni4E91" unicode="&#x4e91;" d="M126 609 l0 44 l763 0 l-23 -44 l-740 0 ZM757 282 l153 -214 l-837 0 l202 292 l-195 0 l0 43 l847 0 l-21 -43 l-503 0 l-170 -248 l521 0 l-118 170 l121 0 Z" /><glyph glyph-name="uni4E92" unicode="&#x4e92;" d="M317 590 l-13 -69 l525 0 l-60 -389 l162 0 l-32 -72 l-830 0 l0 72 l589 0 l16 107 l-531 0 l62 351 l-135 0 l0 70 l840 0 l-31 -70 l-562 0 ZM294 463 l-30 -166 l419 0 l26 166 l-415 0 Z" /><glyph glyph-name="uni4E94" unicode="&#x4e94;" d="M258 113 l38 296 l-183 0 l0 48 l189 0 l19 151 l-218 0 l0 47 l774 0 l-26 -47 l-406 0 l-19 -151 l387 0 l0 -344 l99 0 l-26 -47 l-798 0 l0 47 l170 0 ZM382 113 l312 0 l0 296 l-274 0 l-38 -296 Z" /><glyph glyph-name="uni4E9A" unicode="&#x4e9a;" d="M875 54 l-777 0 l0 47 l209 0 l0 111 l-81 0 l-116 283 l121 0 l76 -188 l0 312 l-183 0 l0 48 l751 0 l-26 -48 l-157 0 l0 -321 l80 197 l121 0 l-116 -283 l-85 0 l0 -111 l209 0 l-26 -47 ZM421 101 l157 0 l0 518 l-157 0 l0 -518 Z" /><glyph glyph-name="uni4E9B" unicode="&#x4e9b;" d="M416 480 l0 -137 l134 20 l0 -47 l-458 -69 l0 47 l42 7 l0 312 l114 0 l0 -295 l54 8 l0 340 l114 0 l0 -139 l134 0 l-27 -47 l-107 0 ZM701 439 l0 -123 l206 0 l-26 -47 l-294 0 l0 397 l114 0 l0 -165 l206 109 l0 -62 l-206 -109 ZM881 54 l-789 0 l0 48 l815 0 l-26 -48 ZM183 219 l634 0 l-26 -47 l-608 0 l0 47 Z" /><glyph glyph-name="uni4EA1" unicode="&#x4ea1;" d="M628 578 l280 0 l-30 -45 l-575 0 l0 -430 l567 0 l-30 -45 l-675 0 l0 475 l-73 0 l0 45 l398 0 l-26 85 l137 0 l27 -85 Z" /><glyph glyph-name="uni4EA4" unicode="&#x4ea4;" d="M557 638 l382 0 l0 -1 l-26 -43 l-852 0 l0 44 l382 0 l0 30 l114 0 l0 -30 ZM169 565 l121 0 l-104 -144 l-121 0 l104 144 ZM678 392 l174 0 l-271 -163 l305 -176 l-174 0 l-216 125 l-208 -125 l-174 0 l293 176 l-281 163 l173 0 l194 -112 l185 112 ZM930 421 l-121 0 l-104 144 l121 0 l104 -144 Z" /><glyph glyph-name="uni4EA6" unicode="&#x4ea6;" d="M295 578 l-219 0 l0 47 l367 0 l0 43 l112 0 l0 -43 l368 0 l-25 -47 l-191 0 l0 -525 l-245 0 l27 47 l106 0 l0 478 l-187 0 l0 -363 l-64 -162 l-112 0 l63 162 l0 363 ZM743 523 l112 0 l35 -356 l-113 0 l-34 356 ZM145 523 l113 0 l-40 -356 l-112 0 l39 356 Z" /><glyph glyph-name="uni4EA7" unicode="&#x4ea7;" d="M80 51 l70 134 l0 257 l172 0 l-49 117 l129 0 l50 -117 l175 0 l49 117 l130 0 l-50 -117 l164 0 l-35 -46 l-601 0 l0 -225 l-58 -120 l-146 0 ZM143 626 l304 0 l0 43 l148 0 l0 -43 l309 0 l-27 -48 l-734 0 l0 48 Z" /><glyph glyph-name="uni4EAB" unicode="&#x4eab;" d="M701 52 l-460 0 l-25 44 l371 0 l0 101 l-511 0 l0 44 l511 0 l0 22 l80 54 l-506 0 l0 49 l692 0 l-152 -103 l0 -22 l222 0 l-30 -44 l-192 0 l0 -145 ZM136 573 l620 0 l-24 -44 l-482 0 l0 -89 l506 0 l0 133 l114 0 l0 -177 l-734 0 l0 177 ZM893 593 l-817 0 l0 44 l366 0 l0 32 l114 0 l0 -32 l367 0 l-30 -44 Z" /><glyph glyph-name="uni4EAE" unicode="&#x4eae;" d="M845 370 l-690 0 l0 174 l576 0 l-29 -47 l-433 0 l0 -79 l462 0 l0 126 l114 0 l0 -174 ZM277 53 l-114 0 l63 211 l556 0 l0 -164 l90 0 l-14 -47 l-190 0 l0 146 l-348 0 l-43 -146 ZM902 232 l-96 0 l0 68 l-612 0 l0 -68 l-96 0 l0 115 l804 0 l0 -115 ZM120 567 l0 47 l328 0 l0 54 l114 0 l0 -54 l329 0 l-16 -47 l-755 0 Z" /><glyph glyph-name="uni4EB2" unicode="&#x4eb2;" d="M293 544 l55 -82 l309 0 l55 82 l121 0 l-55 -82 l130 0 l-26 -48 l-309 0 l0 -96 l315 0 l-26 -47 l-289 0 l0 -210 l-198 0 l-25 46 l85 0 l0 164 l-323 0 l0 47 l323 0 l0 96 l-343 0 l0 48 l135 0 l-55 82 l121 0 ZM447 660 l119 0 l0 -48 l307 0 l-33 -45 l-708 0 l0 45 l315 0 l0 48 ZM752 78 l-94 139 l121 0 l94 -139 l-121 0 ZM118 78 l94 139 l121 0 l-94 -139 l-121 0 Z" /><glyph glyph-name="uni4EBA" unicode="&#x4eba;" d="M441 452 l1 0 l0 216 l116 0 l0 -216 l-1 -1 l346 -398 l-116 0 l-288 331 l-288 -331 l-115 0 l345 398 l0 1 Z" /><glyph glyph-name="uni4EC0" unicode="&#x4ec0;" d="M333 663 l-103 -249 l47 0 l0 -361 l-116 0 l0 314 l-77 0 l130 296 l119 0 ZM916 464 l-27 -47 l-210 0 l0 -364 l-116 0 l0 364 l-221 0 l0 47 l221 0 l0 203 l116 0 l0 -203 l237 0 Z" /><glyph glyph-name="uni4ECA" unicode="&#x4eca;" d="M89 386 l813 0 l0 -43 l-337 -286 l-149 0 l336 286 l-637 0 l-26 43 ZM815 664 l123 -249 l-132 0 l-101 205 l-381 0 l0 44 l491 0 ZM192 415 l-131 0 l123 249 l131 0 l-123 -249 ZM579 415 l-132 0 l-44 90 l132 0 l44 -90 Z" /><glyph glyph-name="uni4ECB" unicode="&#x4ecb;" d="M815 56 l-114 0 l0 397 l114 0 l0 -397 ZM108 56 l97 397 l114 0 l-97 -397 l-114 0 ZM804 662 l133 -178 l-132 0 l-101 136 l-336 0 l-26 44 l462 0 l0 -2 ZM327 664 l-134 -180 l-131 0 l133 180 l132 0 Z" /><glyph glyph-name="uni4ECD" unicode="&#x4ecd;" d="M513 59 l-114 0 l106 529 l-112 0 l0 46 l473 0 l-60 -213 l107 0 l-21 -352 l0 -10 l-221 0 l-34 47 l141 0 l16 269 l-115 0 l60 213 l-120 0 l-106 -529 ZM235 401 l59 0 l0 -342 l-115 0 l0 295 l-93 0 l146 307 l121 0 l-118 -260 Z" /><glyph glyph-name="uni4ECE" unicode="&#x4ece;" d="M780 61 l-110 321 l-82 -320 l-132 0 l20 80 l-110 0 l-70 198 l-71 -278 l-133 0 l153 597 l132 0 l-75 -294 l113 0 l69 -194 l124 488 l133 0 l-66 -256 l116 0 l117 -342 l-128 0 Z" /><glyph glyph-name="uni4ED6" unicode="&#x4ed6;" d="M938 103 l-26 -48 l-539 0 l0 379 l-98 -23 l0 53 l98 22 l0 180 l105 0 l0 -156 l105 24 l0 132 l105 0 l0 -108 l211 48 l0 -50 l-1 0 l0 -392 l-157 0 l-26 48 l78 0 l0 320 l-105 -25 l0 -343 l-105 0 l0 319 l-105 -25 l0 -355 l460 0 ZM206 417 l48 0 l0 -362 l-116 0 l0 314 l-77 0 l129 297 l120 0 l-104 -249 Z" /><glyph glyph-name="uni4ED8" unicode="&#x4ed8;" d="M901 525 l-56 0 l0 -473 l-280 0 l-27 48 l192 0 l0 425 l-420 0 l0 44 l420 0 l0 99 l115 0 l0 -99 l81 0 l-25 -44 ZM263 508 l0 -456 l-112 0 l0 400 l-78 0 l106 216 l122 0 l-78 -160 l40 0 ZM472 182 l-52 255 l121 0 l50 -255 l-119 0 Z" /><glyph glyph-name="uni4EE3" unicode="&#x4ee3;" d="M317 668 l-77 -161 l45 0 l0 -454 l-114 0 l0 398 l-84 0 l107 217 l123 0 ZM885 544 l-189 0 l188 -490 l-122 0 l-187 490 l-235 0 l0 47 l217 0 l-30 77 l121 0 l30 -77 l74 0 l-30 77 l123 0 l30 -77 l37 0 l-27 -47 Z" /><glyph glyph-name="uni4EE4" unicode="&#x4ee4;" d="M116 386 l772 0 l0 -50 l-322 -227 l72 -56 l-181 0 l-288 222 l180 0 l115 -88 l212 149 l-560 0 l0 50 ZM223 412 l-162 0 l237 256 l405 0 l236 -256 l-162 0 l-203 206 l-148 0 l-203 -206 ZM399 542 l126 0 l57 -136 l-126 0 l-57 136 Z" /><glyph glyph-name="uni4EE5" unicode="&#x4ee5;" d="M411 53 l242 615 l112 0 l-114 -290 l77 0 l175 -325 l-119 0 l-151 278 l-110 -278 l-112 0 ZM428 115 l-331 -62 l0 615 l112 0 l0 -547 l219 42 l0 -48 ZM320 284 l-68 325 l121 0 l66 -325 l-119 0 Z" /><glyph glyph-name="uni4EEC" unicode="&#x4eec;" d="M313 668 l-105 -217 l47 0 l0 -398 l-116 0 l0 351 l-77 0 l132 264 l119 0 ZM823 645 l114 0 l0 -590 l-252 0 l-15 44 l153 0 l0 546 ZM474 53 l-136 0 l0 448 l136 0 l0 -448 ZM492 526 l-125 0 l-26 137 l125 0 l26 -137 ZM823 645 l-26 -48 l-286 0 l0 48 l312 0 Z" /><glyph glyph-name="uni4EF6" unicode="&#x4ef6;" d="M142 421 l-81 0 l119 237 l123 0 l-84 -167 l37 0 l0 -439 l-114 0 l0 369 ZM707 531 l0 -256 l231 0 l-25 -44 l-206 0 l0 -177 l-114 0 l0 177 l-270 0 l0 44 l270 0 l0 256 l-123 0 l-61 -120 l-123 0 l119 236 l123 0 l-36 -72 l101 0 l0 93 l114 0 l0 -93 l231 0 l-25 -44 l-206 0 Z" /><glyph glyph-name="uni4EF7" unicode="&#x4ef7;" d="M138 367 l-77 0 l129 296 l120 0 l-104 -249 l48 0 l0 -361 l-116 0 l0 314 ZM816 394 l0 -341 l-114 0 l0 341 l114 0 ZM596 593 l149 0 l193 -173 l-149 0 l-193 173 ZM275 421 l237 248 l149 0 l-237 -248 l-149 0 ZM378 402 l115 0 l0 -227 l-70 -123 l-116 0 l71 123 l0 227 Z" /><glyph glyph-name="uni4EFB" unicode="&#x4efb;" d="M869 634 l-32 -47 l-165 -10 l0 -186 l243 0 l-31 -47 l-212 0 l0 -224 l207 0 l-32 -46 l-175 0 l0 -1 l-111 0 l0 1 l-188 0 l0 46 l188 0 l0 224 l-224 0 l0 47 l224 0 l0 179 l-179 -10 l0 46 l487 28 ZM225 400 l56 0 l0 -327 l-109 0 l0 282 l-87 0 l138 293 l115 0 l-113 -248 Z" /><glyph glyph-name="uni4EFD" unicode="&#x4efd;" d="M316 388 l579 0 l0 -335 l-259 0 l-26 47 l169 0 l0 241 l-241 0 l-104 -288 l-123 0 l111 288 l-106 0 l0 47 ZM814 419 l-94 248 l116 0 l93 -248 l-115 0 ZM318 419 l88 248 l115 0 l-88 -248 l-115 0 ZM217 419 l47 0 l0 -361 l-115 0 l0 314 l-78 0 l130 296 l120 0 l-104 -249 Z" /><glyph glyph-name="uni4EFF" unicode="&#x4eff;" d="M503 520 l0 -86 l266 0 l-27 -48 l-239 0 l0 -190 l-83 -144 l-115 0 l84 144 l0 324 l-69 0 l0 47 l270 0 l-42 101 l114 0 l42 -101 l217 0 l-27 -47 l-391 0 ZM231 507 l46 0 l0 -454 l-114 0 l0 398 l-84 0 l107 217 l122 0 l-77 -161 ZM769 100 l0 334 l114 0 l0 -382 l-202 0 l-26 48 l114 0 Z" /><glyph glyph-name="uni4F01" unicode="&#x4f01;" d="M849 53 l-725 0 l0 47 l60 0 l0 255 l112 0 l0 -255 l147 0 l0 445 l112 0 l0 -220 l260 0 l-27 -48 l-233 0 l0 -177 l320 0 l-26 -47 ZM296 668 l407 0 l186 -234 l-131 0 l-160 187 l-202 0 l-160 -187 l-126 0 l186 234 Z" /><glyph glyph-name="uni4F0D" unicode="&#x4f0d;" d="M928 102 l-26 -47 l-579 0 l0 47 l86 0 l33 311 l-94 0 l0 48 l99 0 l16 151 l-125 0 l0 47 l556 0 l-27 -47 l-280 0 l-16 -151 l268 0 l0 -359 l89 0 ZM320 666 l-104 -249 l48 0 l0 -362 l-116 0 l0 314 l-77 0 l129 297 l120 0 ZM720 413 l-154 0 l-33 -311 l187 0 l0 311 Z" /><glyph glyph-name="uni4F11" unicode="&#x4f11;" d="M155 401 l-95 0 l132 264 l123 0 l-83 -165 l35 0 l0 -439 l-112 0 l0 340 ZM688 580 l251 0 l-21 -47 l-230 0 l0 -478 l-116 0 l0 478 l-57 0 l-90 -461 l-127 0 l90 461 l-68 0 l0 47 l252 0 l0 85 l116 0 l0 -85 ZM860 481 l79 -409 l-127 0 l-80 409 l128 0 Z" /><glyph glyph-name="uni4F17" unicode="&#x4f17;" d="M395 382 l-140 0 l186 286 l141 0 l-51 -78 l131 0 l144 -208 l-136 0 l-141 203 l-134 -203 ZM640 348 l128 0 l-38 -81 l121 0 l93 -214 l-125 0 l-91 209 l-100 -209 l-128 0 l140 295 ZM183 53 l-127 0 l140 295 l128 0 l-38 -81 l121 0 l93 -214 l-125 0 l-91 209 l-101 -209 Z" /><glyph glyph-name="uni4F18" unicode="&#x4f18;" d="M892 480 l-129 0 l0 -375 l157 0 l-26 -52 l-245 0 l0 427 l-114 0 l-80 -427 l-116 0 l80 427 l-85 0 l0 53 l95 0 l25 134 l116 0 l-25 -134 l373 0 l-26 -53 ZM340 667 l-105 -248 l47 0 l0 -366 l-115 0 l0 319 l-88 0 l142 295 l119 0 ZM870 553 l-114 0 l-65 114 l114 0 l65 -114 Z" /><glyph glyph-name="uni4F19" unicode="&#x4f19;" d="M387 348 l-73 240 l121 0 l67 -227 l0 307 l116 0 l0 -332 l-10 -16 l59 0 l240 -268 l-150 0 l-182 216 l-137 -214 l-135 0 l190 294 l-106 0 ZM341 661 l-103 -249 l47 0 l0 -357 l-116 0 l0 309 l-77 0 l130 297 l119 0 ZM622 348 l124 240 l121 0 l-125 -240 l-120 0 Z" /><glyph glyph-name="uni4F1A" unicode="&#x4f1a;" d="M488 674 l437 -167 l0 -70 l-437 161 l-414 -164 l0 68 l414 172 ZM909 316 l-33 -44 l-488 0 l-133 -181 l470 0 l-105 123 l149 0 l145 -168 l-828 0 l165 226 l-158 0 l0 44 l816 0 ZM734 419 l-479 0 l0 44 l501 0 l-22 -44 Z" /><glyph glyph-name="uni4F1F" unicode="&#x4f1f;" d="M924 617 l-29 -47 l-267 0 l0 -62 l267 0 l-29 -47 l-238 0 l0 -62 l296 0 l0 -346 l-188 0 l-26 48 l100 0 l0 296 l-28 -45 l-154 0 l0 -299 l-114 0 l0 299 l-222 0 l0 47 l222 0 l0 62 l-210 0 l0 47 l210 0 l0 62 l-222 0 l0 47 l222 0 l0 51 l114 0 l0 -51 l296 0 ZM259 53 l-114 0 l0 354 l-69 0 l112 260 l116 0 l-96 -223 l51 0 l0 -391 Z" /><glyph glyph-name="uni4F20" unicode="&#x4f20;" d="M912 378 l-385 0 l-19 -53 l356 0 l0 -44 l-3 0 l3 2 l-147 0 l-3 -2 l-334 0 l0 44 l19 53 l-89 0 l0 48 l106 0 l35 96 l-105 0 l0 48 l122 0 l36 98 l128 0 l-36 -98 l326 0 l-26 -48 l-317 0 l-35 -96 l395 0 l-27 -48 ZM320 663 l-103 -249 l47 0 l0 -361 l-125 0 l0 314 l-78 0 l130 296 l129 0 ZM563 53 l144 0 l-55 52 l209 176 l-147 0 l-131 -110 l-52 50 l-146 0 l178 -168 Z" /><glyph glyph-name="uni4F30" unicode="&#x4f30;" d="M326 660 l-72 -105 l25 0 l0 -500 l-112 0 l0 402 l-95 0 l131 203 l123 0 ZM682 517 l0 -137 l217 0 l0 -322 l-542 0 l0 322 l211 0 l0 137 l-237 0 l0 48 l237 0 l0 100 l114 0 l0 -100 l246 0 l-27 -48 l-219 0 ZM758 334 l-288 0 l0 -233 l318 0 l0 263 l-30 -30 Z" /><glyph glyph-name="uni4F34" unicode="&#x4f34;" d="M661 465 l218 0 l-27 -48 l-191 0 l0 -177 l270 0 l-24 -46 l-246 0 l0 -135 l-107 0 l0 135 l-247 0 l0 46 l247 0 l0 177 l-219 0 l0 48 l219 0 l0 196 l107 0 l0 -196 ZM898 640 l-62 -140 l-112 0 l63 140 l111 0 ZM433 640 l63 -140 l-112 0 l-65 140 l114 0 ZM258 498 l0 -439 l-113 0 l0 383 l-77 0 l105 216 l123 0 l-79 -160 l41 0 Z" /><glyph glyph-name="uni4F38" unicode="&#x4f38;" d="M779 537 l-91 0 l0 -132 l118 0 l0 181 l112 0 l0 -408 l-230 0 l0 -125 l-114 0 l0 125 l-230 0 l0 408 l230 0 l0 81 l114 0 l0 -81 l117 0 l-26 -49 ZM202 666 l119 0 l-95 -228 l46 0 l0 -384 l-114 0 l0 340 l-77 0 l121 272 ZM806 225 l0 134 l-118 0 l0 -134 l118 0 ZM458 225 l116 0 l0 134 l-116 0 l0 -134 ZM458 405 l116 0 l0 132 l-116 0 l0 -132 Z" /><glyph glyph-name="uni4F3C" unicode="&#x4f3c;" d="M931 54 l-125 0 l-92 247 l-101 -247 l-131 0 l127 310 l-108 0 l-69 263 l108 0 l69 -262 l124 302 l131 0 l-133 -323 l90 0 l110 -290 ZM214 418 l48 0 l0 -362 l-116 0 l0 314 l-77 0 l130 297 l119 0 l-104 -249 ZM522 198 l-213 -81 l0 456 l113 0 l0 -359 l121 44 l-21 -60 Z" /><glyph glyph-name="uni4F46" unicode="&#x4f46;" d="M855 190 l-492 0 l0 478 l378 0 l-24 -45 l-240 0 l0 -171 l264 0 l0 216 l114 0 l0 -478 ZM232 507 l45 0 l0 -454 l-114 0 l0 398 l-84 0 l107 217 l123 0 l-77 -161 ZM477 236 l264 0 l0 171 l-264 0 l0 -171 ZM305 99 l616 0 l0 -46 l-616 0 l0 46 Z" /><glyph glyph-name="uni4F4D" unicode="&#x4f4d;" d="M925 98 l-26 -47 l-599 0 l0 47 l127 0 l-69 369 l107 0 l70 -369 l142 0 l71 369 l107 0 l-69 -369 l139 0 ZM315 588 l237 0 l0 82 l114 0 l0 -82 l249 0 l-26 -47 l-574 0 l0 47 ZM219 415 l48 0 l0 -361 l-116 0 l0 314 l-77 0 l130 296 l119 0 l-104 -249 Z" /><glyph glyph-name="uni4F4E" unicode="&#x4f4e;" d="M912 363 l-62 0 l75 -310 l-119 0 l-77 310 l-279 0 l0 -263 l162 0 l-28 -47 l-254 0 l0 590 l1 0 l594 25 l0 -47 l-136 -6 l49 -204 l100 0 l-26 -48 ZM312 668 l-105 -254 l47 0 l0 -361 l-116 0 l0 314 l-77 0 l132 301 l119 0 ZM450 600 l0 -189 l267 0 l-49 198 l-218 -9 ZM636 53 l-37 139 l121 0 l35 -139 l-119 0 Z" /><glyph glyph-name="uni4F4F" unicode="&#x4f4f;" d="M233 447 l50 0 l0 -391 l-111 0 l0 346 l-86 0 l128 263 l125 0 l-106 -218 ZM663 108 l250 0 l-27 -48 l-580 0 l0 48 l243 0 l0 207 l-182 0 l0 47 l182 0 l0 154 l-216 0 l0 48 l201 0 l-33 99 l121 0 l33 -99 l238 0 l-26 -48 l-204 0 l0 -154 l196 0 l-26 -47 l-170 0 l0 -207 Z" /><glyph glyph-name="uni4F53" unicode="&#x4f53;" d="M294 100 l138 430 l-104 0 l0 48 l224 0 l0 90 l114 0 l0 -90 l261 0 l-27 -48 l-234 0 l0 -371 l116 0 l-26 -47 l-90 0 l0 -58 l-114 0 l0 58 l-108 0 l0 47 l108 0 l0 368 l-142 -427 l-116 0 ZM248 500 l36 0 l0 -448 l-115 0 l0 348 l-97 0 l135 269 l125 0 l-84 -169 ZM810 100 l-136 389 l121 0 l131 -389 l-116 0 Z" /><glyph glyph-name="uni4F55" unicode="&#x4f55;" d="M671 59 l-26 45 l123 0 l0 490 l-496 0 l29 57 l640 0 l-40 -57 l-15 0 l0 -535 l-215 0 ZM705 145 l-367 0 l0 390 l261 0 l-27 -48 l-124 0 l0 -292 l151 0 l0 340 l106 0 l0 -390 ZM252 59 l-116 0 l0 391 l-77 0 l100 212 l119 0 l-79 -169 l53 0 l0 -434 Z" /><glyph glyph-name="uni4F59" unicode="&#x4f59;" d="M904 242 l-334 0 l0 -189 l-236 0 l0 47 l108 0 l0 142 l-368 0 l0 47 l368 0 l0 106 l-280 0 l0 48 l681 0 l-26 -48 l-247 0 l0 -106 l361 0 l-27 -47 ZM242 475 l-180 0 l333 193 l202 0 l340 -193 l-184 0 l-258 146 l-253 -146 ZM242 54 l-146 0 l81 160 l145 0 l-80 -160 ZM907 54 l-146 0 l-80 160 l145 0 l81 -160 Z" /><glyph glyph-name="uni4F5B" unicode="&#x4f5b;" d="M757 398 l0 -117 l182 0 l0 -195 l-145 0 l-26 48 l55 0 l0 100 l-66 0 l0 -180 l-114 0 l0 180 l-65 0 l-125 -181 l-126 0 l117 181 l-130 0 l0 212 l158 0 l0 110 l-153 0 l0 47 l153 0 l0 65 l116 0 l0 -65 l55 0 l0 65 l114 0 l0 -65 l182 0 l0 -205 l-182 0 ZM233 503 l35 0 l0 -450 l-112 0 l0 352 l-95 0 l132 263 l123 0 l-83 -165 ZM823 556 l-66 0 l0 -110 l66 0 l0 110 ZM643 398 l-55 0 l0 -117 l55 0 l0 117 ZM588 446 l55 0 l0 110 l-55 0 l0 -110 ZM428 281 l44 0 l0 117 l-44 0 l0 -117 Z" /><glyph glyph-name="uni4F5C" unicode="&#x4f5c;" d="M901 436 l-26 -48 l-249 0 l0 -128 l274 0 l-26 -47 l-248 0 l0 -155 l-132 0 l0 416 l-33 -65 l-144 0 l128 253 l143 0 l-35 -69 l369 0 l-27 -47 l-269 0 l0 -110 l275 0 ZM296 499 l0 -438 l-130 0 l0 382 l-88 0 l116 216 l123 0 l-79 -160 l58 0 Z" /><glyph glyph-name="uni4F60" unicode="&#x4f60;" d="M318 665 l-103 -249 l47 0 l0 -362 l-116 0 l0 314 l-77 0 l130 297 l119 0 ZM523 54 l-24 46 l70 0 l0 451 l117 0 l0 -497 l-163 0 ZM931 614 l-28 -135 l-109 0 l21 89 l-350 -3 l-16 -45 l-118 0 l53 147 l117 0 l-19 -53 l449 0 ZM406 451 l115 0 l-70 -362 l-120 0 l75 362 ZM910 89 l-119 0 l-67 331 l115 0 l71 -331 Z" /><glyph glyph-name="uni4F6C" unicode="&#x4f6c;" d="M919 399 l-39 -48 l-294 0 l-41 -54 l0 -195 l368 0 l-38 -47 l-444 0 l0 95 l-15 -19 l-119 0 l169 220 l-143 0 l0 48 l227 0 l0 144 l-188 0 l0 47 l188 0 l0 78 l114 0 l0 -78 l111 0 l30 38 l120 0 l-177 -229 l171 0 ZM224 404 l60 0 l0 -351 l-116 0 l0 301 l-93 0 l147 314 l123 0 l-121 -264 ZM722 154 l-132 0 l150 151 l131 0 l-149 -151 ZM664 543 l0 -98 l75 98 l-75 0 Z" /><glyph glyph-name="uni4F73" unicode="&#x4f73;" d="M900 55 l-586 0 l0 47 l249 0 l0 122 l-220 0 l0 46 l220 0 l0 76 l114 0 l0 -76 l219 0 l-25 -46 l-194 0 l0 -122 l248 0 l-25 -47 ZM324 666 l-104 -249 l48 0 l0 -362 l-116 0 l0 314 l-77 0 l130 297 l119 0 ZM900 373 l-586 0 l0 46 l249 0 l0 123 l-220 0 l0 46 l220 0 l0 76 l114 0 l0 -76 l219 0 l-25 -46 l-194 0 l0 -123 l248 0 l-25 -46 Z" /><glyph glyph-name="uni4F7F" unicode="&#x4f7f;" d="M667 193 l-118 0 l-121 -140 l-151 0 l121 140 l-94 0 l-27 47 l161 0 l37 43 l-163 0 l0 241 l225 0 l0 35 l-227 0 l0 48 l227 0 l0 61 l126 0 l0 -61 l216 0 l-41 -48 l-175 0 l0 -35 l225 0 l0 -241 l-262 0 l-37 -43 l188 0 l162 -187 l-151 0 l-121 140 ZM207 414 l47 0 l0 -361 l-115 0 l0 314 l-78 0 l130 296 l119 0 l-103 -249 ZM663 478 l0 -149 l115 0 l0 182 l-37 -33 l-78 0 ZM425 329 l112 0 l0 149 l-112 0 l0 -149 Z" /><glyph glyph-name="uni4F8B" unicode="&#x4f8b;" d="M371 620 l0 47 l336 0 l-16 -47 l-171 0 l-16 -62 l189 0 l-69 -306 l-96 -199 l-116 0 l97 202 l14 64 l-17 0 l-52 51 l-43 -164 l-116 0 l109 414 l-33 0 ZM227 403 l42 0 l0 -351 l-116 0 l0 302 l-75 0 l130 314 l123 0 l-104 -265 ZM922 667 l0 -614 l-163 0 l-23 45 l88 0 l0 569 l98 0 ZM801 179 l-99 0 l0 386 l99 0 l0 -386 ZM494 445 l47 -47 l25 112 l-75 0 l-17 -65 l20 0 Z" /><glyph glyph-name="uni4F9B" unicode="&#x4f9b;" d="M246 562 l25 0 l0 -510 l-112 0 l0 412 l-95 0 l132 204 l123 0 l-73 -106 ZM850 253 l69 -201 l-131 0 l-73 201 l135 0 ZM414 253 l135 0 l-73 -201 l-132 0 l70 201 ZM909 298 l-590 0 l0 47 l111 0 l0 193 l-81 0 l0 47 l81 0 l0 72 l114 0 l0 -72 l171 0 l0 72 l114 0 l0 -72 l76 0 l-26 -47 l-50 0 l0 -193 l106 0 l-26 -47 ZM544 345 l171 0 l0 193 l-171 0 l0 -193 Z" /><glyph glyph-name="uni4F9D" unicode="&#x4f9d;" d="M318 269 l190 285 l-189 0 l0 46 l220 0 l0 55 l144 0 l0 -55 l213 0 l-26 -46 l-241 0 l-99 -145 l51 0 l0 -38 l105 0 l28 -38 l85 124 l123 0 l-102 -152 l-86 0 l183 -248 l-142 0 l-194 268 l0 -214 l119 15 l-28 -50 l-203 -24 l0 266 l-152 -224 l1 175 ZM199 668 l119 0 l-95 -228 l46 0 l0 -384 l-114 0 l0 340 l-78 0 l122 272 Z" /><glyph glyph-name="uni4FA6" unicode="&#x4fa6;" d="M323 664 l-104 -250 l48 0 l0 -361 l-116 0 l0 314 l-77 0 l129 297 l120 0 ZM662 404 l0 -170 l58 0 l190 -181 l-132 0 l-150 145 l-173 -145 l-151 0 l235 197 l0 154 l123 0 ZM926 614 l-20 -49 l-251 0 l0 -57 l239 0 l0 -301 l-116 0 l0 253 l-345 0 l0 -253 l-116 0 l0 301 l222 0 l0 160 l116 0 l0 -54 l271 0 Z" /><glyph glyph-name="uni4FA7" unicode="&#x4fa7;" d="M695 632 l95 0 l0 -458 l-95 0 l0 458 ZM742 99 l70 0 l0 569 l95 0 l0 -615 l-142 0 l-23 46 ZM174 432 l-82 0 l119 236 l123 0 l-86 -166 l38 0 l0 -448 l-112 0 l0 378 ZM444 225 l-101 0 l0 407 l233 0 l-27 -46 l-105 0 l0 -361 ZM576 225 l0 407 l99 0 l0 -407 l-99 0 ZM558 225 l-35 -51 l81 0 l78 -121 l-96 0 l-71 110 l-75 -110 l-97 0 l119 172 l0 333 l96 0 l0 -333 Z" /><glyph glyph-name="uni4FBF" unicode="&#x4fbf;" d="M632 193 l302 -140 l-190 0 l-183 85 l-110 -85 l-149 0 l166 128 l-147 68 l191 0 l27 -13 l22 17 l0 31 l-241 0 l0 271 l241 0 l0 54 l-241 0 l0 44 l611 0 l-21 -44 l-220 0 l0 -54 l127 0 l-21 -44 l-106 0 l0 -63 l127 0 l0 107 l114 0 l0 -271 l-241 0 l0 -46 l-58 -45 ZM203 420 l62 0 l0 -361 l-114 0 l0 315 l-85 0 l124 294 l118 0 l-105 -248 ZM561 328 l0 64 l-127 0 l0 -64 l127 0 ZM690 392 l0 -64 l127 0 l0 64 l-127 0 ZM434 448 l127 0 l0 63 l-127 0 l0 -63 Z" /><glyph glyph-name="uni4FC3" unicode="&#x4fc3;" d="M921 98 l-24 -46 l-414 0 l-49 62 l-19 -62 l-114 0 l84 282 l114 0 l-34 -115 l96 -121 l14 0 l0 306 l-231 0 l0 230 l428 0 l-24 -46 l-290 0 l0 -138 l314 0 l0 184 l114 0 l0 -230 l-196 0 l0 -114 l196 0 l-24 -46 l-172 0 l0 -146 l231 0 ZM228 509 l40 0 l0 -455 l-112 0 l0 399 l-77 0 l105 216 l123 0 l-79 -160 Z" /><glyph glyph-name="uni4FCA" unicode="&#x4fca;" d="M737 183 l188 -52 l0 -78 l-321 90 l-298 -90 l0 78 l166 49 l-112 32 l0 77 l244 -69 l152 46 l0 35 l-425 0 l51 83 l120 0 l-25 -39 l395 0 l0 -121 l-135 -41 ZM207 416 l47 0 l0 -361 l-116 0 l0 314 l-77 0 l130 297 l119 0 l-103 -250 ZM746 501 l-427 0 l101 167 l125 0 l-72 -119 l287 0 l-35 61 l128 0 l58 -109 l-124 0 l-20 35 l-21 -35 ZM882 481 l56 -85 l-115 0 l-55 85 l114 0 ZM414 396 l-114 0 l56 85 l114 0 l-56 -85 Z" /><glyph glyph-name="uni4FCF" unicode="&#x4fcf;" d="M805 474 l-27 -47 l-313 0 l0 -78 l340 0 l0 125 l114 0 l0 -421 l-285 0 l-26 47 l197 0 l0 77 l-340 0 l0 -124 l-114 0 l0 421 l227 0 l0 194 l114 0 l0 -194 l113 0 ZM329 663 l-104 -249 l48 0 l0 -361 l-116 0 l0 314 l-77 0 l130 296 l119 0 ZM805 302 l-340 0 l0 -77 l340 0 l0 77 ZM796 644 l123 0 l-86 -144 l-125 0 l88 144 ZM437 500 l-86 144 l123 0 l88 -144 l-125 0 Z" /><glyph glyph-name="uni4FDD" unicode="&#x4fdd;" d="M930 57 l-120 0 l-117 189 l121 0 l116 -189 ZM923 334 l-27 -45 l-233 0 l0 -232 l-112 0 l0 232 l-21 0 l-118 -232 l-121 0 l116 232 l-97 0 l0 45 l241 0 l0 53 l-206 0 l0 272 l532 0 l0 -272 l-214 0 l0 -53 l260 0 ZM459 611 l0 -179 l304 0 l0 218 l-35 -39 l-269 0 ZM261 57 l-116 0 l0 312 l-75 0 l128 295 l121 0 l-105 -249 l47 0 l0 -358 Z" /><glyph glyph-name="uni4FE1" unicode="&#x4fe1;" d="M926 53 l-597 0 l0 249 l484 0 l-26 -48 l-344 0 l0 -152 l370 0 l0 200 l113 0 l0 -249 ZM155 399 l-94 0 l137 269 l123 0 l-88 -171 l35 0 l0 -444 l-113 0 l0 346 ZM687 620 l251 0 l-30 -45 l-579 0 l0 45 l244 0 l0 48 l114 0 l0 -48 ZM329 404 l609 0 l-30 -46 l-579 0 l0 46 ZM329 512 l609 0 l-30 -46 l-579 0 l0 46 Z" /><glyph glyph-name="uni4FEE" unicode="&#x4fee;" d="M950 344 l-149 0 l-288 -141 l-244 0 l0 319 l99 0 l0 -192 l202 108 l-86 41 l-3 -8 l-105 0 l85 197 l105 0 l-16 -38 l371 0 l0 -92 l-176 -95 l205 -99 ZM144 399 l-94 0 l131 264 l123 0 l-83 -165 l36 0 l0 -439 l-113 0 l0 340 ZM402 123 l344 168 l166 0 l-343 -168 l-167 0 ZM781 203 l166 0 l-308 -151 l-167 0 l309 151 ZM658 486 l132 70 l0 29 l-260 0 l-13 -31 l141 -68 ZM690 371 l20 0 l-53 25 l-159 -86 l-130 0 l0 -97 l322 158 Z" /><glyph glyph-name="uni4FFA" unicode="&#x4ffa;" d="M941 617 l-27 -46 l-342 0 l-119 -142 l-132 0 l120 142 l-125 0 l0 46 l165 0 l40 47 l134 0 l-41 -47 l327 0 ZM230 496 l35 0 l0 -439 l-112 0 l0 341 l-95 0 l132 263 l122 0 l-82 -165 ZM546 398 l0 58 l112 0 l0 -58 l125 0 l-25 -46 l-100 0 l0 -61 l126 0 l0 107 l113 0 l0 -263 l-239 0 l0 -30 l277 0 l-26 -48 l-363 0 l0 78 l-239 0 l0 263 l239 0 ZM546 291 l0 61 l-128 0 l0 -61 l128 0 ZM546 180 l0 62 l-128 0 l0 -62 l128 0 ZM784 180 l0 62 l-126 0 l0 -62 l126 0 ZM821 529 l91 -100 l-128 0 l-91 100 l128 0 Z" /><glyph glyph-name="uni5012" unicode="&#x5012;" d="M921 668 l0 -615 l-245 0 l-24 46 l155 0 l0 569 l114 0 ZM220 512 l21 0 l0 -459 l-114 0 l0 380 l-48 0 l81 235 l114 0 l-54 -156 ZM504 99 l122 0 l-25 -46 l-332 0 l0 46 l121 0 l0 138 l-106 0 l0 46 l106 0 l0 69 l114 0 l0 -69 l106 0 l-24 -46 l-82 0 l0 -138 ZM766 172 l-114 0 l0 420 l114 0 l0 -420 ZM351 592 l-71 0 l0 46 l335 0 l-25 -46 l-125 0 l-64 -156 l88 0 l-25 -46 l-195 0 l82 202 ZM573 512 l53 -122 l-114 0 l-53 122 l114 0 Z" /><glyph glyph-name="uni5019" unicode="&#x5019;" d="M259 552 l84 0 l0 -387 l-84 0 l0 387 ZM796 659 l-1 -1 l126 0 l0 -148 l33 0 l0 -53 l-580 0 l0 53 l418 0 l0 144 l-38 -43 l-347 0 l0 48 l389 0 ZM258 663 l-78 -169 l52 0 l0 -434 l-116 0 l0 391 l-77 0 l100 212 l119 0 ZM761 157 l117 0 l49 -99 l-115 0 l-51 99 ZM939 193 l-302 0 l-86 -135 l-121 0 l87 135 l-136 0 l0 49 l166 0 l64 105 l-104 0 l-26 -60 l-113 0 l59 146 l114 0 l-15 -40 l415 0 l-25 -46 l-186 0 l-64 -105 l295 0 l-22 -49 Z" /><glyph glyph-name="uni501F" unicode="&#x501f;" d="M892 555 l-84 0 l0 -105 l136 0 l-26 -47 l-628 0 l0 47 l119 0 l0 105 l-100 0 l0 48 l100 0 l0 52 l107 0 l0 -52 l183 0 l0 52 l109 0 l0 -52 l112 0 l-28 -48 ZM699 450 l0 105 l-183 0 l0 -105 l183 0 ZM199 447 l47 0 l0 -388 l-116 0 l0 342 l-75 0 l131 260 l118 0 l-105 -214 ZM892 350 l0 -288 l-562 0 l0 288 l562 0 ZM769 233 l-26 -48 l-299 0 l0 -79 l332 0 l0 234 l-32 -34 l-300 0 l0 -73 l325 0 Z" /><glyph glyph-name="uni503C" unicode="&#x503c;" d="M865 105 l58 0 l-26 -47 l-596 0 l0 47 l59 0 l0 377 l198 0 l0 64 l-232 0 l0 48 l232 0 l0 68 l109 0 l0 -68 l232 0 l-27 -48 l-205 0 l0 -64 l89 0 l-26 -47 l-261 0 l0 -47 l287 0 l0 94 l109 0 l0 -377 ZM154 369 l-77 0 l130 296 l119 0 l-104 -249 l48 0 l0 -361 l-116 0 l0 314 ZM756 341 l-287 0 l0 -47 l287 0 l0 47 ZM756 246 l-287 0 l0 -47 l287 0 l0 47 ZM756 152 l-287 0 l0 -47 l287 0 l0 47 Z" /><glyph glyph-name="uni503E" unicode="&#x503e;" d="M919 223 l-108 0 l0 285 l-28 -35 l-190 0 l0 -250 l-103 0 l0 298 l135 0 l24 88 l-159 0 l0 47 l443 0 l-27 -47 l-141 0 l-24 -88 l178 0 l0 -298 ZM316 665 l-104 -249 l48 0 l0 -361 l-116 0 l0 314 l-77 0 l129 296 l120 0 ZM441 146 l74 18 l-17 -56 l-169 -50 l0 604 l112 0 l0 -81 l76 0 l-27 -45 l-49 0 l0 -390 ZM900 58 l-103 0 l-88 99 l-88 -99 l-103 0 l135 151 l0 219 l112 0 l0 -219 l135 -151 Z" /><glyph glyph-name="uni5047" unicode="&#x5047;" d="M607 443 l-177 0 l0 -80 l177 0 l-25 -44 l-152 0 l0 -90 l177 0 l-25 -44 l-152 0 l0 -132 l-106 0 l0 615 l283 0 l0 -225 ZM323 668 l-104 -249 l48 0 l0 -366 l-116 0 l0 318 l-77 0 l130 297 l119 0 ZM925 53 l-106 0 l-69 87 l-59 -87 l-101 0 l101 162 l-64 82 l106 0 l5 -6 l28 45 l0 14 l-139 0 l0 44 l255 0 l0 -58 l-83 -123 l126 -160 ZM892 443 l-107 0 l0 42 l-23 -42 l-135 0 l0 44 l158 0 l0 137 l-158 0 l0 44 l265 0 l0 -225 ZM430 487 l85 0 l0 137 l-85 0 l0 -137 Z" /><glyph glyph-name="uni505A" unicode="&#x505a;" d="M290 407 l93 0 l0 139 l-105 0 l0 48 l105 0 l0 68 l108 0 l0 -68 l101 0 l-26 -48 l-75 0 l0 -139 l96 0 l0 -344 l-297 0 l0 344 ZM588 499 l47 165 l111 0 l-11 -36 l200 0 l-26 -48 l-28 0 l0 -145 l-70 -149 l126 -230 l-113 0 l-66 118 l-55 -118 l-108 0 l105 225 l-100 183 l114 0 l38 -71 l24 51 l0 136 l-55 0 l-23 -81 l-110 0 ZM252 499 l0 -438 l-113 0 l0 382 l-77 0 l105 216 l123 0 l-79 -160 l41 0 ZM385 361 l0 -252 l109 0 l0 285 l-40 -33 l-69 0 Z" /><glyph glyph-name="uni505C" unicode="&#x505c;" d="M231 418 l47 0 l0 -361 l-115 0 l0 314 l-78 0 l130 296 l119 0 l-103 -249 ZM349 386 l0 158 l422 0 l-23 -58 l-269 0 l0 -42 l292 0 l0 100 l130 0 l0 -158 l-552 0 ZM391 247 l476 0 l-23 -58 l-149 0 l0 -135 l-216 0 l23 58 l63 0 l0 77 l-174 0 l0 58 ZM326 368 l587 0 l0 -114 l-130 0 l0 56 l-327 0 l0 -56 l-130 0 l0 114 ZM712 633 l202 0 l-23 -58 l-534 0 l0 58 l214 0 l0 33 l141 0 l0 -33 Z" /><glyph glyph-name="uni5076" unicode="&#x5076;" d="M668 391 l0 -42 l265 0 l0 -296 l-140 0 l-17 44 l63 0 l0 208 l-171 0 l0 -121 l57 0 l-26 -44 l-253 0 l0 44 l129 0 l0 121 l-171 0 l0 -252 l-94 0 l0 296 l265 0 l0 42 l-251 0 l0 277 l584 0 l0 -277 l-240 0 ZM146 432 l-80 0 l119 236 l123 0 l-89 -177 l41 0 l0 -438 l-114 0 l0 379 ZM438 546 l137 0 l0 78 l-137 0 l0 -78 ZM777 624 l-109 0 l0 -78 l126 0 l0 121 l-17 -43 ZM575 434 l0 69 l-137 0 l0 -69 l137 0 ZM794 503 l-126 0 l0 -69 l126 0 l0 69 ZM789 257 l25 -114 l-68 0 l-25 114 l68 0 Z" /><glyph glyph-name="uni5077" unicode="&#x5077;" d="M396 57 l-94 0 l24 171 l0 203 l228 0 l-26 -46 l-105 0 l0 -50 l131 0 l0 96 l95 0 l0 -375 l-175 0 l-27 47 l107 0 l0 82 l-140 0 l-18 -128 ZM298 462 l90 202 l141 0 l-17 -38 l325 0 l84 -164 l-142 0 l-42 84 l-28 -42 l-251 0 l-18 -42 l-142 0 ZM155 370 l-77 0 l130 294 l119 0 l-103 -247 l47 0 l0 -361 l-116 0 l0 314 ZM739 101 l70 0 l0 330 l98 0 l0 -375 l-128 0 l-40 45 ZM680 413 l99 0 l0 -273 l-99 0 l0 273 ZM478 548 l258 0 l-17 34 l-227 0 l-14 -34 ZM423 231 l131 0 l0 56 l-131 0 l0 -56 Z" /><glyph glyph-name="uni50AC" unicode="&#x50ac;" d="M443 499 l-39 -73 l39 0 l0 -373 l-114 0 l0 318 l-52 0 l0 -318 l-114 0 l0 398 l-84 0 l107 217 l123 0 l-77 -161 l45 0 l0 -104 l52 96 l114 0 ZM757 287 l0 -72 l164 0 l-24 -45 l-140 0 l0 -71 l164 0 l-24 -46 l-418 0 l0 46 l164 0 l0 71 l-164 0 l0 45 l164 0 l0 72 l-164 0 l0 45 l164 0 l0 72 l-164 0 l0 45 l164 0 l-45 50 l114 0 l45 -50 l164 0 l-24 -45 l-140 0 l0 -72 l164 0 l-24 -45 l-140 0 ZM912 531 l-580 0 l0 137 l114 0 l0 -91 l119 0 l0 91 l114 0 l0 -91 l119 0 l0 91 l114 0 l0 -137 Z" /><glyph glyph-name="uni50B2" unicode="&#x50b2;" d="M925 581 l-8 0 l0 -116 l-81 -182 l100 -228 l-112 0 l-44 100 l-46 -100 l-112 0 l102 228 l-81 182 l112 0 l25 -56 l23 56 l0 116 l-57 0 l-33 -97 l-112 0 l61 181 l112 0 l-14 -37 l192 0 l-27 -47 ZM501 665 l0 -47 l131 0 l-31 -48 l-100 0 l0 -49 l105 0 l-26 -45 l-79 0 l0 -53 l117 0 l-33 -47 l-132 0 l-14 -53 l160 0 l0 -268 l-144 0 l-26 47 l60 0 l0 174 l-62 0 l-58 -221 l-112 0 l82 321 l-61 0 l0 47 l111 0 l0 53 l-79 0 l0 45 l79 0 l0 49 l-106 0 l0 48 l106 0 l0 47 l112 0 ZM204 493 l39 0 l0 -438 l-112 0 l0 368 l-83 0 l119 237 l123 0 l-86 -167 Z" /><glyph glyph-name="uni50CF" unicode="&#x50cf;" d="M916 52 l-114 0 l-68 117 l0 -117 l-176 0 l-26 49 l93 0 l0 56 l-200 -105 l-114 0 l314 164 l0 35 l-200 -105 l-114 0 l290 151 l-86 0 l-90 -47 l-114 0 l229 120 l-174 0 l0 177 l294 0 l30 50 l-192 0 l-16 -30 l-111 0 l55 102 l111 0 l-12 -23 l307 0 l-61 -99 l29 0 l-31 -49 l-73 0 l0 -79 l104 0 l0 128 l109 0 l0 -177 l-255 0 l-44 -23 l124 0 l0 -50 l175 44 l0 -49 l-115 -29 l122 -211 ZM178 400 l-95 0 l132 263 l123 0 l-83 -165 l35 0 l0 -438 l-112 0 l0 340 ZM476 419 l104 0 l0 79 l-104 0 l0 -79 Z" /><glyph glyph-name="uni5112" unicode="&#x5112;" d="M905 356 l-35 -46 l-226 0 l-47 -33 l303 0 l0 -225 l-120 0 l-25 32 l0 -32 l-108 0 l0 180 l-36 0 l0 -180 l-109 0 l0 180 l-36 0 l0 -180 l-108 0 l0 225 l130 0 l48 33 l-178 0 l0 46 l547 0 ZM689 374 l-109 0 l0 153 l-121 0 l0 -63 l-109 0 l0 108 l109 0 l121 0 l0 27 l-222 0 l0 46 l547 0 l-35 -46 l-181 0 l0 -27 l216 0 l0 -108 l-108 0 l0 22 l-21 -28 l-80 0 l0 45 l101 0 l0 62 l-30 -38 l-78 0 l0 -153 ZM234 406 l56 0 l0 -346 l-109 0 l0 298 l-87 0 l138 311 l114 0 l-112 -263 ZM858 439 l-33 -46 l-130 0 l0 46 l163 0 ZM578 439 l-34 -46 l-129 0 l0 46 l163 0 ZM755 232 l0 -134 l36 0 l0 171 l-28 -37 l-8 0 ZM578 503 l-34 -45 l-81 0 l0 45 l115 0 Z" /><glyph glyph-name="uni513F" unicode="&#x513f;" d="M892 64 l-376 0 l0 596 l115 0 l0 -548 l292 0 l-31 -48 ZM198 61 l-122 0 l166 272 l0 327 l116 0 l0 -332 l-160 -267 Z" /><glyph glyph-name="uni5143" unicode="&#x5143;" d="M254 53 l-120 0 l194 375 l-255 0 l0 48 l839 0 l-25 -48 l-189 0 l0 -328 l228 0 l-28 -47 l-319 0 l0 375 l-131 0 l-194 -375 ZM820 620 l-674 0 l0 47 l699 0 l-25 -47 Z" /><glyph glyph-name="uni5144" unicode="&#x5144;" d="M688 366 l0 -263 l227 0 l-28 -49 l-318 0 l0 312 l-145 0 l0 -123 l-198 -191 l-141 0 l223 223 l0 91 l-144 0 l0 302 l555 0 l-27 -48 l-414 0 l0 -205 l441 0 l0 253 l112 0 l0 -302 l-143 0 Z" /><glyph glyph-name="uni5145" unicode="&#x5145;" d="M786 511 l84 -150 l-170 0 l0 -264 l191 0 l-21 -44 l-284 0 l0 308 l-185 0 l-139 -308 l-129 0 l138 308 l-163 0 l116 216 l-116 0 l0 44 l324 0 l0 47 l114 0 l0 -47 l324 0 l-21 -44 l-501 0 l-93 -173 l466 0 l-60 107 l125 0 Z" /><glyph glyph-name="uni5148" unicode="&#x5148;" d="M653 100 l269 0 l-30 -47 l-358 0 l0 298 l-456 0 l0 47 l364 0 l0 122 l-201 0 l-25 -80 l-120 0 l65 213 l120 0 l-26 -86 l187 0 l0 100 l119 0 l0 -100 l336 0 l-31 -47 l-305 0 l0 -122 l359 0 l-30 -47 l-237 0 l0 -251 ZM319 326 l118 0 l-240 -271 l-119 0 l241 271 Z" /><glyph glyph-name="uni5149" unicode="&#x5149;" d="M226 650 l74 -172 l-119 0 l-76 172 l121 0 ZM754 650 l121 0 l-76 -197 l-119 0 l74 197 ZM229 380 l-174 0 l0 47 l382 0 l0 242 l114 0 l0 -242 l388 0 l-26 -47 l-123 0 l0 -278 l154 0 l-28 -49 l-245 0 l0 327 l-327 0 l-58 -149 l-80 -180 l-116 0 l80 180 l59 149 Z" /><glyph glyph-name="uni514B" unicode="&#x514b;" d="M826 253 l-154 0 l0 -157 l227 0 l-28 -44 l-325 0 l0 201 l-126 0 l-176 -199 l-144 0 l176 199 l-123 0 l0 246 l260 0 l0 66 l-311 0 l0 49 l311 0 l0 54 l124 0 l0 -54 l340 0 l-24 -49 l-316 0 l0 -66 l289 0 l0 -246 ZM683 450 l-411 0 l0 -148 l435 0 l0 195 l-24 -47 Z" /><glyph glyph-name="uni514D" unicode="&#x514d;" d="M657 111 l235 0 l-27 -48 l-322 0 l0 177 l-45 0 l-236 -177 l-150 0 l238 177 l-242 0 l0 279 l484 0 l80 69 l-397 0 l-21 -22 l-124 0 l86 91 l123 0 l-21 -22 l532 0 l-133 -116 l36 0 l-26 -47 l-187 0 l0 -188 l213 0 l0 235 l114 0 l0 -279 l-210 0 l0 -129 ZM222 284 l204 0 l0 188 l-204 0 l0 -188 Z" /><glyph glyph-name="uni5165" unicode="&#x5165;" d="M168 647 l516 0 l197 -574 l-113 0 l-181 527 l-131 0 l-224 -527 l-113 0 l223 527 l-153 0 l-21 47 Z" /><glyph glyph-name="uni5168" unicode="&#x5168;" d="M885 294 l-32 -46 l-294 0 l0 -150 l326 0 l-32 -46 l-740 0 l0 46 l331 0 l0 150 l-331 0 l0 46 l331 0 l0 134 l-306 0 l0 29 l-58 0 l138 211 l564 0 l137 -211 l-70 0 l-17 -29 l-273 0 l0 -134 l326 0 ZM207 474 l585 0 l-94 145 l-396 0 l-95 -145 Z" /><glyph glyph-name="uni516B" unicode="&#x516b;" d="M301 663 l112 0 l-194 -606 l-118 0 l200 606 ZM899 57 l-115 0 l-193 606 l112 0 l196 -606 Z" /><glyph glyph-name="uni516C" unicode="&#x516c;" d="M270 98 l427 0 l-20 -45 l-544 0 l0 74 l208 314 l148 0 l-219 -343 ZM660 619 l-249 0 l15 49 l346 0 l149 -337 l-131 0 l-130 288 ZM209 331 l-131 0 l149 337 l135 0 l-153 -337 ZM753 320 l119 -267 l-132 0 l-122 267 l135 0 Z" /><glyph glyph-name="uni516D" unicode="&#x516d;" d="M893 429 l-813 0 l0 48 l839 0 l-26 -48 ZM447 516 l-36 152 l118 0 l37 -152 l-119 0 ZM278 389 l125 0 l-191 -336 l-127 0 l193 336 ZM741 389 l175 -335 l-126 0 l-175 335 l126 0 Z" /><glyph glyph-name="uni5170" unicode="&#x5170;" d="M871 479 l-753 0 l0 47 l455 0 l54 142 l121 0 l-54 -142 l203 0 l-26 -47 ZM913 53 l-852 0 l0 47 l878 0 l-26 -47 ZM159 319 l697 0 l-26 -47 l-671 0 l0 47 ZM282 555 l-64 113 l123 0 l66 -113 l-125 0 Z" /><glyph glyph-name="uni5171" unicode="&#x5171;" d="M795 254 l90 -196 l-132 0 l-93 196 l135 0 ZM210 254 l135 0 l-93 -196 l-131 0 l89 196 ZM913 346 l-27 -47 l-799 0 l0 47 l147 0 l0 195 l-122 0 l0 47 l122 0 l0 75 l114 0 l0 -75 l310 0 l0 75 l114 0 l0 -75 l116 0 l-27 -47 l-89 0 l0 -195 l141 0 ZM348 346 l310 0 l0 195 l-310 0 l0 -195 Z" /><glyph glyph-name="uni5173" unicode="&#x5173;" d="M230 53 l-168 0 l368 248 l0 30 l-361 0 l0 48 l361 0 l0 169 l-322 0 l0 48 l135 0 l-29 71 l123 0 l29 -71 l267 0 l29 71 l123 0 l-29 -71 l135 0 l-26 -48 l-303 0 l0 -169 l368 0 l-26 -48 l-342 0 l0 -54 l-44 -30 l131 0 l288 -194 l-168 0 l-269 182 l-270 -182 Z" /><glyph glyph-name="uni5174" unicode="&#x5174;" d="M910 372 l-849 0 l0 44 l581 0 l109 251 l123 0 l-108 -251 l172 0 l-28 -44 ZM333 337 l-122 -284 l-124 0 l123 284 l123 0 ZM780 53 l-122 284 l124 0 l122 -284 l-124 0 ZM222 454 l-92 213 l123 0 l93 -213 l-124 0 ZM432 454 l-92 213 l124 0 l92 -213 l-124 0 Z" /><glyph glyph-name="uni5176" unicode="&#x5176;" d="M829 240 l109 0 l-30 -44 l-847 0 l0 44 l109 0 l0 333 l-109 0 l0 41 l109 0 l0 54 l114 0 l0 -54 l431 0 l0 54 l114 0 l0 -54 l109 0 l-30 -41 l-79 0 l0 -333 ZM284 362 l431 0 l0 86 l-431 0 l0 -86 ZM284 573 l0 -85 l431 0 l0 85 l-431 0 ZM284 240 l431 0 l0 82 l-431 0 l0 -82 ZM833 176 l63 -123 l-116 0 l-65 123 l118 0 ZM168 176 l116 0 l-64 -123 l-117 0 l65 123 Z" /><glyph glyph-name="uni5177" unicode="&#x5177;" d="M941 256 l-30 -44 l-853 0 l0 44 l89 0 l0 412 l591 0 l-29 -44 l-448 0 l0 -93 l477 0 l0 137 l115 0 l0 -412 l88 0 ZM261 487 l0 -94 l477 0 l0 94 l-477 0 ZM738 256 l0 93 l-477 0 l0 -93 l477 0 ZM837 190 l63 -137 l-116 0 l-65 137 l118 0 ZM164 190 l116 0 l-63 -137 l-118 0 l65 137 Z" /><glyph glyph-name="uni517B" unicode="&#x517b;" d="M812 310 l109 -86 l-135 0 l-109 86 l-361 0 l-102 -100 l-135 0 l102 100 l-77 0 l0 48 l125 0 l58 57 l-156 0 l0 47 l204 0 l68 68 l-291 0 l0 47 l497 0 l53 91 l121 0 l-53 -91 l160 0 l-26 -47 l-325 0 l-69 -68 l394 0 l-26 -47 l-416 0 l-58 -57 l534 0 l-27 -48 l-59 0 ZM410 242 l-127 -175 l-119 0 l125 175 l121 0 ZM733 242 l0 -189 l-114 0 l0 189 l114 0 ZM352 668 l42 -80 l-124 0 l-41 80 l123 0 Z" /><glyph glyph-name="uni517D" unicode="&#x517d;" d="M700 584 l180 0 l0 -223 l-761 0 l0 223 l453 0 l51 78 l130 0 l-53 -78 ZM153 270 l692 0 l0 -211 l-692 0 l0 211 ZM729 104 l0 153 l-26 -35 l-432 0 l0 -118 l458 0 ZM907 295 l-830 0 l0 44 l845 0 l-15 -44 ZM762 406 l0 43 l-222 0 l0 -43 l222 0 ZM540 535 l0 -41 l222 0 l0 41 l-222 0 ZM422 406 l0 43 l-186 0 l0 -43 l186 0 ZM375 662 l46 -60 l-132 0 l-43 60 l129 0 ZM236 535 l0 -41 l186 0 l0 41 l-186 0 Z" /><glyph glyph-name="uni5185" unicode="&#x5185;" d="M217 54 l-137 0 l0 556 l338 0 l19 58 l136 0 l-20 -58 l229 0 l-27 -47 l-218 0 l-24 -69 l75 0 l156 -356 l-132 0 l-124 283 l-97 -284 l-136 0 l146 426 l-184 0 l0 -509 ZM919 610 l0 -557 l-278 0 l-18 44 l159 0 l0 513 l137 0 Z" /><glyph glyph-name="uni518C" unicode="&#x518c;" d="M148 368 l-77 0 l0 45 l77 0 l0 254 l213 0 l-27 -46 l-70 0 l0 -208 l97 0 l0 254 l117 0 l0 -254 l41 0 l0 254 l332 0 l0 -254 l78 0 l-26 -45 l-52 0 l0 -315 l-163 0 l-25 45 l70 0 l0 270 l-98 0 l0 -87 l-35 -228 l-116 0 l35 228 l0 87 l-41 0 l0 -315 l-163 0 l-24 45 l70 0 l0 270 l-97 0 l0 -87 l-35 -228 l-116 0 l35 228 l0 87 ZM635 413 l98 0 l0 240 l-18 -32 l-80 0 l0 -208 Z" /><glyph glyph-name="uni518D" unicode="&#x518d;" d="M694 497 l-146 0 l0 -84 l172 0 l0 132 l114 0 l0 -251 l101 0 l-26 -47 l-75 0 l0 -185 l-207 0 l-21 43 l114 0 l0 142 l-457 0 l0 -185 l-115 0 l0 185 l-84 0 l0 47 l84 0 l0 251 l285 0 l0 66 l-351 0 l0 48 l854 0 l-27 -48 l-361 0 l0 -66 l172 0 l-26 -48 ZM263 413 l170 0 l0 84 l-170 0 l0 -84 ZM548 294 l172 0 l0 72 l-172 0 l0 -72 ZM263 294 l170 0 l0 72 l-170 0 l0 -72 Z" /><glyph glyph-name="uni5192" unicode="&#x5192;" d="M208 53 l-100 0 l0 315 l784 0 l0 -316 l-684 0 l0 1 ZM222 399 l-114 0 l0 269 l784 0 l0 -269 l-114 0 l0 267 l-25 -46 l-531 0 l0 -221 ZM778 96 l0 54 l-556 0 l0 -54 l556 0 ZM222 194 l556 0 l0 45 l-556 0 l0 -45 ZM222 321 l0 -38 l556 0 l0 84 l-25 -46 l-531 0 ZM728 498 l-471 0 l0 44 l471 0 l0 -44 ZM257 444 l471 0 l0 -43 l-471 0 l0 43 Z" /><glyph glyph-name="uni5199" unicode="&#x5199;" d="M392 577 l-13 -76 l407 0 l-28 -44 l-387 0 l-14 -82 l494 0 l-36 -321 l-315 0 l-28 43 l229 0 l26 234 l-496 0 l42 246 l119 0 ZM69 667 l861 0 l0 -142 l-114 0 l0 134 l-23 -36 l-610 0 l0 -98 l-114 0 l0 142 ZM111 238 l533 0 l-28 -44 l-505 0 l0 44 Z" /><glyph glyph-name="uni519B" unicode="&#x519b;" d="M602 222 l279 0 l-27 -47 l-252 0 l0 -119 l-134 0 l0 119 l-336 0 l0 47 l336 0 l0 86 l-311 0 l112 149 l-114 0 l0 48 l149 0 l70 92 l138 0 l-69 -92 l380 0 l-26 -48 l-390 0 l-76 -102 l137 0 l0 67 l134 0 l0 -67 l221 0 l-26 -47 l-195 0 l0 -86 ZM118 664 l736 0 l0 -119 l-112 0 l0 73 l-509 0 l0 -73 l-115 0 l0 119 Z" /><glyph glyph-name="uni51B2" unicode="&#x51b2;" d="M824 343 l0 216 l114 0 l0 -337 l-234 0 l0 -169 l-128 0 l0 169 l-235 0 l0 337 l235 0 l0 108 l128 0 l0 -108 l120 0 l-26 -47 l-94 0 l0 -244 l120 0 l0 75 ZM61 53 l123 330 l121 0 l-123 -330 l-121 0 ZM455 268 l121 0 l0 244 l-121 0 l0 -244 ZM275 435 l-119 0 l-72 211 l119 0 l72 -211 Z" /><glyph glyph-name="uni51B3" unicode="&#x51b3;" d="M866 350 l47 0 l-26 -48 l-255 0 l0 -1 l-2 0 l-133 -249 l-126 0 l131 250 l-131 0 l0 48 l142 0 l0 178 l-142 0 l0 47 l142 0 l0 93 l119 0 l0 -93 l112 0 l-26 -47 l-86 0 l0 -178 l112 0 l0 225 l122 0 l0 -225 ZM109 655 l119 0 l72 -211 l-119 0 l-72 211 ZM893 52 l-120 0 l-115 228 l119 0 l116 -228 ZM207 62 l-121 0 l123 330 l121 0 l-123 -330 Z" /><glyph glyph-name="uni51B5" unicode="&#x51b5;" d="M761 106 l165 0 l-22 -47 l-263 0 l0 283 l-155 -283 l-215 0 l-22 47 l129 0 l131 239 l-13 0 l0 -1 l-122 0 l0 318 l404 0 l-17 -35 l-265 0 l0 -248 l282 0 l0 283 l122 0 l0 -318 l-122 0 l0 1 l-17 0 l0 -239 ZM318 389 l-123 -330 l-121 0 l123 330 l121 0 ZM216 652 l72 -211 l-119 0 l-72 211 l119 0 Z" /><glyph glyph-name="uni51B7" unicode="&#x51b7;" d="M780 405 l-163 201 l-163 -201 l-126 0 l215 265 l149 0 l215 -265 l-127 0 ZM375 369 l514 0 l-215 -213 l65 -34 l0 -72 l-277 147 l0 72 l126 -67 l122 120 l-335 0 l0 47 ZM93 90 l120 289 l121 0 l-120 -289 l-121 0 ZM331 423 l-119 0 l-96 200 l119 0 l96 -200 ZM725 404 l-119 0 l-64 80 l119 0 l64 -80 Z" /><glyph glyph-name="uni51C0" unicode="&#x51c0;" d="M865 338 l48 0 l-27 -48 l-21 0 l0 -129 l-206 0 l0 -108 l-215 0 l-27 47 l103 0 l0 61 l-150 0 l0 47 l150 0 l0 82 l-150 0 l0 48 l150 0 l0 74 l-150 0 l0 47 l373 0 l-26 -47 l-58 0 l0 -74 l84 0 l0 121 l122 0 l0 -121 ZM649 493 l31 72 l-163 0 l-27 -72 l-119 0 l64 174 l119 0 l-20 -56 l284 0 l-50 -118 l-119 0 ZM207 64 l-121 0 l122 330 l121 0 l-122 -330 ZM180 446 l-72 211 l120 0 l72 -211 l-120 0 ZM743 290 l-84 0 l0 -82 l84 0 l0 82 Z" /><glyph glyph-name="uni51C6" unicode="&#x51c6;" d="M736 496 l0 -99 l167 0 l-25 -44 l-142 0 l0 -99 l167 0 l-25 -44 l-142 0 l0 -110 l181 0 l-25 -44 l-519 0 l0 346 l-86 0 l128 263 l118 0 l-61 -125 l179 0 l-46 125 l103 0 l46 -125 l163 0 l-25 -44 l-156 0 ZM206 393 l121 0 l-123 -329 l-121 0 l123 329 ZM106 657 l119 0 l72 -211 l-119 0 l-72 211 ZM634 210 l-153 0 l0 -110 l153 0 l0 110 ZM634 353 l-153 0 l0 -99 l153 0 l0 99 ZM634 496 l-153 0 l0 -99 l153 0 l0 99 Z" /><glyph glyph-name="uni51CC" unicode="&#x51cc;" d="M772 159 l164 -37 l0 -65 l-309 70 l-341 -75 l0 63 l203 43 l-47 11 l0 64 l194 -43 l151 32 l0 67 l-338 0 l-33 -96 l-82 0 l53 157 l-92 0 l40 84 l-29 0 l0 47 l240 0 l0 100 l-208 0 l0 48 l208 0 l0 40 l112 0 l0 -40 l232 0 l-26 -48 l-206 0 l0 -100 l277 0 l-27 -47 l-22 0 l44 -84 l-94 0 l-43 84 l-366 0 l-28 -61 l78 0 l-14 -36 l414 0 l0 -155 l-105 -23 ZM142 350 l115 0 l-79 -298 l-115 0 l79 298 ZM205 642 l72 -249 l-116 0 l-72 249 l116 0 Z" /><glyph glyph-name="uni51CF" unicode="&#x51cf;" d="M306 365 l0 35 l-113 0 l-89 211 l119 0 l83 -195 l0 177 l289 0 l-20 76 l116 0 l20 -76 l52 0 l-16 73 l116 0 l16 -73 l34 0 l-20 -47 l-170 0 l35 -137 l20 39 l115 0 l-97 -189 l41 -160 l81 0 l-20 -48 l-165 0 l-14 58 l-29 -55 l-116 0 l44 85 l-174 0 l0 231 l201 0 l0 -180 l35 69 l-73 287 l-185 0 l0 -381 l-39 -110 l-114 0 l37 114 l0 150 l-104 -249 l-121 0 l123 295 l102 0 ZM598 419 l-154 0 l0 48 l173 0 l-19 -48 ZM566 186 l0 136 l-43 0 l0 -136 l43 0 Z" /><glyph glyph-name="uni51DB" unicode="&#x51db;" d="M902 326 l-561 0 l0 229 l561 0 l0 -229 ZM326 250 l609 0 l-26 -47 l-219 0 l0 -149 l-142 0 l-27 47 l55 0 l0 102 l-250 0 l0 47 ZM788 374 l0 176 l-24 -42 l-309 0 l0 -134 l333 0 ZM143 350 l116 0 l-79 -298 l-116 0 l79 298 ZM780 496 l0 -111 l-316 0 l0 111 l202 0 l-27 -47 l-61 0 l0 -17 l88 0 l0 64 l114 0 ZM669 619 l267 0 l-30 -43 l-599 0 l0 43 l248 0 l0 50 l114 0 l0 -50 ZM206 642 l72 -249 l-116 0 l-71 249 l115 0 ZM362 312 l525 0 l-25 -47 l-500 0 l0 47 ZM538 182 l-78 -130 l-108 0 l79 130 l107 0 ZM818 182 l87 -130 l-108 0 l-86 130 l107 0 Z" /><glyph glyph-name="uni51DD" unicode="&#x51dd;" d="M959 668 l-62 -177 l62 0 l0 -164 l-92 0 l0 115 l-14 0 l0 -181 l106 0 l-25 -43 l-81 0 l0 -121 l106 0 l-25 -44 l-218 0 l0 44 l23 0 l0 345 l-125 0 l0 44 l59 0 l-36 93 l114 0 l33 -85 l46 130 l-216 0 l0 44 l345 0 ZM256 53 l108 154 l-88 0 l0 44 l102 0 l0 76 l-102 0 l41 106 l121 0 l-18 -60 l156 0 l0 -46 l-84 0 l0 -76 l101 0 l-26 -44 l-61 0 l69 -154 l-114 0 l-36 79 l-55 -79 l-114 0 ZM567 447 l-275 0 l0 221 l114 0 l0 -36 l177 0 l-26 -44 l-151 0 l0 -97 l187 0 l-26 -44 ZM161 64 l-121 0 l122 330 l121 0 l-122 -330 ZM706 53 l-112 0 l0 44 l20 0 l0 283 l92 0 l0 -327 ZM134 447 l-72 210 l120 0 l72 -210 l-120 0 Z" /><glyph glyph-name="uni51E0" unicode="&#x51e0;" d="M917 101 l-17 -44 l-230 0 l0 611 l114 0 l0 -567 l133 0 ZM309 625 l0 -364 l-111 -209 l-116 0 l116 228 l0 388 l472 0 l-40 -43 l-321 0 Z" /><glyph glyph-name="uni51E1" unicode="&#x51e1;" d="M190 668 l481 0 l-26 -47 l-341 0 l0 -440 l-75 -128 l-124 0 l85 145 l0 470 ZM895 100 l-26 -47 l-198 0 l0 615 l114 0 l0 -568 l110 0 ZM475 544 l128 -310 l-114 0 l-128 310 l114 0 Z" /><glyph glyph-name="uni51E4" unicode="&#x51e4;" d="M251 104 l162 177 l-129 142 l137 0 l60 -67 l68 75 l0 82 l-264 0 l0 48 l378 0 l0 -156 l-113 -124 l162 -177 l-138 0 l-92 102 l-93 -102 l-138 0 ZM121 668 l608 0 l-46 -49 l-447 0 l0 -366 l-58 -200 l-113 0 l56 204 l0 411 ZM843 100 l92 0 l-26 -47 l-180 0 l0 615 l114 0 l0 -568 Z" /><glyph glyph-name="uni51F6" unicode="&#x51f6;" d="M563 399 l186 -215 l0 390 l114 0 l0 -510 l-114 0 l0 12 l-612 -12 l0 510 l114 0 l0 -408 l186 233 l-223 258 l126 0 l157 -182 l146 182 l125 0 l-205 -258 ZM503 324 l-146 -182 l-106 0 l0 -34 l498 11 l0 23 l-89 0 l-157 182 Z" /><glyph glyph-name="uni51FA" unicode="&#x51fa;" d="M864 377 l-307 0 l0 -280 l209 0 l0 231 l114 0 l0 -275 l-760 0 l0 275 l114 0 l0 -231 l209 0 l0 280 l-308 0 l0 255 l114 0 l0 -211 l194 0 l0 247 l114 0 l0 -247 l193 0 l0 211 l114 0 l0 -255 Z" /><glyph glyph-name="uni51FB" unicode="&#x51fb;" d="M552 599 l339 0 l-30 -42 l-309 0 l0 -162 l368 0 l-22 -44 l-346 0 l0 -245 l233 0 l-38 -44 l-637 0 l0 230 l114 0 l0 -186 l214 0 l0 245 l-358 0 l0 44 l358 0 l0 162 l-307 0 l0 42 l307 0 l0 59 l114 0 l0 -59 ZM898 281 l0 -219 l-113 0 l0 219 l113 0 Z" /><glyph glyph-name="uni5206" unicode="&#x5206;" d="M84 366 l778 0 l0 -313 l-348 0 l-26 47 l258 0 l0 219 l-402 0 l-128 -266 l-123 0 l134 266 l-143 0 l0 47 ZM805 405 l-162 262 l120 0 l163 -262 l-121 0 ZM193 409 l-120 0 l161 258 l120 0 l-161 -258 Z" /><glyph glyph-name="uni5207" unicode="&#x5207;" d="M376 53 l-196 0 l26 517 l-83 0 l0 47 l86 0 l2 51 l112 0 l-2 -51 l88 0 l-23 -47 l-68 0 l-24 -470 l105 0 l-23 -47 ZM741 620 l-122 0 l-19 -408 l-39 -159 l-112 0 l39 159 l19 408 l-80 0 l0 48 l337 0 l-23 -48 ZM681 100 l83 0 l0 568 l112 0 l0 -615 l-168 0 l-27 47 Z" /><glyph glyph-name="uni5212" unicode="&#x5212;" d="M908 62 l-211 0 l-19 44 l118 0 l0 552 l112 0 l0 -596 ZM641 158 l0 453 l111 0 l0 -453 l-111 0 ZM617 506 l-244 0 l61 -109 l34 33 l142 0 l-125 -121 l142 -247 l-122 0 l-97 172 l-175 -172 l-141 0 l263 259 l-105 185 l-149 0 l0 44 l123 0 l-62 107 l123 0 l62 -107 l110 0 l-58 107 l134 0 l84 -151 Z" /><glyph glyph-name="uni5217" unicode="&#x5217;" d="M723 175 l-116 0 l0 386 l116 0 l0 -386 ZM934 668 l0 -614 l-213 0 l-23 46 l120 0 l0 568 l116 0 ZM65 665 l518 0 l-27 -47 l-279 0 l-39 -71 l272 0 l0 -233 l-268 -261 l-139 0 l188 182 l-116 0 l-82 218 l116 0 l82 -217 l5 4 l100 109 l0 152 l-317 0 l68 117 l-82 0 l0 47 Z" /><glyph glyph-name="uni5219" unicode="&#x5219;" d="M612 99 l173 0 l0 569 l115 0 l0 -614 l-261 0 l-27 45 ZM736 644 l0 -507 l-108 0 l0 507 l108 0 ZM398 550 l0 -341 l70 0 l122 -156 l-132 0 l-94 120 l-116 -120 l-144 0 l169 172 l0 325 l125 0 ZM219 231 l-120 0 l0 413 l473 0 l0 -413 l-120 0 l0 370 l-233 0 l0 -370 Z" /><glyph glyph-name="uni521A" unicode="&#x521a;" d="M186 52 l-114 0 l0 615 l422 0 l-26 -47 l-282 0 l0 -568 ZM494 100 l0 567 l115 0 l0 -615 l-197 0 l0 48 l82 0 ZM814 668 l114 0 l0 -616 l-206 0 l0 48 l92 0 l0 568 ZM205 176 l87 182 l-87 181 l97 0 l39 -80 l38 80 l98 0 l-88 -181 l88 -182 l-98 0 l-38 80 l-39 -80 l-97 0 ZM772 151 l-114 0 l0 435 l114 0 l0 -435 Z" /><glyph glyph-name="uni521B" unicode="&#x521b;" d="M365 231 l70 0 l0 187 l48 0 l-76 173 l-133 0 l-81 -173 l242 0 l-26 -48 l-169 0 l0 -270 l315 0 l-14 -48 l-415 0 l0 366 l-61 0 l117 248 l128 0 l-14 -28 l219 0 l95 -221 l-61 -3 l0 -231 l-157 0 l-27 48 ZM818 669 l116 0 l0 -614 l-164 0 l-22 46 l70 0 l0 568 ZM758 181 l-116 0 l0 386 l116 0 l0 -386 Z" /><glyph glyph-name="uni521D" unicode="&#x521d;" d="M360 352 l63 -144 l-88 0 l-14 33 l0 -188 l-111 0 l0 167 l-8 -17 l-109 0 l182 350 l-152 0 l0 48 l89 0 l0 66 l111 0 l0 -66 l93 0 l-111 -209 l102 63 l0 -70 l-47 -33 ZM554 53 l-121 0 l114 555 l-94 0 l0 44 l338 0 l-21 -44 l-102 0 l-114 -555 ZM907 53 l-180 0 l0 44 l64 0 l0 555 l116 0 l0 -599 Z" /><glyph glyph-name="uni5220" unicode="&#x5220;" d="M540 658 l-27 -47 l-23 0 l0 -199 l50 0 l0 246 l102 0 l0 -246 l56 0 l-27 -48 l-29 0 l0 -311 l-119 0 l-26 48 l43 0 l0 263 l-50 0 l0 -157 l-13 -150 l-98 0 l14 150 l0 157 l-42 0 l0 -311 l-113 0 l-26 48 l36 0 l0 263 l-49 0 l0 -157 l-14 -150 l-97 0 l14 150 l0 157 l-33 0 l0 48 l33 0 l0 246 l249 0 l0 -246 l42 0 l0 246 l147 0 ZM930 53 l-127 0 l-26 48 l51 0 l0 567 l102 0 l0 -615 ZM800 164 l-88 0 l0 427 l88 0 l0 -427 ZM248 658 l-26 -47 l-23 0 l0 -199 l49 0 l0 246 Z" /><glyph glyph-name="uni5224" unicode="&#x5224;" d="M737 654 l0 -511 l-114 0 l0 511 l114 0 ZM819 52 l0 1 l-64 0 l-18 44 l82 0 l0 571 l114 0 l0 -616 l-114 0 ZM181 629 l44 -174 l-114 0 l-44 174 l114 0 ZM570 629 l-44 -174 l-114 0 l44 174 l114 0 ZM376 378 l0 -92 l211 0 l0 -44 l-215 0 l-62 -190 l-114 0 l62 190 l-187 0 l0 44 l191 0 l0 92 l-191 0 l0 44 l191 0 l0 246 l114 0 l0 -246 l211 0 l0 -44 l-211 0 Z" /><glyph glyph-name="uni5229" unicode="&#x5229;" d="M391 63 l-114 0 l0 377 l-49 -352 l-115 0 l48 352 l-33 0 l0 47 l149 0 l0 95 l-149 -16 l0 47 l411 45 l0 -48 l-148 -16 l0 -107 l156 0 l-16 -47 l-140 0 l0 -377 ZM770 659 l116 0 l0 -597 l-163 0 l-23 46 l70 0 l0 551 ZM718 189 l-116 0 l0 386 l116 0 l0 -386 ZM398 389 l116 0 l41 -301 l-116 0 l-41 301 Z" /><glyph glyph-name="uni522B" unicode="&#x522b;" d="M744 180 l-116 0 l0 427 l116 0 l0 -427 ZM717 99 l71 0 l0 568 l115 0 l0 -614 l-163 0 l-23 46 ZM97 53 l102 244 l-84 0 l0 46 l103 0 l25 59 l-114 0 l0 229 l341 0 l-30 -46 l-197 0 l0 -140 l227 0 l0 186 l110 0 l0 -229 l-216 0 l-25 -59 l259 0 l0 -290 l-260 0 l-26 45 l172 0 l0 199 l-164 0 l-102 -244 l-121 0 Z" /><glyph glyph-name="uni5230" unicode="&#x5230;" d="M443 416 l-368 0 l71 204 l-58 0 l0 47 l483 0 l-26 -47 l-273 0 l-55 -155 l249 0 l-37 121 l116 0 l51 -170 l-116 0 l-12 40 l-25 -40 ZM808 667 l116 0 l0 -614 l-163 0 l-23 46 l70 0 l0 568 ZM394 316 l202 0 l-26 -47 l-176 0 l0 -146 l184 14 l0 -48 l-497 -36 l0 47 l197 14 l0 155 l-197 0 l0 47 l197 0 l0 62 l116 0 l0 -62 ZM738 148 l-98 0 l0 519 l98 0 l0 -519 Z" /><glyph glyph-name="uni5236" unicode="&#x5236;" d="M395 666 l0 -69 l181 0 l-25 -44 l-156 0 l0 -70 l198 0 l-25 -44 l-173 0 l0 -68 l184 0 l0 -269 l-137 0 l-24 44 l47 0 l0 181 l-70 0 l0 -273 l-114 0 l0 273 l-71 0 l0 -225 l-114 0 l0 269 l185 0 l0 68 l-199 0 l0 44 l199 0 l0 70 l-74 0 l-11 -38 l-114 0 l38 122 l114 0 l-13 -40 l60 0 l0 69 l114 0 ZM731 98 l70 0 l0 569 l116 0 l0 -614 l-164 0 l-22 45 ZM630 565 l116 0 l0 -386 l-116 0 l0 386 Z" /><glyph glyph-name="uni5237" unicode="&#x5237;" d="M107 667 l539 0 l0 -191 l-425 0 l0 -244 l-45 -179 l-115 0 l46 179 l0 435 ZM502 418 l142 0 l0 -319 l-111 0 l0 274 l-31 0 l0 -320 l-113 0 l0 320 l-29 0 l0 -274 l-113 0 l0 319 l142 0 l0 38 l113 0 l0 -38 ZM938 667 l0 -614 l-163 0 l-23 46 l70 0 l0 568 l116 0 ZM799 179 l-116 0 l0 386 l116 0 l0 -386 ZM221 621 l0 -99 l315 0 l0 133 l-37 -34 l-278 0 Z" /><glyph glyph-name="uni523A" unicode="&#x523a;" d="M509 241 l89 -187 l-114 0 l-89 187 l0 -187 l-114 0 l0 187 l-89 -187 l-114 0 l116 243 l-81 0 l0 261 l168 0 l0 40 l-203 0 l0 45 l203 0 l0 24 l114 0 l0 -24 l203 0 l-25 -45 l-178 0 l0 -40 l54 0 l-25 -46 l-29 0 l0 -271 l114 0 ZM921 667 l0 -613 l-273 0 l-25 46 l184 0 l0 567 l114 0 ZM737 179 l-114 0 l0 464 l114 0 l0 -464 ZM449 342 l0 216 l114 0 l0 -261 l-141 0 l-25 45 l52 0 ZM281 512 l-54 0 l0 -215 l54 0 l0 215 Z" /><glyph glyph-name="uni523B" unicode="&#x523b;" d="M217 219 l-153 0 l173 129 l-173 0 l0 47 l136 152 l-136 0 l0 47 l198 0 l-26 74 l116 0 l26 -74 l223 0 l-27 -47 l-240 0 l-136 -152 l102 0 l107 80 l153 0 l-343 -256 ZM820 667 l115 0 l0 -614 l-163 0 l-23 46 l71 0 l0 568 ZM222 53 l-158 0 l379 280 l159 0 l-180 -132 l48 0 l139 -148 l-129 0 l-106 112 l-152 -112 ZM725 180 l-116 0 l0 385 l116 0 l0 -385 Z" /><glyph glyph-name="uni524A" unicode="&#x524a;" d="M614 55 l-188 0 l-26 47 l100 0 l0 97 l-290 0 l0 -144 l-114 0 l0 455 l200 0 l0 155 l119 0 l0 -155 l85 0 l-26 -49 l-264 0 l0 -83 l290 0 l0 132 l114 0 l0 -455 ZM721 55 l-27 47 l105 0 l0 558 l114 0 l0 -605 l-192 0 ZM757 199 l-102 0 l0 391 l102 0 l0 -391 ZM500 246 l0 85 l-290 0 l0 -85 l290 0 ZM626 655 l-39 -124 l-123 0 l37 124 l125 0 ZM139 531 l-53 124 l123 0 l54 -124 l-124 0 Z" /><glyph glyph-name="uni524D" unicode="&#x524d;" d="M452 379 l0 140 l114 0 l0 -466 l-181 0 l-26 47 l93 0 l0 92 l-210 0 l0 -139 l-114 0 l0 466 l324 0 l-27 -47 l-183 0 l0 -93 l210 0 ZM759 100 l0 419 l114 0 l0 -466 l-176 0 l-26 47 l88 0 ZM719 604 l180 0 l-28 -45 l-770 0 l0 45 l156 0 l-15 64 l108 0 l15 -64 l245 0 l15 64 l109 0 l-15 -64 ZM719 145 l-114 0 l0 339 l114 0 l0 -339 ZM452 240 l0 92 l-210 0 l0 -92 l210 0 Z" /><glyph glyph-name="uni5251" unicode="&#x5251;" d="M606 53 l-482 0 l0 47 l258 0 l28 54 l-38 0 l-104 193 l123 0 l60 -110 l55 107 l121 0 l-123 -244 l122 0 l-20 -47 ZM206 148 l-98 194 l122 0 l100 -194 l-124 0 ZM763 167 l-116 0 l0 252 l-125 0 l-20 22 l-12 -30 l-250 0 l0 47 l-43 -45 l-131 0 l236 248 l132 0 l-50 -51 l94 0 l169 -184 l0 127 l116 0 l0 -386 ZM486 458 l-121 131 l-125 -131 l246 0 ZM818 667 l115 0 l0 -614 l-163 0 l-23 45 l71 0 l0 569 Z" /><glyph glyph-name="uni5269" unicode="&#x5269;" d="M421 536 l250 0 l-26 -47 l-224 0 l0 -435 l-116 0 l0 435 l-232 0 l0 47 l232 0 l0 58 l-190 -17 l0 47 l493 44 l0 -47 l-187 -17 l0 -68 ZM926 666 l0 -614 l-163 0 l-23 46 l70 0 l0 568 l116 0 ZM671 179 l0 386 l116 0 l0 -386 l-116 0 ZM173 458 l116 0 l0 -223 l-116 0 l0 46 l-100 -27 l0 50 l100 31 l0 42 l-100 0 l0 46 l100 0 l0 35 ZM550 458 l0 -65 l95 27 l0 -47 l-95 -27 l0 -67 l95 0 l-24 -44 l-186 0 l0 223 l115 0 ZM556 218 l92 -164 l-114 0 l-90 164 l112 0 ZM178 218 l111 0 l-90 -164 l-112 0 l91 164 Z" /><glyph glyph-name="uni526F" unicode="&#x526f;" d="M758 188 l-116 0 l0 400 l116 0 l0 -400 ZM818 660 l116 0 l0 -599 l-195 0 l-23 46 l102 0 l0 553 ZM581 613 l-514 0 l0 44 l534 0 l-20 -44 ZM483 234 l0 123 l118 0 l0 -296 l-535 0 l0 296 l417 0 l-24 -45 l-69 0 l0 -78 l93 0 ZM180 105 l95 0 l0 81 l-95 0 l0 -81 ZM390 105 l93 0 l0 81 l-93 0 l0 -81 ZM275 312 l-95 0 l0 -78 l95 0 l0 78 ZM90 573 l486 0 l0 -177 l-486 0 l0 177 ZM462 444 l0 120 l-30 -35 l-226 0 l0 -85 l256 0 Z" /><glyph glyph-name="uni529B" unicode="&#x529b;" d="M601 59 l-16 48 l167 0 l0 417 l-246 0 l-216 -462 l-132 0 l216 462 l-240 0 l0 48 l262 0 l42 89 l132 0 l-42 -89 l338 0 l0 -513 l-265 0 Z" /><glyph glyph-name="uni529E" unicode="&#x529e;" d="M207 61 l182 484 l-173 0 l0 46 l190 0 l23 69 l122 0 l-22 -69 l243 0 l0 -529 l-242 0 l-26 46 l154 0 l0 437 l-146 0 l-182 -484 l-123 0 ZM780 433 l121 0 l29 -286 l-120 0 l-30 286 ZM189 147 l-119 0 l154 309 l121 0 l-156 -309 Z" /><glyph glyph-name="uni529F" unicode="&#x529f;" d="M317 112 l141 0 l-27 -47 l-360 0 l0 47 l132 0 l0 470 l-117 0 l0 48 l352 0 l-27 -48 l-94 0 l0 -470 ZM929 577 l0 -524 l-209 0 l-26 47 l119 0 l0 429 l-138 0 l-100 -476 l-116 0 l100 476 l-113 0 l0 48 l123 0 l20 90 l115 0 l-19 -90 l244 0 Z" /><glyph glyph-name="uni52A0" unicode="&#x52a0;" d="M898 58 l-346 0 l0 567 l346 0 l0 -567 ZM238 58 l-114 0 l80 479 l-103 0 l0 44 l110 0 l14 82 l114 0 l-14 -82 l181 0 l0 -523 l-146 0 l-28 44 l60 0 l0 435 l-74 0 l-80 -479 ZM757 581 l-91 0 l0 -479 l118 0 l0 520 l-27 -41 Z" /><glyph glyph-name="uni52A1" unicode="&#x52a1;" d="M110 337 l0 65 l268 84 l-129 34 l-14 -26 l-136 0 l97 172 l134 0 l-8 -15 l579 0 l0 -64 l-298 -94 l298 -77 l0 -65 l-411 106 l-380 -120 ZM110 55 l115 198 l-115 0 l0 47 l142 0 l30 51 l140 0 l-30 -51 l509 0 l0 -245 l-278 0 l-26 47 l190 0 l0 195 l-34 -44 l-388 0 l-114 -198 l-141 0 ZM280 576 l211 -54 l257 81 l-453 0 l-15 -27 Z" /><glyph glyph-name="uni52A8" unicode="&#x52a8;" d="M610 53 l-116 0 l110 430 l-148 0 l0 44 l159 0 l37 143 l116 0 l-37 -143 l208 0 l0 -474 l-2 0 l0 -2 l-204 0 l-25 46 l115 0 l0 386 l-103 0 l-110 -430 ZM297 207 l116 0 l56 -154 l-116 0 l-24 66 l-14 -42 l-237 -23 l-5 -1 l-4 0 l8 14 l100 325 l-116 0 l0 44 l369 0 l0 -44 l-138 0 l-86 -282 l122 12 l-31 85 ZM430 558 l-369 0 l0 44 l369 0 l0 -44 Z" /><glyph glyph-name="uni52A9" unicode="&#x52a9;" d="M490 656 l0 -529 l35 3 l0 -3 l53 86 l1 0 l0 316 l-73 0 l0 47 l73 0 l0 91 l114 0 l0 -91 l218 0 l0 -523 l-173 0 l-26 47 l85 0 l0 429 l-104 0 l0 -344 l-79 -129 l-133 0 l17 28 l-410 -27 l0 44 l32 2 l0 553 l370 0 ZM376 279 l-142 0 l0 -169 l142 10 l0 159 ZM376 650 l-24 -38 l-118 0 l0 -125 l142 0 l0 163 ZM376 443 l-142 0 l0 -121 l142 0 l0 121 Z" /><glyph glyph-name="uni52AA" unicode="&#x52aa;" d="M98 585 l-34 0 l0 44 l41 0 l5 39 l114 0 l-5 -39 l97 0 l0 39 l114 0 l0 -39 l42 0 l0 -44 l-42 0 l0 -66 l5 -1 l-110 -87 l138 -95 l-131 0 l-69 46 l-58 -46 l-132 0 l117 94 l-104 70 l12 85 ZM448 311 l-33 -38 l474 0 l0 -221 l-217 0 l-17 44 l120 0 l0 133 l-397 0 l-150 -177 l-131 0 l149 177 l-178 0 l0 44 l216 0 l32 38 l132 0 ZM498 336 l157 114 l-157 121 l131 0 l94 -72 l99 72 l0 44 l-324 0 l0 43 l438 0 l0 -104 l-147 -105 l147 -114 l-131 0 l-85 65 l-91 -64 l-131 0 ZM213 585 l-10 -69 l50 -35 l63 51 l0 53 l-103 0 Z" /><glyph glyph-name="uni52B1" unicode="&#x52b1;" d="M219 620 l0 -72 l287 0 l-27 -48 l-116 0 l0 -82 l144 0 l0 -365 l-136 0 l-26 48 l46 0 l0 270 l-28 0 l0 -155 l-39 -163 l-114 0 l37 167 l0 280 l-28 0 l0 -284 l-39 -163 l-114 0 l37 167 l0 447 l407 0 l-26 -47 l-265 0 ZM933 53 l-157 0 l-26 48 l68 0 l0 433 l-107 0 l0 -318 l-21 -163 l-114 0 l37 167 l0 314 l-89 0 l0 48 l89 0 l0 85 l98 0 l0 -85 l222 0 l0 -529 Z" /><glyph glyph-name="uni52B2" unicode="&#x52b2;" d="M501 53 l87 507 l-69 0 l0 46 l77 0 l10 62 l121 0 l-11 -62 l214 0 l0 -549 l-202 0 l-27 45 l115 0 l0 458 l-108 0 l-87 -507 l-120 0 ZM70 341 l164 137 l-2 2 l6 1 l120 100 l0 39 l-250 0 l0 47 l353 0 l0 -108 l-110 -87 l125 -131 l-112 0 l-76 80 l-102 -80 l-116 0 ZM465 53 l-385 0 l0 48 l147 0 l0 165 l-147 0 l0 47 l408 0 l-23 -47 l-127 0 l0 -165 l150 0 l-23 -48 Z" /><glyph glyph-name="uni52C7" unicode="&#x52c7;" d="M80 668 l840 0 l0 -46 l-159 -77 l43 0 l-25 -47 l-220 0 l0 -42 l245 0 l0 89 l116 0 l0 -256 l-116 0 l0 30 l-245 0 l0 -30 l-115 0 l0 30 l-248 0 l0 -30 l-116 0 l0 256 l279 0 l-81 60 l165 0 l81 -60 l13 0 l156 76 l-613 0 l0 47 ZM467 252 l453 0 l0 -199 l-230 0 l-24 46 l138 0 l0 106 l-384 0 l-155 -152 l-165 0 l155 152 l-175 0 l0 47 l222 0 l25 24 l165 0 l-25 -24 ZM444 498 l-248 0 l0 -42 l248 0 l0 42 ZM444 366 l0 42 l-248 0 l0 -42 l248 0 ZM559 408 l0 -42 l245 0 l0 42 l-245 0 Z" /><glyph glyph-name="uni52C9" unicode="&#x52c9;" d="M94 53 l57 176 l-57 0 l0 279 l167 0 l61 77 l-106 0 l-6 -11 l-124 0 l50 92 l123 0 l-18 -34 l119 0 l0 1 l123 0 l0 -1 l-1 -1 l-96 -123 l20 0 l-26 -47 l-17 0 l0 -188 l43 0 l0 235 l114 0 l0 -279 l-81 0 l0 -129 l475 0 l-26 -48 l-563 0 l0 177 l-26 0 l-56 -176 l-149 0 ZM501 133 l106 390 l-75 0 l0 47 l88 0 l26 98 l140 0 l-26 -98 l140 0 l0 -437 l-188 0 l-27 48 l100 0 l0 342 l-37 0 l-105 -390 l-142 0 ZM208 461 l0 -188 l41 0 l0 188 l-41 0 Z" /><glyph glyph-name="uni52E4" unicode="&#x52e4;" d="M355 344 l52 0 l0 114 l96 0 l0 -162 l-148 0 l0 -33 l160 0 l-26 -48 l-134 0 l0 -34 l140 0 l-26 -47 l-114 0 l0 -28 l160 4 l-26 -47 l-390 -10 l0 47 l160 4 l0 30 l-140 0 l0 47 l140 0 l0 34 l-160 0 l0 48 l160 0 l0 33 l-149 0 l0 162 l149 0 l0 33 l-134 0 l0 82 l-30 0 l0 48 l30 0 l0 47 l96 0 l0 -47 l161 0 l0 47 l96 0 l0 -47 l43 0 l-26 -48 l-17 0 l0 -82 l-123 0 l0 -33 l52 0 l-26 -47 l-26 0 l0 -67 ZM717 100 l75 0 l0 473 l-98 0 l-12 -377 l-40 -143 l-112 0 l40 144 l12 376 l-44 0 l0 48 l45 0 l2 47 l112 0 l-2 -47 l209 0 l0 -568 l-161 0 l-26 47 ZM382 573 l-161 0 l0 -35 l161 0 l0 35 ZM259 411 l-52 0 l0 -67 l52 0 l0 67 Z" /><glyph glyph-name="uni5305" unicode="&#x5305;" d="M737 565 l-652 0 l72 102 l129 0 l-40 -54 l605 0 l0 -449 l-194 45 l0 51 l80 -19 l0 324 ZM628 232 l-379 0 l0 -130 l665 0 l-40 -49 l-742 0 l0 421 l377 0 l-38 -47 l-222 0 l0 -149 l260 0 l0 196 l119 0 l0 -242 Z" /><glyph glyph-name="uni5316" unicode="&#x5316;" d="M570 57 l0 331 l-209 -82 l0 103 l209 83 l0 175 l128 0 l0 -125 l193 77 l-1 -103 l-192 -77 l0 -312 l249 0 l-41 -70 l-336 0 ZM129 390 l-77 0 l110 274 l119 0 l-88 -217 l52 0 l0 -394 l-116 0 l0 337 Z" /><glyph glyph-name="uni533A" unicode="&#x533a;" d="M845 49 l-716 0 l0 622 l742 0 l-26 -47 l-600 0 l0 -526 l626 0 l-26 -49 ZM445 563 l114 -126 l114 126 l141 0 l-184 -205 l203 -224 l-142 0 l-132 146 l-131 -146 l-142 0 l202 224 l-184 205 l141 0 Z" /><glyph glyph-name="uni5341" unicode="&#x5341;" d="M909 463 l-26 -47 l-333 0 l0 -363 l-116 0 l0 363 l-344 0 l0 47 l344 0 l0 204 l116 0 l0 -204 l359 0 Z" /><glyph glyph-name="uni5343" unicode="&#x5343;" d="M858 332 l-303 0 l0 -279 l-112 0 l0 279 l-328 0 l0 47 l328 0 l0 209 l-274 -26 l0 43 l651 63 l0 -44 l-265 -25 l0 -220 l329 0 l-26 -47 Z" /><glyph glyph-name="uni5347" unicode="&#x5347;" d="M914 431 l-26 -45 l-85 0 l0 -332 l-134 0 l0 332 l-287 0 l0 -90 l-111 -242 l-148 0 l123 256 l0 76 l-160 0 l0 45 l160 0 l0 171 q-28 -2 -49 -3 q-44 -2 -60 -3 q-14 -1 -7 0 q-8 0 -21 -1 l0 45 q65 4 102 6 q37 2 56.5 3 q19.5 1 26.5 1.5 q7 0.5 13.5 1 q6.5 0.5 17 1 q10.5 0.5 36.5 2 q26 1.5 72.5 4 q46.5 2.5 125.5 7.5 l-26 -47 q-87 -6 -151 -9 l0 -179 l287 0 l0 228 l134 0 l0 -228 l111 0 ZM131 596 q6 0 10 1 q-3 0 -10 -1 Z" /><glyph glyph-name="uni5348" unicode="&#x5348;" d="M469 293 l-387 0 l0 47 l387 0 l0 211 l-205 0 l-43 -123 l-122 0 l80 237 l125 0 l-23 -66 l596 0 l-26 -48 l-268 0 l0 -211 l334 0 l-27 -47 l-307 0 l0 -238 l-114 0 l0 238 Z" /><glyph glyph-name="uni534A" unicode="&#x534a;" d="M549 401 l0 -184 l360 0 l-25 -46 l-335 0 l0 -112 l-109 0 l0 112 l-350 0 l0 46 l350 0 l0 184 l-308 0 l0 46 l308 0 l0 214 l109 0 l0 -214 l307 0 l-26 -46 l-281 0 ZM674 482 l63 149 l112 0 l-63 -149 l-112 0 ZM130 626 l112 0 l63 -150 l-112 0 l-63 150 Z" /><glyph glyph-name="uni534E" unicode="&#x534e;" d="M241 492 l79 0 l0 -179 l-117 0 l0 136 l-137 0 l163 208 l140 0 l-128 -165 ZM443 243 l0 62 l119 0 l0 -62 l372 0 l-21 -44 l-351 0 l0 -145 l-119 0 l0 145 l-344 0 l0 44 l344 0 ZM526 482 l0 184 l117 0 l0 -137 l270 120 l-23 -64 l-247 -112 l0 -98 l291 0 l-22 -46 l-386 0 l0 91 l-113 -43 l0 52 l113 53 Z" /><glyph glyph-name="uni534F" unicode="&#x534f;" d="M938 191 l-114 0 l-41 284 l0 -421 l-157 0 l-28 44 l71 0 l0 465 l-89 0 l0 -273 l-80 -236 l-129 0 l95 236 l0 273 l-165 0 l0 44 l165 0 l0 60 l114 0 l0 -60 l203 0 l0 -132 l119 0 l36 -284 ZM107 492 l-46 0 l0 44 l46 0 l0 131 l114 0 l0 -131 l60 0 l-28 -44 l-32 0 l0 -438 l-114 0 l0 438 ZM379 191 l-119 0 l43 99 l0 185 l119 0 l0 -185 l-43 -99 Z" /><glyph glyph-name="uni5351" unicode="&#x5351;" d="M873 285 l-453 0 l-100 -90 l135 0 l0 65 l114 0 l0 -65 l358 0 l-37 -47 l-321 0 l0 -93 l-114 0 l0 93 l-382 0 l0 47 l91 0 l100 90 l-155 0 l0 335 l116 0 l0 -34 l53 79 l130 0 l-39 -52 l389 0 l-35 -44 l-186 0 l0 -97 l221 0 l0 141 l115 0 l0 -328 ZM423 569 l-198 0 l0 -97 l198 0 l0 97 ZM423 428 l-198 0 l0 -98 l198 0 l0 98 ZM758 428 l-221 0 l0 -98 l221 0 l0 98 Z" /><glyph glyph-name="uni5352" unicode="&#x5352;" d="M758 295 l-113 119 l-80 -119 l-24 0 l0 -61 l377 0 l-26 -47 l-351 0 l0 -133 l-116 0 l0 133 l-343 0 l0 47 l343 0 l0 61 l14 0 l31 47 l-92 0 l-71 72 l-81 -119 l-127 0 l175 259 l127 0 l-72 -106 l71 0 l84 -86 l129 192 l127 0 l-72 -106 l71 0 l144 -153 l-125 0 ZM554 614 l342 0 l-27 -46 l-773 0 l0 46 l345 0 l0 53 l113 0 l0 -53 Z" /><glyph glyph-name="uni5355" unicode="&#x5355;" d="M328 672 l1 -2 l43 -68 l275 0 l40 68 l113 0 l-41 -68 l118 0 l0 -341 l-325 0 l0 -66 l356 0 l-26 -44 l-330 0 l0 -103 l-110 0 l0 103 l-351 0 l0 44 l351 0 l0 66 l-321 0 l0 341 l138 0 l-42 68 l-2 2 l113 0 ZM442 305 l0 107 l-209 0 l0 -107 l209 0 ZM442 558 l-209 0 l0 -102 l209 0 l0 102 ZM765 305 l0 151 l0 102 l-213 0 l0 -102 l213 0 l-39 -44 l-174 0 l0 -107 l213 0 Z" /><glyph glyph-name="uni535A" unicode="&#x535a;" d="M517 53 l-116 0 l-57 101 l116 0 l57 -101 ZM130 504 l-69 0 l0 47 l69 0 l0 117 l114 0 l0 -117 l63 0 l-21 -47 l-42 0 l0 -451 l-114 0 l0 451 ZM433 277 l-109 0 l0 278 l253 0 l0 32 l-245 0 l0 48 l245 0 l0 32 l109 0 l0 -32 l86 0 l-16 33 l116 0 l16 -33 l51 0 l-27 -48 l-226 0 l0 -32 l252 0 l0 -278 l-110 0 l0 49 l-142 0 l0 -49 l-109 0 l0 49 l-144 0 l0 -49 ZM577 373 l0 52 l-144 0 l0 -52 l144 0 ZM828 373 l0 52 l-142 0 l0 -52 l142 0 ZM686 509 l0 -37 l142 0 l0 69 l-28 -32 l-114 0 ZM433 509 l0 -37 l144 0 l0 37 l-144 0 ZM889 261 l0 -34 l50 0 l-27 -47 l-23 0 l0 -127 l-328 0 l-22 44 l236 0 l0 83 l-443 0 l0 47 l443 0 l0 34 l114 0 Z" /><glyph glyph-name="uni5370" unicode="&#x5370;" d="M482 647 l434 0 l0 -501 l-243 0 l-24 46 l153 0 l0 408 l-208 0 l0 -546 l-112 0 l0 593 ZM84 635 l371 32 l0 -47 l-259 -23 l0 -166 l259 0 l0 -48 l-259 0 l0 -191 l259 24 l0 -47 l-371 -35 l0 501 Z" /><glyph glyph-name="uni5373" unicode="&#x5373;" d="M482 326 l-262 0 l0 -190 l147 45 l-52 117 l114 0 l100 -225 l-114 0 l-29 65 l-280 -85 l0 614 l114 0 l0 -144 l148 0 l0 101 l-119 0 l-29 43 l262 0 l0 -341 ZM893 167 l-193 33 l0 43 l79 -13 l0 394 l-116 0 l0 -571 l-114 0 l0 614 l344 0 l0 -500 ZM220 370 l148 0 l0 110 l-148 0 l0 -110 Z" /><glyph glyph-name="uni5374" unicode="&#x5374;" d="M544 596 l-26 -48 l-137 0 l0 -130 l182 0 l-26 -47 l-275 0 l-29 -242 l205 0 l-37 162 l114 0 l48 -210 l-114 0 l-11 48 l-26 -48 l-298 0 l34 290 l-64 0 l0 47 l183 0 l0 130 l-164 0 l0 48 l164 0 l0 73 l114 0 l0 -73 l163 0 ZM916 667 l0 -533 l-163 56 l0 47 l58 -16 l0 400 l-107 0 l0 -570 l-107 0 l0 616 l319 0 Z" /><glyph glyph-name="uni5377" unicode="&#x5377;" d="M119 310 l132 104 l-189 0 l0 44 l244 0 l94 74 l-318 0 l0 43 l105 0 l-34 76 l114 0 l33 -76 l131 0 l0 93 l114 0 l0 -93 l131 0 l32 76 l114 0 l-33 -76 l130 0 l-30 -43 l-354 0 l-93 -74 l496 0 l-30 -44 l-123 0 l108 -104 l-136 0 l-108 104 l-262 0 l-132 -104 l-136 0 ZM267 101 l647 0 l-28 -48 l-739 0 l0 245 l736 0 l0 -151 l-514 0 l-30 44 l426 0 l0 63 l-498 0 l0 -153 Z" /><glyph glyph-name="uni537F" unicode="&#x537f;" d="M536 668 l-26 -47 l-57 0 l0 -149 l83 0 l0 196 l97 0 l0 -433 l-180 0 l0 -127 l72 5 l-12 66 l97 0 l23 -126 l-97 0 l-3 15 l-177 -15 l0 615 l180 0 ZM911 668 l0 -522 l-127 41 l0 47 l31 -10 l0 398 l-57 0 l0 -568 l-97 0 l0 614 l250 0 ZM88 159 l0 489 l242 15 l-26 -47 l-119 -8 l0 -396 l46 3 l0 361 l97 0 l0 -383 l-80 -139 l-97 0 l66 115 l-129 -10 ZM453 425 l0 -143 l83 0 l0 143 l-83 0 Z" /><glyph glyph-name="uni5382" unicode="&#x5382;" d="M247 53 l-146 0 l94 186 l0 428 l703 0 l-35 -45 l-534 0 l0 -397 l-82 -172 Z" /><glyph glyph-name="uni5386" unicode="&#x5386;" d="M937 668 l-27 -47 l-696 0 l0 -405 l-38 -163 l-114 0 l36 167 l0 447 l69 0 l0 1 l770 0 ZM339 220 l0 233 l-46 0 l0 47 l46 0 l0 82 l116 0 l0 -82 l411 0 l0 -447 l-157 0 l-26 47 l67 0 l0 353 l-295 0 l0 -237 l-39 -163 l-114 0 l37 167 Z" /><glyph glyph-name="uni5389" unicode="&#x5389;" d="M248 536 l689 0 l-27 -47 l-456 0 l0 -71 l406 0 l0 -365 l-298 0 l-26 48 l208 0 l0 270 l-290 0 l0 -155 l-39 -163 l-114 0 l37 167 l0 269 l-90 0 l0 47 ZM99 667 l838 0 l-27 -47 l-696 0 l0 -404 l-38 -163 l-114 0 l37 167 l0 447 Z" /><glyph glyph-name="uni538B" unicode="&#x538b;" d="M194 53 l-116 0 l66 256 l0 361 l751 0 l-28 -49 l-609 0 l0 -312 l-64 -256 ZM790 315 l63 -133 l-119 0 l-65 133 l121 0 ZM922 98 l-27 -48 l-645 0 l0 48 l254 0 l0 276 l-197 0 l0 47 l197 0 l0 162 l114 0 l0 -162 l244 0 l-27 -47 l-217 0 l0 -276 l304 0 Z" /><glyph glyph-name="uni538C" unicode="&#x538c;" d="M876 620 l-600 0 l0 -312 l-65 -256 l-116 0 l67 256 l0 361 l742 0 l-28 -49 ZM342 53 l92 326 l-138 0 l0 48 l151 0 l46 165 l123 0 l-46 -165 l334 0 l-26 -48 l-321 0 l-90 -326 l-125 0 ZM847 57 l-136 0 l-108 243 l136 0 l108 -243 ZM659 557 l121 0 l40 -111 l-120 0 l-41 111 Z" /><glyph glyph-name="uni539A" unicode="&#x539a;" d="M172 57 l-106 0 l45 180 l2 391 l0 36 l821 0 l-26 -62 l-689 0 l-2 -365 l-45 -180 ZM372 533 l0 -44 l376 0 l-40 -47 l-336 0 l0 -38 l395 0 l0 176 l104 0 l0 -225 l-614 0 l5 190 l0 35 l504 0 l-26 -47 l-368 0 ZM757 56 l-425 0 l-25 46 l331 0 l0 87 l-384 0 l0 47 l387 0 l47 51 l-376 0 l0 48 l545 0 l-89 -99 l161 0 l-44 -47 l-128 0 l0 -133 Z" /><glyph glyph-name="uni539F" unicode="&#x539f;" d="M621 594 l-25 -51 l158 0 l-27 -47 l-298 0 l0 -37 l325 0 l0 84 l110 0 l0 -209 l-216 0 l0 -280 l-172 0 l-21 44 l78 0 l0 236 l-218 0 l0 209 l158 0 l27 51 l121 0 ZM877 620 l-613 0 l0 -351 l-61 -213 l-105 0 l61 213 l0 398 l743 0 l-25 -47 ZM758 54 l-66 247 l116 0 l66 -247 l-116 0 ZM302 54 l67 247 l116 0 l-67 -247 l-116 0 ZM754 413 l-325 0 l0 -33 l325 0 l0 33 Z" /><glyph glyph-name="uni53A6" unicode="&#x53a6;" d="M634 562 l-16 -24 l278 0 l0 -232 l-475 0 l-22 -31 l497 0 l0 -91 l-207 -60 l225 -71 l-199 0 l-130 41 l-142 -41 l-213 0 l253 73 l-183 59 l198 0 l89 -29 l194 57 l0 18 l-414 0 l-26 -35 l-119 0 l80 110 l-32 0 l0 232 l229 0 l16 24 l-270 0 l0 44 l676 0 l-28 -44 l-259 0 ZM175 53 l-114 0 l38 156 l0 459 l840 0 l-28 -44 l-698 0 l0 -408 l-38 -163 ZM782 434 l-398 0 l0 -24 l398 0 l0 24 ZM748 494 l-364 0 l0 -21 l398 0 l0 60 l-34 -39 ZM782 371 l-398 0 l0 -22 l398 0 l0 22 Z" /><glyph glyph-name="uni53BB" unicode="&#x53bb;" d="M885 608 l-31 -47 l-296 0 l0 -174 l327 0 l-31 -46 l-468 0 l-122 -235 l463 17 l-67 137 l116 0 l102 -207 l-116 0 l-12 23 l-511 -19 l0 -1 l-124 -3 l149 288 l-149 0 l0 46 l328 0 l0 174 l-328 0 l0 47 l328 0 l0 60 l115 0 l0 -60 l327 0 Z" /><glyph glyph-name="uni53C1" unicode="&#x53c1;" d="M752 279 l-26 -45 l-469 0 l0 36 l-49 -56 l-137 0 l166 191 l-135 0 l0 46 l175 0 l41 47 l138 0 l-40 -47 l485 0 l-26 -46 l-501 0 l-110 -126 l488 0 ZM253 559 l501 0 l-35 61 l133 0 l58 -109 l-129 0 l-20 35 l-21 -35 l-647 0 l102 157 l130 0 l-72 -109 ZM911 98 l-26 -45 l-792 0 l0 45 l818 0 ZM891 189 l-26 -46 l-753 0 l0 46 l779 0 ZM817 383 l111 -164 l-133 0 l-111 164 l133 0 Z" /><glyph glyph-name="uni53C2" unicode="&#x53c2;" d="M895 408 l-123 0 l128 -189 l-140 0 l-129 189 l-264 0 l-61 -97 l380 13 l0 -51 l-388 -14 l0 39 l-50 -79 l-146 0 l119 189 l-142 0 l0 47 l172 0 l41 64 l-120 0 l93 147 l135 0 l-66 -102 l297 0 l-56 82 l140 0 l86 -127 l-364 0 l-40 -64 l524 0 l-26 -47 ZM179 106 l625 30 l0 -51 l-625 -31 l0 52 ZM744 230 l0 -51 l-504 -22 l0 52 l504 21 Z" /><glyph glyph-name="uni53C8" unicode="&#x53c8;" d="M595 299 l306 -246 l-184 0 l-215 173 l-220 -173 l-184 0 l311 247 l-289 233 l186 0 l196 -158 l211 167 l0 82 l-597 0 l0 44 l728 0 l0 -173 l-249 -196 Z" /><glyph glyph-name="uni53CA" unicode="&#x53ca;" d="M493 55 l-192 0 l208 146 l-174 132 l0 -82 l-82 -196 l-131 0 l82 196 l0 360 l-40 0 l0 54 l640 0 l0 -54 l-161 -153 l224 0 l0 -131 l-177 -129 l188 -143 l-176 0 l-102 77 l-107 -77 ZM652 611 l-317 0 l0 -235 l121 0 l144 -110 l120 84 l0 54 l-228 0 l0 54 l160 153 Z" /><glyph glyph-name="uni53CB" unicode="&#x53cb;" d="M317 598 l587 0 l-26 -47 l-569 0 l-10 -58 l560 0 l0 -84 l-212 -179 l213 -177 l-152 0 l-135 114 l-135 -114 l-153 0 l208 180 l-209 176 l-63 -356 l-118 0 l93 498 l-100 0 l0 47 l109 0 l13 70 l112 0 l-13 -70 ZM291 449 l-6 -32 l136 0 l146 -120 l175 152 l-451 0 Z" /><glyph glyph-name="uni53CC" unicode="&#x53cc;" d="M496 655 l0 -204 l-116 -151 l123 -199 l154 201 l-136 218 l135 0 l75 -122 l64 85 l0 148 l-8 -20 l-269 0 l0 44 l390 0 l0 -204 l-116 -151 l144 -234 l-131 0 l-87 138 l-106 -138 l-219 0 l-86 138 l-107 -138 l-136 0 l181 236 l-136 218 l136 0 l74 -122 l65 85 l0 148 l-9 -20 l-269 0 l0 44 l390 0 Z" /><glyph glyph-name="uni53CD" unicode="&#x53cd;" d="M689 201 l206 -148 l-167 0 l-122 88 l-122 -88 l-167 0 l206 148 l-232 166 l167 0 l148 -106 l148 106 l0 71 l-500 0 l0 -266 l-35 -119 l-114 0 l35 119 l0 437 l632 0 l9 59 l114 0 l-16 -106 l-625 0 l0 -77 l614 0 l0 -156 l-179 -128 Z" /><glyph glyph-name="uni53D1" unicode="&#x53d1;" d="M480 52 l-172 0 l235 119 l-190 101 l141 0 l121 -64 l144 73 l0 39 l-418 0 l-140 -264 l-128 0 l216 408 l-218 0 l86 204 l122 0 l-68 -161 l101 0 l86 161 l129 0 l-86 -161 l325 0 l-38 107 l115 0 l39 -107 l46 0 l0 -43 l-510 0 l-53 -100 l508 0 l0 -105 l-177 -94 l216 -113 l-142 0 l-145 76 l-145 -76 Z" /><glyph glyph-name="uni53D6" unicode="&#x53d6;" d="M535 132 l-15 -1 l-14 -79 l-114 0 l14 73 l-310 -18 l0 48 l31 1 l0 464 l-31 0 l0 48 l465 0 l-26 -48 l-14 0 l0 -443 l40 2 l-26 -47 ZM680 62 l-114 0 l112 163 l-113 163 l1 0 l0 187 l114 0 l0 -187 l55 -80 l55 80 l0 217 l-224 0 l0 48 l338 0 l0 -265 l-112 -163 l112 -163 l-114 0 l-55 81 l-55 -81 ZM407 453 l-166 0 l0 -127 l166 0 l0 127 ZM407 620 l-166 0 l0 -119 l166 0 l0 119 ZM407 278 l-166 0 l0 -116 l166 9 l0 107 Z" /><glyph glyph-name="uni53D7" unicode="&#x53d7;" d="M795 468 l115 0 l0 -120 l-80 0 l0 -90 l-231 -83 l271 -107 l-168 0 l-191 75 l-208 -75 l-169 0 l296 107 l-261 102 l168 0 l181 -71 l196 71 l0 26 l-545 0 l0 45 l-80 0 l0 120 l131 0 l-42 91 l119 0 l42 -91 l118 0 l-42 91 l115 0 l44 -91 l105 0 l42 91 l118 0 l-44 -91 ZM798 422 l-593 0 l0 -70 l593 0 l0 70 ZM910 652 l0 -48 l-821 -30 l0 47 l821 31 Z" /><glyph glyph-name="uni53D8" unicode="&#x53d8;" d="M602 185 l298 -123 l-181 0 l-215 85 l-228 -86 l-176 0 l303 129 l-256 114 l166 0 l192 -76 l234 82 l0 6 l-594 0 l0 48 l715 0 l0 -87 l-258 -92 ZM873 566 l-197 0 l0 -194 l-114 0 l0 194 l-131 0 l0 -194 l-106 0 l0 194 l-225 0 l0 47 l343 0 l0 46 l114 0 l0 -46 l343 0 l-27 -47 ZM119 376 l56 170 l121 0 l-56 -170 l-121 0 ZM830 546 l57 -170 l-121 0 l-57 170 l121 0 Z" /><glyph glyph-name="uni53E3" unicode="&#x53e3;" d="M686 585 l-408 0 l0 -448 l443 0 l0 501 l139 0 l0 -555 l-721 0 l0 555 l582 0 l-35 -53 Z" /><glyph glyph-name="uni53E5" unicode="&#x53e5;" d="M938 618 l0 -563 l-240 0 l-30 46 l154 0 l0 472 l-761 0 l61 93 l132 0 l-32 -48 l716 0 ZM703 130 l-563 0 l0 373 l449 0 l-30 -37 l-305 0 l0 -299 l335 0 l0 336 l114 0 l0 -373 Z" /><glyph glyph-name="uni53E6" unicode="&#x53e6;" d="M933 336 l0 -279 l-372 0 l-17 45 l255 0 l0 190 l-355 0 l-201 -237 l-168 0 l200 237 l-209 0 l0 44 l246 0 l42 49 l168 0 l-41 -49 l452 0 ZM904 395 l-798 0 l0 271 l662 0 l-26 -48 l-502 0 l0 -179 l530 0 l0 227 l134 0 l0 -271 Z" /><glyph glyph-name="uni53EA" unicode="&#x53ea;" d="M839 303 l-678 0 l0 354 l564 0 l-28 -44 l-422 0 l0 -266 l450 0 l0 310 l114 0 l0 -354 ZM242 63 l-153 0 l154 188 l154 0 l-155 -188 ZM755 251 l155 -188 l-153 0 l-154 188 l152 0 Z" /><glyph glyph-name="uni53EB" unicode="&#x53eb;" d="M74 652 l257 0 l-26 -44 l-117 0 l0 -497 l143 0 l0 541 l114 0 l0 -585 l-371 0 l0 585 ZM811 668 l114 0 l0 -615 l-114 0 l0 615 ZM615 643 l0 -439 l195 0 l-26 -44 l-283 0 l0 483 l114 0 Z" /><glyph glyph-name="uni53ED" unicode="&#x53ed;" d="M374 116 l106 548 l112 0 l-118 -607 l-110 0 l5 37 l-270 0 l0 529 l158 0 l-25 -47 l-21 0 l0 -437 l51 0 l0 484 l112 0 l0 -507 ZM901 57 l-111 0 l-117 607 l112 0 l116 -607 Z" /><glyph glyph-name="uni53EE" unicode="&#x53ee;" d="M393 54 l-337 0 l0 615 l223 0 l-26 -48 l-83 0 l0 -519 l109 0 l0 567 l114 0 l0 -615 ZM917 621 l-114 0 l0 -569 l-315 0 l-24 46 l221 0 l0 523 l-257 0 l0 48 l515 0 l-26 -48 Z" /><glyph glyph-name="uni53EF" unicode="&#x53ef;" d="M588 158 l-430 0 l0 384 l430 0 l0 -384 ZM883 618 l-70 0 l0 -565 l-220 0 l-25 51 l123 0 l0 514 l-600 0 l0 49 l817 0 l-25 -49 ZM451 499 l-179 0 l0 -297 l202 0 l0 338 l-23 -41 Z" /><glyph glyph-name="uni53F0" unicode="&#x53f0;" d="M927 406 l0 -348 l-853 0 l0 348 l853 0 ZM808 404 l-26 -45 l-589 0 l0 -257 l615 0 l0 302 ZM68 439 l83 224 l123 0 l-65 -177 l595 0 l-48 119 l108 0 l68 -166 l-109 0 l-18 46 l-21 -46 l-716 0 Z" /><glyph glyph-name="uni53F3" unicode="&#x53f3;" d="M398 598 l527 0 l-27 -47 l-527 0 l-84 -149 l488 0 l-26 -48 l-384 0 l0 -254 l410 0 l0 302 l114 0 l0 -349 l-638 0 l0 284 l-49 -87 l-127 0 l172 301 l-159 0 l0 47 l186 0 l40 70 l123 0 l-39 -70 Z" /><glyph glyph-name="uni53F6" unicode="&#x53f6;" d="M886 391 l-190 0 l0 -330 l-114 0 l0 330 l-190 0 l0 48 l190 0 l0 220 l114 0 l0 -220 l217 0 l-27 -48 ZM200 590 l0 -458 l54 0 l0 507 l113 0 l0 -554 l-281 0 l0 554 l163 0 l-26 -49 l-23 0 Z" /><glyph glyph-name="uni53F7" unicode="&#x53f7;" d="M128 441 l0 209 l623 0 l-44 -44 l-462 0 l0 -121 l507 0 l0 165 l116 0 l0 -209 l-740 0 ZM356 334 l-72 -82 l579 0 l0 -181 l-367 0 l0 44 l249 0 l0 93 l-622 0 l110 126 l-158 0 l0 46 l849 0 l-33 -46 l-535 0 Z" /><glyph glyph-name="uni53F9" unicode="&#x53f9;" d="M390 94 l-298 0 l0 552 l298 0 l0 -552 ZM431 664 l433 0 l0 -204 l-133 -155 l177 -249 l-153 0 l-107 151 l-128 -149 l-149 0 l206 249 l-150 211 l154 0 l78 -111 l72 88 l0 162 l-21 -37 l-279 0 l0 44 ZM212 138 l61 0 l0 498 l-28 -35 l-33 0 l0 -463 Z" /><glyph glyph-name="uni53FD" unicode="&#x53fd;" d="M843 103 l90 0 l-28 -49 l-182 0 l0 603 l-42 -38 l-158 0 l0 -320 l-40 -245 l-119 0 l44 259 l0 353 l435 0 l0 -563 ZM335 81 l-268 0 l0 559 l268 0 l0 -559 ZM227 632 l-29 -36 l-22 0 l0 -471 l51 0 l0 507 Z" /><glyph glyph-name="uni5401" unicode="&#x5401;" d="M726 610 l0 -211 l194 0 l-26 -44 l-168 0 l0 -289 l-200 0 l-37 44 l124 0 l0 245 l-194 0 l0 44 l194 0 l0 211 l-168 0 l0 44 l446 0 l-32 -44 l-133 0 ZM231 601 l-39 0 l0 -488 l76 0 l0 532 l112 0 l0 -576 l-300 0 l0 576 l188 0 l-37 -44 Z" /><glyph glyph-name="uni5403" unicode="&#x5403;" d="M394 106 l-307 0 l0 513 l307 0 l0 -513 ZM881 417 l-305 -320 l336 0 l-21 -44 l-437 0 l0 44 l304 320 l-304 0 l0 44 l427 0 l0 -44 ZM272 575 l-84 0 l0 -425 l104 0 l0 465 l-20 -40 ZM597 668 l-21 -49 l337 0 l-21 -44 l-334 0 l-28 -69 l-112 0 l67 162 l112 0 Z" /><glyph glyph-name="uni5404" unicode="&#x5404;" d="M910 366 l0 -84 l-401 120 l-420 -120 l0 84 l273 80 l-124 37 l-13 -24 l-136 0 l105 208 l141 0 l-21 -40 l561 0 l0 -120 l-228 -66 l263 -75 ZM144 294 l721 0 l0 -240 l-721 0 l0 240 ZM259 106 l492 0 l0 170 l-29 -31 l-463 0 l0 -139 ZM494 485 l267 78 l0 18 l-471 0 l-18 -33 l222 -63 Z" /><glyph glyph-name="uni5408" unicode="&#x5408;" d="M934 402 l-136 0 l-59 208 l-463 0 l-41 -122 l527 0 l-26 -62 l-522 0 l-8 -24 l-141 0 l86 253 l711 0 l72 -253 ZM894 66 l-761 0 l0 275 l650 0 l-27 -47 l-507 0 l0 -179 l534 0 l0 226 l111 0 l0 -275 Z" /><glyph glyph-name="uni5409" unicode="&#x5409;" d="M841 55 l-682 0 l0 278 l682 0 l0 -278 ZM874 576 l-307 0 l0 -116 l281 0 l-25 -49 l-672 0 l0 49 l277 0 l0 116 l-327 0 l0 49 l327 0 l0 41 l139 0 l0 -41 l332 0 l-25 -49 ZM672 284 l-377 0 l0 -180 l409 0 l0 226 l-32 -46 Z" /><glyph glyph-name="uni540A" unicode="&#x540a;" d="M551 374 l329 0 l0 -313 l-224 24 l0 50 l109 -14 l0 206 l-214 0 l0 -275 l-116 0 l0 275 l-200 0 l0 -249 l-116 0 l0 296 l316 0 l0 61 l-275 0 l0 234 l566 0 l-27 -47 l-425 0 l0 -139 l452 0 l0 186 l114 0 l0 -234 l-289 0 l0 -61 Z" /><glyph glyph-name="uni540C" unicode="&#x540c;" d="M306 462 l389 0 l0 -314 l-389 0 l0 314 ZM244 62 l-134 0 l0 596 l645 0 l-35 -44 l-476 0 l0 -552 ZM890 658 l0 -596 l-181 0 l-24 45 l70 0 l0 551 l135 0 ZM424 192 l152 0 l0 261 l-26 -35 l-126 0 l0 -226 ZM715 558 l-26 -44 l-404 0 l0 44 l430 0 Z" /><glyph glyph-name="uni540D" unicode="&#x540d;" d="M119 340 l762 0 l0 -286 l-762 0 l0 286 ZM294 634 l605 0 l-99 -263 l-668 0 l-25 47 l364 0 l-76 93 l138 0 l77 -93 l84 0 l64 168 l-498 0 l-34 -46 l-125 0 l94 126 l123 0 l-24 -32 ZM767 340 l-26 -47 l-508 0 l0 -196 l534 0 l0 243 Z" /><glyph glyph-name="uni540E" unicode="&#x540e;" d="M904 441 l-697 0 l-1 -205 l-46 -179 l-106 0 l46 179 l2 391 l0 36 l776 0 l-31 -62 l-640 0 l0 -97 l739 0 l-42 -63 ZM366 307 l0 -194 l410 0 l0 241 l111 0 l0 -290 l-637 0 l0 290 l525 0 l-27 -47 l-382 0 Z" /><glyph glyph-name="uni5410" unicode="&#x5410;" d="M360 75 l-281 0 l0 520 l163 0 l-26 -49 l-23 0 l0 -423 l55 0 l0 472 l112 0 l0 -520 ZM921 103 l-30 -45 l-505 0 l0 45 l202 0 l0 326 l-184 0 l0 45 l184 0 l0 188 l114 0 l0 -188 l202 0 l-30 -45 l-172 0 l0 -326 l219 0 Z" /><glyph glyph-name="uni5411" unicode="&#x5411;" d="M555 620 l-324 -43 l548 0 l-26 -50 l-532 0 l0 -475 l-114 0 l0 557 l448 60 l0 -49 ZM719 207 l-437 0 l0 244 l323 0 l-26 -49 l-183 0 l0 -146 l209 0 l0 195 l114 0 l0 -244 ZM779 101 l0 476 l114 0 l0 -525 l-199 0 l-26 49 l111 0 Z" /><glyph glyph-name="uni5413" unicode="&#x5413;" d="M61 148 l0 449 l298 0 l0 -449 l-298 0 ZM543 624 l-187 0 l0 44 l582 0 l-28 -44 l-253 0 l0 -571 l-114 0 l0 571 ZM787 216 l-92 308 l121 0 l90 -308 l-119 0 ZM175 192 l70 0 l0 399 l-34 -38 l-36 0 l0 -361 Z" /><glyph glyph-name="uni5417" unicode="&#x5417;" d="M371 633 l0 -551 l-284 0 l0 551 l284 0 ZM887 667 l-58 -266 l84 0 l0 -349 l-327 0 l-24 45 l233 0 l0 260 l-377 0 l43 223 l115 0 l-35 -179 l170 0 l58 266 l118 0 ZM201 589 l0 -463 l56 0 l0 498 l-28 -35 l-28 0 ZM417 622 l0 45 l351 0 l-34 -45 l-317 0 ZM774 252 l-26 -45 l-317 0 l0 45 l343 0 ZM769 667 l-1 0 l1 1 l0 -1 Z" /><glyph glyph-name="uni541D" unicode="&#x541d;" d="M140 298 l721 0 l0 -243 l-721 0 l0 243 ZM636 439 l292 -121 l-257 0 l-168 70 l-180 -70 l-262 -5 l311 129 l-267 110 l261 0 l136 -57 l174 72 l-615 0 l0 45 l378 0 l0 53 l123 0 l0 -53 l376 0 l-26 -45 l-23 0 l0 -30 l-253 -98 ZM737 298 l-27 -48 l-446 0 l0 -151 l473 0 l0 199 Z" /><glyph glyph-name="uni541E" unicode="&#x541e;" d="M860 491 l-115 0 l134 -122 l-137 0 l-151 122 l-102 0 l-214 -122 l-154 0 l207 122 l-219 0 l0 44 l294 0 l0 72 l-276 -7 l0 44 l746 19 l0 -44 l-337 -9 l0 -75 l354 0 l-30 -44 ZM879 58 l-758 0 l0 279 l758 0 l0 -279 ZM743 328 l-26 -35 l-460 0 l0 -191 l486 0 l0 226 Z" /><glyph glyph-name="uni5426" unicode="&#x5426;" d="M61 361 l311 263 l-280 0 l0 44 l826 0 l-25 -44 l-371 0 l-67 -57 l107 0 l0 -226 l-114 0 l0 220 l-237 -200 l-150 0 ZM726 567 l213 -206 l-140 0 l-213 206 l140 0 ZM125 314 l750 0 l0 -261 l-750 0 l0 261 ZM241 100 l520 0 l0 205 l-30 -35 l-490 0 l0 -170 Z" /><glyph glyph-name="uni5427" unicode="&#x5427;" d="M216 576 l-23 0 l0 -458 l54 0 l0 507 l113 0 l0 -554 l-281 0 l0 554 l163 0 l-26 -49 ZM921 102 l-19 -45 l-511 0 l0 607 l400 0 l-24 -46 l-63 0 l0 -240 l87 0 l0 286 l112 0 l0 -333 l-398 0 l0 -229 l416 0 ZM505 378 l86 0 l0 240 l-86 0 l0 -240 Z" /><glyph glyph-name="uni542B" unicode="&#x542b;" d="M193 454 l-120 0 l71 199 l712 0 l71 -174 l-107 0 l-56 -124 l-119 0 l41 95 l-455 0 l15 48 l216 0 l-31 57 l111 0 l30 -57 l226 0 l-45 109 l-505 0 l-55 -153 ZM872 67 l-734 0 l0 260 l622 0 l-27 -47 l-479 0 l0 -164 l507 0 l0 211 l111 0 l0 -260 Z" /><glyph glyph-name="uni542C" unicode="&#x542c;" d="M357 75 l-279 0 l0 566 l279 0 l0 -566 ZM921 668 l-26 -48 l-336 0 l0 -144 l362 0 l-26 -48 l-111 0 l0 -376 l-114 0 l0 376 l-111 0 l0 -146 l-70 -228 l-116 0 l70 228 l0 386 l478 0 ZM193 119 l51 0 l0 512 l-28 -35 l-23 0 l0 -477 Z" /><glyph glyph-name="uni542F" unicode="&#x542f;" d="M228 56 l-115 0 l24 181 l0 386 l334 0 l0 42 l121 0 l0 -42 l295 0 l0 -218 l-634 0 l0 -168 l-25 -181 ZM327 344 l560 0 l0 -288 l-560 0 l0 288 ZM439 298 l0 -196 l338 0 l0 230 l-37 -34 l-301 0 ZM771 454 l0 157 l-28 -35 l-490 0 l0 -122 l518 0 Z" /><glyph glyph-name="uni5435" unicode="&#x5435;" d="M227 582 l-48 0 l0 -437 l69 0 l0 481 l112 0 l0 -525 l-293 0 l0 525 l181 0 l-21 -44 ZM716 304 l-112 0 l0 364 l112 0 l0 -364 ZM882 192 l-490 -139 l0 81 l490 139 l0 -81 ZM499 304 l-112 0 l64 302 l112 0 l-64 -302 ZM757 606 l112 0 l64 -302 l-112 0 l-64 302 Z" /><glyph glyph-name="uni5438" unicode="&#x5438;" d="M937 620 l-156 -155 l154 0 l0 -47 l-147 -209 l147 -156 l-138 0 l-69 71 l-50 -71 l-143 0 l109 158 l-108 113 l-36 -271 l-124 0 l72 567 l-60 0 l0 47 l549 0 l0 -47 ZM623 418 l0 47 l152 155 l-200 0 l-37 -282 l127 0 l39 -41 l84 121 l-165 0 ZM63 646 l282 0 l0 -569 l-282 0 l0 569 ZM177 121 l55 0 l0 513 l-30 -34 l-25 0 l0 -479 Z" /><glyph glyph-name="uni5439" unicode="&#x5439;" d="M80 645 l268 0 l0 -565 l-1 0 l0 -2 l-267 0 l0 567 ZM690 527 l-211 -474 l-114 0 l210 474 l115 0 ZM920 620 l0 -46 l-31 -108 l-114 0 l31 108 l-432 0 l64 94 l131 0 l-33 -48 l384 0 ZM780 342 l129 -289 l-114 0 l-129 289 l114 0 ZM234 645 l-24 -46 l-16 0 l0 -475 l40 0 l0 521 Z" /><glyph glyph-name="uni543E" unicode="&#x543e;" d="M121 308 l749 0 l0 -250 l-749 0 l0 250 ZM905 410 l-26 -48 l-784 0 l0 48 l143 0 l17 82 l-130 0 l0 47 l140 0 l16 77 l-171 0 l0 47 l775 0 l-26 -47 l-454 0 l-16 -77 l456 0 l0 -129 l60 0 ZM240 102 l513 0 l0 194 l-30 -34 l-483 0 l0 -160 ZM726 492 l-347 0 l-17 -82 l364 0 l0 82 Z" /><glyph glyph-name="uni5440" unicode="&#x5440;" d="M835 396 l103 0 l-28 -46 l-75 0 l0 -296 l-135 0 l-30 46 l49 0 l0 250 l-81 0 l-163 -296 l-131 0 l162 296 l-157 0 l63 270 l-53 0 l0 46 l569 0 l-28 -46 l-65 0 l0 -224 ZM61 635 l268 0 l0 -560 l-268 0 l0 560 ZM719 396 l0 224 l-181 0 l-52 -224 l233 0 ZM170 119 l50 0 l0 507 l-28 -35 l-22 0 l0 -472 Z" /><glyph glyph-name="uni5446" unicode="&#x5446;" d="M866 402 l-732 0 l0 266 l618 0 l-25 -46 l-479 0 l0 -175 l504 0 l0 221 l114 0 l0 -266 ZM565 304 l0 -251 l-114 0 l0 251 l-86 0 l-155 -251 l-131 0 l155 251 l-127 0 l0 46 l344 0 l0 34 l114 0 l0 -34 l327 0 l-25 -46 l-302 0 ZM921 53 l-132 0 l-130 205 l132 0 l130 -205 Z" /><glyph glyph-name="uni5448" unicode="&#x5448;" d="M844 223 l-284 0 l0 -121 l359 0 l-21 -44 l-817 0 l0 44 l359 0 l0 121 l-305 0 l0 44 l305 0 l0 94 l-320 0 l0 44 l761 0 l-21 -44 l-300 0 l0 -94 l305 0 l-21 -44 ZM723 618 l-467 0 l0 -132 l488 0 l0 176 l119 0 l0 -220 l-726 0 l0 220 l607 0 l-21 -44 Z" /><glyph glyph-name="uni544A" unicode="&#x544a;" d="M122 320 l749 0 l0 -266 l-749 0 l0 266 ZM238 106 l516 0 l0 195 l-30 -30 l-486 0 l0 -165 ZM917 412 l-26 -47 l-808 0 l0 47 l389 0 l0 120 l-236 0 l-31 -85 l-117 0 l69 205 l118 0 l-24 -73 l221 0 l0 87 l114 0 l0 -87 l298 0 l-26 -47 l-272 0 l0 -120 l331 0 Z" /><glyph glyph-name="uni5457" unicode="&#x5457;" d="M400 53 l86 171 l-86 0 l0 443 l508 0 l0 -443 l-86 0 l86 -171 l-121 0 l-133 265 l-133 -265 l-121 0 ZM92 638 l268 0 l0 -559 l-268 0 l0 559 ZM514 281 l113 227 l121 0 l-71 -142 l74 0 l43 -86 l0 379 l-29 -39 l-251 0 l0 -339 ZM200 122 l51 0 l0 507 l-28 -35 l-23 0 l0 -472 Z" /><glyph glyph-name="uni5462" unicode="&#x5462;" d="M76 644 l305 0 l0 -482 l-305 0 l0 482 ZM534 622 l0 -129 l248 0 l0 175 l117 0 l0 -219 l-368 0 l0 -163 l-31 -233 l-121 0 l36 233 l0 382 l367 0 l-40 -46 l-208 0 ZM671 283 l218 67 l0 -61 l-218 -68 l0 -122 l253 0 l-27 -46 l-345 0 l0 371 l119 0 l0 -141 ZM188 599 l0 -392 l83 0 l0 437 l-34 -45 l-49 0 Z" /><glyph glyph-name="uni5466" unicode="&#x5466;" d="M746 106 l66 0 l0 491 l-20 -32 l-25 0 l-35 -507 l-103 0 l0 1 l-88 0 l-5 19 l-15 -20 l-200 0 l0 48 l120 218 l-124 0 l0 47 l143 282 l111 0 l-142 -282 l38 0 l59 108 l111 0 l-205 -373 l96 0 l-22 81 l96 0 l28 -105 l33 483 l-34 0 l0 47 l37 0 l4 50 l104 0 l-4 -50 l147 0 l0 -554 l-146 0 l-25 48 ZM307 88 l-225 0 l0 556 l225 0 l0 -556 ZM197 597 l-15 0 l0 -461 l25 0 l0 477 l-10 -16 Z" /><glyph glyph-name="uni5468" unicode="&#x5468;" d="M674 63 l-26 46 l131 0 l0 542 l-22 -39 l-499 0 l0 -372 l-37 -177 l-114 0 l38 177 l0 418 l748 0 l0 -595 l-219 0 ZM713 145 l-398 0 l0 188 l284 0 l-26 -48 l-144 0 l0 -92 l170 0 l0 140 l114 0 l0 -188 ZM457 417 l0 63 l-157 0 l0 44 l157 0 l0 69 l114 0 l0 -69 l171 0 l-24 -44 l-147 0 l0 -63 l192 0 l-24 -43 l-460 0 l0 43 l178 0 Z" /><glyph glyph-name="uni5473" unicode="&#x5473;" d="M71 614 l287 0 l0 -524 l-287 0 l0 524 ZM180 134 l71 0 l0 468 l-30 -33 l-41 0 l0 -435 ZM902 387 l-184 0 l0 -333 l-114 0 l0 333 l-221 0 l0 47 l221 0 l0 110 l-193 0 l0 47 l193 0 l0 75 l114 0 l0 -75 l183 0 l-26 -47 l-157 0 l0 -110 l210 0 l-26 -47 ZM869 343 l47 -251 l-113 0 l-51 251 l117 0 ZM460 343 l118 0 l-72 -251 l-113 0 l67 251 Z" /><glyph glyph-name="uni547C" unicode="&#x547c;" d="M837 364 l104 0 l-26 -67 l-227 0 l0 -241 l-254 0 l-26 53 l142 0 l0 188 l-236 0 l0 67 l105 0 l-69 176 l121 0 l69 -176 l10 0 l0 229 l-212 -5 l0 62 l589 14 l-26 -62 l-213 -5 l0 -233 l23 0 l68 186 l126 0 l-68 -186 ZM59 652 l234 0 l0 -587 l-234 0 l0 587 ZM146 114 l60 0 l0 522 l-25 -35 l-35 0 l0 -487 Z" /><glyph glyph-name="uni547D" unicode="&#x547d;" d="M126 396 l351 0 l0 -343 l-351 0 l0 343 ZM582 668 l304 -179 l-142 0 l-244 144 l-244 -144 l-142 0 l304 179 l164 0 ZM650 348 l0 -295 l-115 0 l0 343 l223 0 l-26 -48 l-82 0 ZM114 469 l772 0 l-25 -48 l-747 0 l0 48 ZM759 396 l114 0 l0 -294 l-1 0 l0 -13 l-125 0 l-25 47 l37 0 l0 260 ZM363 396 l-26 -48 l-97 0 l0 -251 l123 0 l0 299 Z" /><glyph glyph-name="uni548B" unicode="&#x548b;" d="M897 551 l-279 0 l0 -146 l303 0 l-24 -44 l-279 0 l0 -140 l303 0 l-24 -43 l-279 0 l0 -123 l-115 0 l0 449 l-17 -25 l-118 0 l0 -425 l-289 0 l0 581 l185 0 l-1 -1 l105 0 l0 -154 l124 187 l121 0 l-49 -72 l357 0 l-24 -44 ZM193 589 l0 -492 l62 0 l0 527 l-28 -35 l-34 0 Z" /><glyph glyph-name="uni548C" unicode="&#x548c;" d="M547 659 l392 0 l0 -603 l-392 5 l0 598 ZM61 54 l58 403 l-48 0 l0 67 l157 0 l0 72 l-157 -7 l0 58 l457 19 l-28 -58 l-158 -7 l0 -77 l181 0 l-28 -67 l-63 0 l76 -315 l-111 0 l-55 230 l0 -316 l-114 0 l0 401 l-3 0 l-58 -403 l-106 0 ZM826 129 l0 522 l-33 -64 l-138 0 l0 -458 l171 0 Z" /><glyph glyph-name="uni5490" unicode="&#x5490;" d="M511 508 l0 -455 l-112 0 l0 399 l-59 0 l0 -375 l-279 0 l0 567 l279 0 l0 -155 l87 179 l123 0 l-79 -160 l40 0 ZM914 526 l-34 0 l0 -473 l-231 0 l-27 47 l142 0 l0 426 l-228 0 l0 44 l228 0 l0 98 l116 0 l0 -98 l59 0 l-25 -44 ZM606 202 l-37 240 l108 0 l36 -240 l-107 0 ZM177 121 l51 0 l0 512 l-28 -35 l-23 0 l0 -477 Z" /><glyph glyph-name="uni5494" unicode="&#x5494;" d="M585 469 l333 0 l-35 -47 l-298 0 l0 -25 l108 0 l190 -301 l-121 0 l-177 281 l0 -324 l-114 0 l0 369 l-86 0 l0 47 l86 0 l0 199 l114 0 l0 -69 l298 0 l-35 -47 l-263 0 l0 -83 ZM81 638 l268 0 l0 -559 l-268 0 l0 559 ZM190 122 l51 0 l0 507 l-29 -35 l-22 0 l0 -472 Z" /><glyph glyph-name="uni549A" unicode="&#x549a;" d="M382 82 l-305 0 l0 556 l305 0 l0 -556 ZM489 193 l145 0 l-105 82 l-143 0 l165 144 l-133 100 l170 0 l42 -31 l105 92 l-189 0 l-17 -32 l-124 0 l63 120 l124 0 l-21 -40 l334 0 l0 -47 l-180 -163 l197 -143 l-180 0 l-96 72 l-38 -34 l29 0 l181 -141 l-145 0 l154 -120 l-157 0 l-181 141 ZM249 591 l-58 0 l0 -461 l77 0 l0 495 l-19 -34 Z" /><glyph glyph-name="uni54AC" unicode="&#x54ac;" d="M202 576 l-23 0 l0 -458 l54 0 l0 507 l113 0 l0 -554 l-281 0 l0 554 l163 0 l-26 -49 ZM821 353 l-1 1 l-101 -99 l200 -197 l-140 0 l-130 127 l-130 -127 l-140 0 l199 197 l-107 105 l-4 -7 l-114 0 l123 183 l112 0 l-100 -151 l100 0 l61 -61 l61 61 l91 0 l-91 151 l113 0 l112 -183 l-114 0 ZM925 605 l-26 -45 l-500 0 l0 45 l193 0 l0 58 l114 0 l0 -58 l219 0 Z" /><glyph glyph-name="uni54AF" unicode="&#x54af;" d="M71 617 l270 0 l0 -564 l-270 0 l0 564 ZM381 311 l547 0 l0 -258 l-547 0 l0 258 ZM928 533 l-167 -62 l167 -71 l0 -69 l-260 106 l-287 -106 l0 69 l191 75 l-78 32 l-9 -22 l-118 0 l70 182 l120 0 l-12 -30 l383 0 l0 -104 ZM814 311 l-30 -43 l-289 0 l0 -171 l319 0 l0 214 ZM227 617 l-30 -44 l-12 0 l0 -476 l42 0 l0 520 ZM664 512 l149 58 l0 23 l-285 0 l-8 -20 l144 -61 Z" /><glyph glyph-name="uni54BD" unicode="&#x54bd;" d="M917 63 l-514 0 l1 549 l0 46 l396 0 l-27 -46 l-258 0 l0 -119 l75 0 l14 48 l106 0 l-14 -48 l106 0 l0 164 l115 0 l0 -594 ZM220 582 l-23 0 l0 -458 l54 0 l0 507 l113 0 l0 -555 l-281 0 l0 555 l163 0 l-26 -49 ZM721 183 l-64 177 l-52 -177 l-90 0 l0 -75 l287 0 l0 75 l-81 0 ZM755 382 l47 -130 l0 196 l-120 0 l-19 -66 l92 0 ZM515 448 l0 -211 l61 211 l-61 0 Z" /><glyph glyph-name="uni54C0" unicode="&#x54c0;" d="M557 619 l360 0 l-26 -45 l-809 0 l0 45 l363 0 l0 53 l112 0 l0 -53 ZM277 493 l0 -114 l419 0 l0 160 l110 0 l0 -204 l-145 0 l35 -51 l159 60 l0 -67 l-121 -43 l127 -171 l-132 0 l-200 272 l-110 0 l0 -40 l-90 -40 l0 -95 l179 72 l0 -67 l-291 -117 l0 157 l-135 -61 l0 70 l268 121 l-188 0 l0 204 l534 0 l-30 -46 l-389 0 Z" /><glyph glyph-name="uni54C1" unicode="&#x54c1;" d="M801 395 l-602 0 l0 273 l602 0 l0 -273 ZM686 656 l-28 -31 l-345 0 l0 -185 l373 0 l0 216 ZM938 370 l0 -317 l-421 0 l0 317 l421 0 ZM826 359 l-30 -35 l-167 0 l0 -227 l197 0 l0 262 ZM61 370 l421 0 l0 -317 l-421 0 l0 317 ZM177 97 l193 0 l0 262 l-30 -35 l-163 0 l0 -227 Z" /><glyph glyph-name="uni54C4" unicode="&#x54c4;" d="M851 357 l90 0 l-29 -57 l-586 0 l0 57 l62 0 l0 210 l-47 0 l0 62 l47 0 l0 31 l127 0 l0 -31 l209 0 l0 31 l127 0 l0 -31 l65 0 l-29 -62 l-36 0 l0 -210 ZM515 357 l209 0 l0 210 l-209 0 l0 -210 ZM555 254 l-93 -194 l-126 0 l93 194 l126 0 ZM919 60 l-127 0 l-88 188 l127 0 l88 -188 ZM308 61 l-249 0 l0 591 l249 0 l0 -591 ZM221 637 l-26 -35 l-49 0 l0 -493 l75 0 l0 528 Z" /><glyph glyph-name="uni54C7" unicode="&#x54c7;" d="M351 72 l-279 0 l0 549 l279 0 l0 -549 ZM239 611 l-28 -35 l-23 0 l0 -460 l51 0 l0 495 ZM889 389 l-506 0 l0 45 l211 0 l0 97 l-202 0 l0 45 l202 0 l0 90 l114 0 l0 -90 l202 0 l-30 -45 l-172 0 l0 -97 l210 0 l-29 -45 ZM708 100 l219 0 l-30 -45 l-522 0 l0 45 l219 0 l0 149 l-202 0 l0 45 l202 0 l0 63 l114 0 l0 -63 l202 0 l-30 -45 l-172 0 l0 -149 Z" /><glyph glyph-name="uni54C8" unicode="&#x54c8;" d="M55 642 l279 0 l0 -576 l-279 0 l0 576 ZM498 350 l0 -238 l296 0 l0 281 l106 0 l0 -330 l-512 0 l0 335 l405 0 l-26 -48 l-269 0 ZM873 657 l71 -228 l-120 0 l-57 183 l-245 0 l-42 -136 l315 0 l-26 -47 l-425 0 l71 228 l458 0 ZM166 115 l61 0 l0 512 l-33 -35 l-28 0 l0 -477 Z" /><glyph glyph-name="uni54CD" unicode="&#x54cd;" d="M685 668 l-59 -101 l312 0 l0 -514 l-214 0 l-29 43 l134 0 l0 464 l-33 -37 l-323 0 l0 -470 l-109 0 l0 514 l141 0 l59 101 l121 0 ZM332 159 l-271 0 l0 438 l162 0 l0 2 l109 0 l0 -440 ZM798 429 l0 -247 l-293 0 l0 247 l293 0 ZM170 203 l53 0 l0 389 l-34 -38 l-19 0 l0 -351 ZM688 226 l0 196 l-33 -37 l-41 0 l0 -159 l74 0 Z" /><glyph glyph-name="uni54CE" unicode="&#x54ce;" d="M812 616 l107 0 l-26 -47 l-81 0 l0 -53 l-112 0 l0 53 l-126 0 l0 -53 l-112 0 l0 53 l-86 0 l0 47 l86 0 l0 49 l112 0 l0 -49 l126 0 l0 49 l112 0 l0 -49 ZM893 56 l-133 0 l-130 156 l-132 -156 l-131 0 l196 235 l-161 195 l130 0 l98 -116 l96 116 l132 0 l-163 -195 l198 -235 ZM360 69 l-279 0 l0 566 l279 0 l0 -566 ZM197 112 l50 0 l0 513 l-28 -35 l-22 0 l0 -478 Z" /><glyph glyph-name="uni54D2" unicode="&#x54d2;" d="M74 640 l201 0 l0 -549 l-201 0 l0 549 ZM160 133 l29 0 l0 491 l-19 -24 l-10 0 l0 -467 ZM722 522 l-6 -20 l91 0 l118 -372 l-122 0 l-102 325 l-100 -325 l-121 0 l121 392 l-103 0 l0 47 l118 0 l30 99 l121 0 l-30 -99 l188 0 l-34 -47 l-169 0 ZM362 535 l-52 133 l121 0 l54 -133 l-123 0 ZM462 99 l463 0 l-34 -46 l-395 0 l-37 41 l-30 -41 l-133 0 l0 46 l50 0 l0 363 l-50 0 l0 46 l166 0 l0 -409 Z" /><glyph glyph-name="uni54DF" unicode="&#x54df;" d="M316 107 l-220 0 l0 528 l220 0 l0 -528 ZM532 506 l49 162 l111 0 l-17 -52 l228 0 l0 -563 l-215 0 l-30 45 l130 0 l0 472 l-127 0 l-20 -64 l-109 0 ZM531 216 l-199 -26 l81 236 l-81 0 l83 242 l121 0 l-69 -195 l84 0 l-79 -221 l59 8 l0 -44 ZM653 216 l-61 212 l111 0 l59 -212 l-109 0 ZM185 160 l37 0 l0 423 l-37 0 l0 -423 ZM534 92 l-197 -40 l0 44 l197 40 l0 -44 Z" /><glyph glyph-name="uni54E5" unicode="&#x54e5;" d="M744 621 l-657 0 l0 47 l835 0 l-26 -47 l-38 0 l0 -217 l-114 0 l0 217 ZM704 424 l-587 0 l0 156 l587 0 l0 -156 ZM223 466 l377 0 l0 105 l-30 -30 l-347 0 l0 -75 ZM704 127 l-587 0 l0 167 l587 0 l0 -167 ZM600 285 l-30 -30 l-347 0 l0 -85 l377 0 l0 115 ZM77 377 l845 0 l-26 -47 l-30 0 l0 -277 l-451 0 l-25 46 l359 0 l0 231 l-672 0 l0 47 Z" /><glyph glyph-name="uni54E6" unicode="&#x54e6;" d="M806 515 l128 0 l0 -43 l-123 0 l18 -159 l105 32 l0 -44 l-101 -30 l20 -174 l69 0 l-26 -44 l-152 0 l-21 185 l-86 -26 l0 44 l81 24 l-21 192 l-137 0 l0 -123 l72 21 l0 -43 l-72 -22 l0 -252 l-144 0 l-18 44 l48 0 l0 174 l-81 -24 l0 44 l81 24 l0 157 l-81 0 l0 43 l81 0 l0 109 l-54 0 l0 44 l253 0 l-26 -44 l-59 0 l0 -109 l132 0 l-17 153 l114 0 l17 -153 ZM66 668 l279 0 l0 -615 l-279 0 l0 615 ZM231 668 l-26 -44 l-25 0 l0 -527 l51 0 l0 571 ZM934 533 l-114 0 l0 135 l114 0 l0 -135 Z" /><glyph glyph-name="uni54E9" unicode="&#x54e9;" d="M888 54 l-495 0 l0 48 l201 0 l0 103 l-184 0 l0 48 l184 0 l0 70 l-180 0 l0 344 l114 0 l0 -1 l246 0 l-27 -47 l-39 0 l0 -100 l66 0 l0 148 l114 0 l0 -344 l-180 0 l0 -70 l178 0 l-16 -48 l-162 0 l0 -103 l196 0 l-16 -48 ZM233 588 l-23 0 l0 -458 l55 0 l0 507 l112 0 l0 -554 l-281 0 l0 554 l164 0 l-27 -49 ZM528 370 l66 0 l0 101 l-66 0 l0 -101 ZM708 370 l66 0 l0 101 l-66 0 l0 -101 ZM528 519 l66 0 l0 100 l-66 0 l0 -100 Z" /><glyph glyph-name="uni54EA" unicode="&#x54ea;" d="M475 507 l-30 0 l0 -80 l56 0 l-26 -48 l-30 0 l0 -73 l56 0 l-26 -48 l-37 0 l-31 -192 l-96 0 l30 192 l-28 0 l0 48 l35 0 l0 73 l-28 0 l0 48 l28 0 l0 80 l-35 0 l0 47 l35 0 l0 67 l-47 0 l0 47 l346 0 l-30 -47 l-12 0 l0 -568 l-144 0 l-21 44 l63 0 l0 524 l-58 0 l0 -67 l56 0 l-26 -47 ZM868 425 l30 0 l0 -372 l-124 63 l0 55 l28 -14 l0 220 l-34 0 l48 246 l-69 0 l0 -570 l-93 0 l0 615 l264 0 l-50 -243 ZM167 132 l30 0 l0 507 l86 0 l0 -549 l-202 0 l0 549 l116 0 l-26 -41 l-4 0 l0 -466 Z" /><glyph glyph-name="uni5507" unicode="&#x5507;" d="M732 463 l45 -50 l30 33 l114 0 l-76 -84 l-22 0 l80 -89 l-114 0 l-171 190 l-208 0 l0 -144 l178 52 l0 -45 l-178 -52 l0 -1 l-114 0 l0 190 l-42 0 l0 -204 l-62 -207 l-114 0 l62 207 l0 410 l781 0 l-25 -46 l-642 0 l0 -114 l667 0 l-25 -46 l-164 0 ZM279 259 l599 0 l0 -205 l-599 0 l0 205 ZM764 259 l-25 -46 l-346 0 l0 -113 l371 0 l0 159 ZM279 543 l0 46 l610 0 l-25 -46 l-585 0 Z" /><glyph glyph-name="uni5509" unicode="&#x5509;" d="M527 546 l233 0 l-33 61 l124 0 l60 -109 l-126 0 l-25 44 l-25 -44 l-363 0 l102 167 l126 0 l-73 -119 ZM337 69 l-268 0 l0 559 l268 0 l0 -559 ZM177 112 l51 0 l0 507 l-28 -35 l-23 0 l0 -472 ZM514 284 l74 106 l-79 0 l-35 -60 l-125 0 l85 146 l124 0 l-23 -41 l369 0 l-25 -45 l-159 0 l-74 -106 l284 0 l-26 -49 l-290 0 l-129 -179 l-130 0 l128 179 l-118 0 l0 49 l149 0 ZM677 198 l130 0 l113 -142 l-130 0 l-113 142 Z" /><glyph glyph-name="uni552F" unicode="&#x552f;" d="M350 93 l-287 0 l0 544 l287 0 l0 -178 l80 206 l124 0 l-40 -105 l154 0 l-20 100 l117 0 l21 -100 l150 0 l-26 -47 l-133 0 l0 -96 l139 0 l-26 -48 l-113 0 l0 -96 l139 0 l-26 -47 l-113 0 l0 -96 l159 0 l-26 -47 l-417 0 l0 -28 l-111 0 l0 314 l-32 0 l0 -276 ZM663 226 l-170 0 l0 -96 l170 0 l0 96 ZM663 369 l-170 0 l0 -96 l170 0 l0 96 ZM460 417 l203 0 l0 96 l-167 0 l-36 -96 ZM242 625 l-29 -33 l-41 0 l0 -455 l70 0 l0 488 Z" /><glyph glyph-name="uni5546" unicode="&#x5546;" d="M757 453 l-26 -45 l-494 0 l0 -359 l-114 0 l0 404 l157 0 l-47 88 l123 0 l48 -88 l190 0 l49 88 l123 0 l-48 -88 l39 0 ZM707 387 l49 -128 l-72 0 l0 -135 l-375 0 l0 135 l-67 0 l49 128 l116 0 l-30 -74 l200 0 l-27 -50 l-132 0 l0 -92 l159 0 l0 142 l44 0 l-29 74 l115 0 ZM712 53 l-24 45 l70 0 l0 355 l118 0 l0 -400 l-164 0 ZM911 598 l-26 -46 l-797 0 l0 46 l349 0 l0 74 l124 0 l0 -74 l350 0 Z" /><glyph glyph-name="uni554A" unicode="&#x554a;" d="M280 85 l-202 0 l0 550 l202 0 l0 -550 ZM164 128 l30 0 l0 491 l-20 -25 l-10 0 l0 -466 ZM922 664 l-30 -47 l-12 0 l0 -560 l-144 0 l-21 44 l63 0 l0 516 l-228 0 l0 40 l-49 -238 l29 0 l0 -342 l-124 63 l0 54 l28 -14 l0 191 l-33 0 l47 246 l-51 0 l0 -560 l-93 0 l0 606 l246 0 l0 1 l372 0 ZM755 575 l0 -428 l-202 0 l0 428 l202 0 ZM641 529 l0 -338 l28 0 l0 368 l-19 -30 l-9 0 Z" /><glyph glyph-name="uni5565" unicode="&#x5565;" d="M215 577 l-23 0 l0 -458 l54 0 l0 507 l112 0 l0 -554 l-280 0 l0 554 l163 0 l-26 -49 ZM893 368 l-26 -46 l-172 0 l0 -51 l75 0 l-27 -50 l-236 0 l0 -112 l263 0 l0 162 l112 0 l0 -209 l-489 0 l0 209 l188 0 l0 51 l-192 0 l0 46 l192 0 l0 46 l-172 0 l0 45 l464 0 l-26 -45 l-152 0 l0 -46 l198 0 ZM570 659 l136 0 l-54 -46 l116 0 l154 -129 l-131 0 l-146 123 l-142 -123 l-136 0 l203 175 Z" /><glyph glyph-name="uni5566" unicode="&#x5566;" d="M327 75 l-266 0 l0 560 l266 0 l0 -560 ZM507 559 l63 0 l-21 -47 l-42 0 l0 -181 l59 18 l0 -49 l-59 -20 l0 -219 l-142 0 l-23 44 l68 0 l0 144 l-72 -20 l0 51 l72 21 l0 211 l-68 0 l0 47 l68 0 l0 107 l97 0 l0 -107 ZM773 130 l59 381 l101 0 l-59 -381 l-101 0 ZM646 130 l-58 381 l100 0 l59 -381 l-101 0 ZM170 119 l49 0 l0 507 l-28 -35 l-21 0 l0 -472 ZM924 539 l-342 0 l0 47 l121 0 l0 60 l114 0 l0 -60 l121 0 l-14 -47 ZM938 102 l-14 -47 l-342 0 l0 47 l356 0 Z" /><glyph glyph-name="uni556A" unicode="&#x556a;" d="M328 53 l-267 0 l0 615 l153 0 l-26 -44 l-13 0 l0 -527 l39 0 l0 571 l114 0 l0 -316 l72 22 l0 197 l-68 0 l0 47 l68 0 l0 41 l113 0 l0 -41 l65 0 l-22 -47 l-43 0 l0 -167 l57 17 l0 -49 l-57 -21 l0 -298 l-160 0 l-21 44 l68 0 l0 226 l-72 -22 l0 -248 ZM744 624 l195 0 l0 -571 l-349 0 l0 571 l40 0 l20 44 l114 0 l-20 -44 ZM825 97 l0 237 l-121 0 l0 -237 l121 0 ZM825 624 l-26 -44 l-95 0 l0 -202 l121 0 l0 246 Z" /><glyph glyph-name="uni556C" unicode="&#x556c;" d="M133 360 l732 0 l0 -305 l-732 0 l0 305 ZM561 545 l0 -107 l102 0 l40 88 l127 0 l-40 -88 l148 0 l-35 -47 l-842 0 l0 47 l158 0 l-40 88 l128 0 l39 -88 l92 0 l0 107 l-377 0 l0 48 l377 0 l0 73 l123 0 l0 -73 l377 0 l-35 -48 l-342 0 ZM753 360 l-21 -47 l-486 0 l0 -211 l507 0 l0 258 ZM291 299 l417 0 l0 -183 l-417 0 l0 183 ZM595 299 l-21 -48 l-171 0 l0 -87 l192 0 l0 135 Z" /><glyph glyph-name="uni5587" unicode="&#x5587;" d="M679 313 l-123 0 l0 -1 l92 0 l33 -245 l-92 0 l-33 245 l0 -259 l-99 0 l0 260 l-123 0 l0 229 l123 0 l0 23 l-123 0 l0 47 l123 0 l0 55 l99 0 l0 -55 l128 0 l-14 -47 l-114 0 l0 -23 l26 0 l-20 -47 l-6 0 l0 -135 l26 0 l0 182 l97 0 l0 -229 ZM309 623 l0 -553 l-213 0 l0 553 l128 0 l-26 -48 l-15 0 l0 -456 l41 0 l0 504 l85 0 ZM903 667 l0 -614 l-159 0 l-22 46 l87 0 l0 568 l94 0 ZM788 180 l-89 0 l0 386 l89 0 l0 -386 ZM332 67 l33 245 l92 0 l-32 -245 l-93 0 ZM431 360 l26 0 l0 135 l-26 0 l0 -135 Z" /><glyph glyph-name="uni558A" unicode="&#x558a;" d="M738 173 l-40 -8 l0 47 l37 7 l-26 361 l-288 0 l0 -527 l-93 0 l0 575 l378 0 l-3 39 l93 0 l3 -39 l31 0 l-2 29 l82 0 l3 -77 l-110 0 l27 -343 l58 11 l0 -46 l-54 -11 l7 -88 l83 0 l-25 -48 l-152 0 l-9 118 ZM76 632 l223 0 l0 -572 l-223 0 l0 572 ZM529 381 l0 -273 l73 0 l0 320 l83 0 l0 -374 l-239 0 l0 374 l155 0 l-22 -47 l-50 0 ZM166 109 l45 0 l0 507 l-25 -35 l-20 0 l0 -472 ZM711 528 l-36 -47 l-233 0 l0 47 l269 0 Z" /><glyph glyph-name="uni558F" unicode="&#x558f;" d="M389 83 l-305 0 l0 556 l305 0 l0 -556 ZM898 53 l-424 0 l0 191 l-81 0 l83 165 l-70 0 l0 47 l93 0 l24 47 l114 0 l-24 -47 l289 0 l-26 -47 l-287 0 l-30 -61 l339 0 l0 -295 ZM863 528 l-114 0 l0 46 l-169 0 l0 -46 l-114 0 l0 46 l-60 0 l0 47 l60 0 l0 47 l114 0 l0 -47 l169 0 l0 47 l114 0 l0 -47 l52 0 l-26 -47 l-26 0 l0 -46 ZM762 301 l-174 0 l0 -200 l196 0 l0 240 l-22 -40 ZM253 592 l-55 0 l0 -462 l77 0 l0 500 l-22 -38 Z" /><glyph glyph-name="uni5598" unicode="&#x5598;" d="M781 52 l0 44 l35 0 l0 260 l115 0 l0 -304 l-150 0 ZM810 525 l0 127 l114 0 l0 -171 l-533 0 l0 171 l114 0 l0 -127 l95 0 l0 143 l115 0 l0 -143 l95 0 ZM780 312 l0 -226 l-104 0 l0 226 l-37 0 l0 -226 l-104 0 l0 226 l-37 0 l0 -260 l-114 0 l0 304 l96 0 l27 48 l-123 0 l0 44 l552 0 l-21 -44 l-293 0 l-27 -48 l221 0 l-21 -44 l-15 0 ZM358 632 l0 -546 l-295 0 l0 546 l295 0 ZM243 632 l-21 -44 l-45 0 l0 -457 l66 0 l0 501 Z" /><glyph glyph-name="uni559C" unicode="&#x559c;" d="M882 248 l-797 0 l0 47 l160 0 l-25 53 l-65 0 l0 141 l568 0 l-31 -47 l-423 0 l0 -47 l454 0 l0 94 l114 0 l0 -141 l-58 0 l-18 -53 l152 0 l-31 -47 ZM155 223 l567 0 l-30 -47 l-423 0 l0 -77 l453 0 l0 124 l114 0 l0 -171 l-681 0 l0 171 ZM444 596 l-357 0 l0 47 l357 0 l0 25 l114 0 l0 -25 l357 0 l-31 -47 l-326 0 l0 -32 l311 0 l-30 -47 l-706 0 l0 47 l311 0 l0 32 ZM369 295 l271 0 l18 53 l-315 0 l26 -53 Z" /><glyph glyph-name="uni559D" unicode="&#x559d;" d="M920 369 l0 -310 l-215 0 l-25 46 l112 0 l0 221 l-341 0 l-1 -1 l-88 0 l37 80 l-31 0 l0 255 l547 0 l0 -255 l-427 0 l-17 -36 l449 0 ZM79 661 l254 0 l0 -586 l-254 0 l0 586 ZM478 613 l0 -54 l317 0 l-41 -47 l-276 0 l0 -58 l331 0 l0 199 l-22 -40 l-309 0 ZM175 119 l60 0 l0 532 l-28 -35 l-32 0 l0 -497 ZM463 143 l207 0 l-25 -46 l-275 0 l0 188 l93 0 l0 -142 ZM635 301 l-12 -25 l78 0 l59 -97 l-93 0 l-51 83 l-41 -83 l-93 0 l59 122 l94 0 Z" /><glyph glyph-name="uni55B3" unicode="&#x55b3;" d="M331 134 l0 254 l425 0 l-35 -44 l-276 0 l0 -46 l311 0 l0 90 l113 0 l0 -254 l-538 0 ZM266 71 l-201 0 l0 550 l201 0 l0 -550 ZM669 626 l264 0 l-26 -47 l-238 0 l0 -163 l-115 0 l0 163 l-58 0 l-78 -159 l-121 0 l78 159 l-85 0 l0 47 l264 0 l0 37 l115 0 l0 -37 ZM907 58 l-617 0 l0 47 l644 0 l-27 -47 ZM445 179 l311 0 l0 72 l-311 0 l0 -72 ZM774 420 l-52 128 l112 0 l54 -128 l-114 0 ZM151 114 l30 0 l0 491 l-20 -25 l-10 0 l0 -466 Z" /><glyph glyph-name="uni55EF" unicode="&#x55ef;" d="M353 662 l555 0 l0 -360 l-555 0 l0 360 ZM314 66 l-250 0 l0 560 l250 0 l0 -560 ZM505 282 l114 0 l0 -181 l188 0 l-35 -43 l-267 0 l0 224 ZM762 529 l-78 0 l0 -21 l-11 -16 l28 0 l96 -118 l0 276 l-36 -33 l-296 0 l0 -249 l105 157 l0 4 l-93 0 l0 48 l93 0 l0 27 l114 0 l0 -27 l105 0 l-27 -48 ZM798 263 l100 0 l38 -205 l-102 0 l-36 205 ZM428 58 l-102 0 l56 205 l100 0 l-54 -205 ZM172 110 l33 0 l0 507 l-28 -35 l-5 0 l0 -472 ZM656 282 l100 0 l21 -118 l-102 0 l-19 118 ZM678 361 l-50 60 l-38 -60 l-125 0 l0 -13 l332 0 l0 13 l-119 0 Z" /><glyph glyph-name="uni561B" unicode="&#x561b;" d="M897 580 l-484 0 l0 -365 l-38 -163 l-100 0 l4 18 l-212 0 l0 573 l129 0 l-26 -48 l-19 0 l0 -482 l45 0 l0 530 l84 0 l0 -568 l32 144 l0 407 l283 0 l0 42 l114 0 l0 -42 l223 0 l-35 -46 ZM899 395 l30 -289 l-66 0 l-24 226 l0 -278 l-86 0 l0 243 l-25 -191 l-68 0 l15 111 l-54 0 l-23 133 l0 -298 l-85 0 l0 262 l-29 -210 l-67 0 l46 338 l-23 0 l0 48 l73 0 l0 77 l85 0 l0 -77 l73 0 l-26 -48 l-47 0 l0 -47 l60 0 l23 -139 l26 188 l-29 0 l0 48 l75 0 l0 77 l86 0 l0 -77 l86 0 l-27 -48 l-59 0 l0 -49 l60 0 Z" /><glyph glyph-name="uni5631" unicode="&#x5631;" d="M760 454 l0 -18 l145 0 l0 -142 l-145 0 l0 -22 l176 0 l0 -216 l-111 0 l0 43 l-36 0 l-3 16 l-185 -16 l0 45 l41 4 l0 78 l-45 0 l0 -170 l-113 0 l0 216 l158 0 l0 22 l-154 0 l0 142 l154 0 l0 18 l-164 0 l0 45 l447 0 l-18 -45 l-147 0 ZM348 86 l-284 0 l0 542 l284 0 l0 -542 ZM475 617 l0 -51 l338 0 l0 98 l110 0 l0 -146 l-448 0 l0 -462 l-113 0 l0 608 l450 0 l-39 -47 l-298 0 ZM234 619 l-28 -35 l-28 0 l0 -454 l56 0 l0 489 ZM760 226 l0 -68 l18 2 l-7 42 l45 0 l9 -27 l0 84 l-38 -33 l-27 0 ZM642 391 l-41 0 l0 -51 l41 0 l0 51 ZM760 391 l0 -51 l33 0 l0 51 l-33 0 Z" /><glyph glyph-name="uni5634" unicode="&#x5634;" d="M670 530 l-21 -59 l-107 -29 l82 0 l-19 -29 l212 0 l0 -45 l-21 -23 l122 0 l0 -291 l-167 0 l-24 44 l87 0 l0 47 l-115 -6 l0 -76 l-97 0 l0 72 l-111 -5 l-23 -76 l-99 0 l39 127 l0 164 l99 0 l0 -89 l307 0 l0 84 l-36 -40 l-271 0 l0 45 l197 0 l23 22 l-234 0 l-1 46 l12 18 l-137 -37 l0 55 l10 2 l0 167 l87 0 l0 -143 l25 6 l0 183 l96 0 l0 -53 l96 0 l-17 -45 l-79 0 l0 -59 l85 23 ZM206 589 l-23 0 l0 -458 l55 0 l0 507 l112 0 l0 -554 l-281 0 l0 554 l164 0 l-27 -49 ZM777 607 l130 46 l-17 -65 l-113 -41 l0 -59 l153 0 l-23 -46 l-226 0 l0 225 l96 0 l0 -60 ZM814 173 l0 39 l-307 0 l-21 0 l0 -38 l19 1 l-1 -2 l98 0 l0 7 l97 5 l0 -12 l115 0 ZM814 256 l0 84 l-36 -40 l-79 0 l0 -44 l115 0 ZM507 256 l95 0 l0 44 l-95 0 l0 -44 ZM507 175 l95 5 l0 32 l-95 0 l0 -37 ZM699 212 l0 -27 l115 6 l0 21 l-115 0 ZM505 175 l2 0 l0 6 l-2 -6 Z" /><glyph glyph-name="uni5639" unicode="&#x5639;" d="M366 536 l101 0 l14 -17 l38 53 l-166 0 l0 48 l200 0 l34 47 l98 0 l-34 -47 l284 0 l-26 -48 l-158 0 l43 -60 l22 24 l101 0 l-54 -60 l-43 0 l115 -160 l-98 0 l-5 7 l0 -68 l-126 0 l0 -202 l-135 0 l-30 46 l49 0 l0 156 l-150 0 l0 69 l-6 -8 l-98 0 l114 160 l-30 0 l-54 60 ZM329 71 l-268 0 l0 559 l268 0 l0 -559 ZM169 115 l51 0 l0 507 l-28 -35 l-23 0 l0 -472 ZM830 53 l-64 169 l110 0 l62 -169 l-108 0 ZM358 53 l62 169 l110 0 l-64 -169 l-108 0 ZM554 451 l0 -54 l168 0 l0 80 l-2 2 l-25 -28 l-141 0 ZM554 351 l0 -51 l168 0 l0 51 l-168 0 ZM565 499 l141 0 l-52 73 l-37 0 l-52 -73 Z" /><glyph glyph-name="uni563B" unicode="&#x563b;" d="M69 642 l261 0 l0 -564 l-261 0 l0 564 ZM178 122 l45 0 l0 508 l-30 -34 l-15 0 l0 -474 ZM365 484 l541 0 l0 -141 l-541 0 l0 141 ZM479 387 l314 0 l0 85 l-29 -34 l-285 0 l0 -51 ZM375 202 l521 0 l0 -151 l-521 0 l0 151 ZM489 95 l295 0 l0 94 l-30 -33 l-265 0 l0 -61 ZM581 591 l-231 0 l0 47 l231 0 l0 32 l114 0 l0 -32 l236 0 l-26 -47 l-210 0 l0 -37 l197 0 l-27 -47 l-480 0 l0 47 l196 0 l0 37 ZM835 277 l96 0 l-26 -47 l-555 0 l0 47 l79 0 l-24 47 l115 0 l25 -47 l174 0 l25 47 l115 0 l-24 -47 Z" /><glyph glyph-name="uni563F" unicode="&#x563f;" d="M936 269 l-23 -53 l-594 0 l0 53 l241 0 l0 40 l-231 0 l0 52 l231 0 l0 32 l-236 0 l0 275 l492 0 l-24 -47 l-126 0 l0 -179 l151 0 l0 226 l103 0 l0 -275 l-254 0 l0 -32 l243 0 l-24 -52 l-219 0 l0 -40 l270 0 ZM286 66 l-223 0 l0 586 l223 0 l0 -586 ZM199 637 l-25 -35 l-25 0 l0 -488 l50 0 l0 523 ZM560 442 l0 40 l-54 0 l-56 97 l88 0 l22 -39 l0 81 l-128 0 l0 -179 l128 0 ZM684 53 l-51 137 l97 0 l51 -137 l-97 0 ZM591 190 l51 -137 l-94 0 l-53 137 l96 0 ZM302 53 l52 137 l94 0 l-51 -137 l-95 0 ZM820 53 l-52 137 l94 0 l52 -137 l-94 0 ZM726 579 l88 0 l-56 -97 l-87 0 l55 97 Z" /><glyph glyph-name="uni5668" unicode="&#x5668;" d="M880 361 l-162 0 l71 -85 l-131 0 l-73 85 l-171 0 l-71 -85 l-132 0 l70 85 l-187 0 l0 47 l226 0 l44 53 l133 0 l-44 -53 l258 0 l-44 53 l134 0 l42 -53 l63 0 l-26 -47 ZM522 252 l382 0 l0 -199 l-86 0 l0 15 l-208 0 l0 -15 l-88 0 l0 199 ZM96 252 l382 0 l0 -199 l-85 0 l0 15 l-209 0 l0 -15 l-88 0 l0 199 ZM104 668 l367 0 l0 -184 l-367 0 l0 184 ZM529 668 l367 0 l0 -184 l-367 0 l0 184 ZM393 252 l-27 -48 l-182 0 l0 -89 l209 0 l0 137 ZM818 252 l-26 -48 l-182 0 l0 -89 l208 0 l0 137 ZM811 668 l-27 -47 l-167 0 l0 -89 l194 0 l0 136 ZM385 668 l-26 -47 l-167 0 l0 -89 l193 0 l0 136 Z" /><glyph glyph-name="uni567C" unicode="&#x567c;" d="M632 363 l0 -307 l-191 0 l0 172 l-17 -172 l-104 0 l37 325 l0 275 l262 0 l0 -228 l-163 0 l0 -47 l-2 -18 l178 0 ZM315 81 l-268 0 l0 560 l268 0 l0 -560 ZM817 533 l114 0 l-37 -146 l37 0 l-28 -47 l-60 0 l0 -144 l84 0 l-26 -46 l-58 0 l0 -94 l-109 0 l0 94 l-86 0 l0 46 l86 0 l0 144 l-86 0 l0 47 l36 0 l-43 146 l109 0 l38 -132 l29 132 ZM155 125 l51 0 l0 507 l-28 -35 l-23 0 l0 -472 ZM740 664 l108 0 l0 -54 l104 0 l-25 -44 l-292 0 l0 44 l105 0 l0 54 ZM456 610 l0 -139 l74 0 l0 165 l-28 -26 l-46 0 ZM518 101 l26 0 l0 214 l-26 0 l0 -214 Z" /><glyph glyph-name="uni56B7" unicode="&#x56b7;" d="M911 409 l-42 -46 l-83 0 l0 -26 l87 0 l-35 -46 l-52 0 l0 -26 l125 0 l-42 -47 l-191 0 l64 -49 l32 32 l98 0 l-75 -75 l93 -72 l-117 0 l-213 164 l-4 0 l0 -118 l96 0 l-41 -46 l-153 0 l0 75 l-8 -9 l-98 0 l88 98 l-85 0 l0 47 l114 0 l0 26 l-76 0 l0 46 l76 0 l0 26 l-114 0 l0 46 l114 0 l0 21 l98 0 l0 -21 l121 0 l0 21 l98 0 l0 -21 l125 0 ZM326 116 l-238 0 l0 478 l238 0 l0 -478 ZM911 622 l-42 -46 l-514 0 l0 46 l213 0 l-24 44 l129 0 l25 -44 l213 0 ZM605 436 l-249 0 l0 123 l148 0 l-20 -47 l-30 0 l0 -28 l53 0 l0 75 l98 0 l0 -123 ZM872 436 l-250 0 l0 123 l149 0 l-20 -47 l-37 0 l0 -28 l60 0 l0 75 l98 0 l0 -123 ZM189 157 l36 0 l0 430 l-26 -34 l-10 0 l0 -396 ZM567 265 l121 0 l0 26 l-121 0 l0 -26 ZM567 337 l121 0 l0 26 l-121 0 l0 -26 Z" /><glyph glyph-name="uni56DB" unicode="&#x56db;" d="M922 665 l0 -610 l-844 0 l0 610 l720 0 l-26 -47 l-99 0 l0 -380 l124 0 l-26 -47 l-222 0 l0 427 l-107 0 l0 -285 l-130 -176 l-110 0 l0 -58 l596 0 l0 566 l124 0 ZM202 188 l119 159 l0 271 l-119 0 l0 -430 Z" /><glyph glyph-name="uni56DE" unicode="&#x56de;" d="M888 69 l-777 0 l0 582 l653 0 l-22 -44 l-507 0 l0 -494 l529 0 l0 538 l124 0 l0 -582 ZM686 213 l-369 0 l0 308 l260 0 l-21 -44 l-130 0 l0 -220 l151 0 l0 264 l109 0 l0 -308 Z" /><glyph glyph-name="uni56E0" unicode="&#x56e0;" d="M921 53 l-842 0 l0 615 l730 0 l-24 -47 l-594 0 l0 -522 l618 0 l0 569 l112 0 l0 -615 ZM556 472 l234 0 l-24 -47 l-226 0 l-169 -302 l-130 0 l170 302 l-188 0 l0 47 l203 0 l0 125 l130 0 l0 -125 ZM662 348 l118 -221 l-142 0 l-116 221 l140 0 Z" /><glyph glyph-name="uni56E2" unicode="&#x56e2;" d="M906 53 l-813 0 l0 615 l813 0 l0 -615 ZM792 668 l-29 -43 l-556 0 l0 -524 l585 0 l0 567 ZM759 511 l-29 -47 l-57 0 l0 -339 l-189 0 l-26 47 l101 0 l0 292 l-31 0 l-168 -339 l-116 0 l165 339 l-165 0 l0 47 l315 0 l0 86 l114 0 l0 -86 l86 0 Z" /><glyph glyph-name="uni56ED" unicode="&#x56ed;" d="M281 516 l0 44 l452 0 l-29 -44 l-423 0 ZM767 192 l-21 -44 l-218 0 l0 218 l-54 0 l-127 -218 l-110 0 l124 218 l-115 0 l0 43 l505 0 l-19 -43 l-92 0 l0 -174 l127 0 ZM212 623 l0 -526 l572 0 l0 570 l113 0 l0 -613 l-795 0 l0 613 l682 0 l-40 -44 l-532 0 Z" /><glyph glyph-name="uni56F0" unicode="&#x56f0;" d="M886 665 l0 -609 l-773 0 l0 609 l661 0 l-27 -47 l-520 0 l0 -513 l547 0 l0 560 l112 0 ZM246 496 l0 47 l194 0 l0 52 l114 0 l0 -52 l204 0 l-16 -47 l-188 0 l0 -364 l-114 0 l0 364 l-19 0 l-77 -349 l-105 0 l77 349 l-70 0 ZM758 147 l-102 0 l-77 318 l106 0 l73 -318 Z" /><glyph glyph-name="uni56F4" unicode="&#x56f4;" d="M907 53 l-814 0 l0 615 l814 0 l0 -615 ZM792 668 l-28 -43 l-557 0 l0 -525 l585 0 l0 568 ZM759 559 l-29 -48 l-207 0 l0 -44 l211 0 l-29 -48 l-182 0 l0 -44 l122 0 l-29 -48 l-93 0 l0 -210 l-114 0 l0 210 l-164 0 l0 48 l164 0 l0 44 l-133 0 l0 48 l133 0 l0 44 l-158 0 l0 48 l158 0 l0 44 l114 0 l0 -44 l236 0 ZM759 117 l-143 0 l-26 47 l55 0 l0 211 l114 0 l0 -258 Z" /><glyph glyph-name="uni56FA" unicode="&#x56fa;" d="M102 51 l-5 618 l806 0 l0 -618 l-801 0 ZM218 621 l0 -522 l569 0 l0 522 l-569 0 ZM453 497 l-200 0 l0 47 l200 0 l0 47 l116 0 l0 -47 l184 0 l-27 -47 l-157 0 l0 -79 l59 0 l-27 -48 l-218 0 l0 -178 l245 0 l0 226 l106 0 l0 -275 l-462 0 l0 275 l181 0 l0 79 Z" /><glyph glyph-name="uni56FD" unicode="&#x56fd;" d="M84 668 l832 0 l0 -615 l-832 0 l0 615 ZM802 668 l-35 -47 l-569 0 l0 -521 l604 0 l0 568 ZM436 211 l0 143 l-170 0 l0 47 l170 0 l0 107 l-181 0 l0 48 l504 0 l-26 -48 l-183 0 l0 -107 l199 0 l-27 -47 l-172 0 l0 -143 l220 0 l-27 -47 l-498 0 l0 47 l191 0 ZM685 325 l53 -91 l-114 0 l-53 91 l114 0 Z" /><glyph glyph-name="uni56FE" unicode="&#x56fe;" d="M906 53 l-813 0 l0 615 l813 0 l0 -615 ZM792 668 l-29 -43 l-556 0 l0 -524 l585 0 l0 567 ZM755 285 l-249 106 l-260 -109 l0 66 l183 76 l-66 29 l31 54 l117 -49 l140 59 l0 14 l-277 0 l-27 -51 l-101 0 l66 119 l99 0 l-12 -21 l366 0 l0 -79 l-3 0 l-173 -73 l166 -69 l0 -72 ZM755 266 l-29 -48 l-480 0 l0 48 l509 0 ZM755 193 l-29 -47 l-480 0 l0 47 l509 0 Z" /><glyph glyph-name="uni5706" unicode="&#x5706;" d="M632 137 l-128 121 l-134 -121 l-131 0 l112 101 l-91 0 l0 165 l358 0 l-36 -43 l-210 0 l0 -100 l89 82 l132 0 l-63 -60 l70 0 l18 -17 l0 138 l114 0 l0 -165 l-86 0 l108 -101 l-122 0 ZM286 444 l0 142 l302 0 l-35 -44 l-153 0 l0 -54 l188 0 l0 98 l112 0 l0 -142 l-414 0 ZM214 623 l0 -526 l572 0 l0 570 l112 0 l0 -614 l-796 0 l0 614 l684 0 l-40 -44 l-532 0 Z" /><glyph glyph-name="uni5708" unicode="&#x5708;" d="M938 53 l-877 0 l0 615 l877 0 l0 -615 ZM802 515 l-33 -47 l-298 0 l-28 -34 l359 0 l-33 -48 l-71 0 l124 -138 l0 412 l-25 -39 l-620 0 l0 -375 l116 140 l-81 0 l0 48 l121 0 l28 34 l-149 0 l0 47 l188 0 l77 93 l111 0 l-78 -93 l292 0 ZM709 124 l-412 0 l0 133 l-30 -36 l-90 0 l0 -119 l645 0 l0 119 l-87 0 l-42 46 l0 -54 l-234 0 l0 47 l129 0 l0 42 l-186 0 l0 -131 l201 0 l0 30 l106 0 l0 -77 ZM373 349 l247 0 l-33 37 l-184 0 l-30 -37 ZM224 608 l103 0 l53 -77 l-102 0 l-54 77 ZM731 531 l-102 0 l53 77 l103 0 l-54 -77 Z" /><glyph glyph-name="uni5728" unicode="&#x5728;" d="M905 561 l-553 0 l-95 -168 l54 0 l0 -332 l-115 0 l0 245 l-126 0 l143 255 l-105 0 l0 47 l132 0 l29 52 l139 0 l-30 -52 l552 0 l-25 -47 ZM846 373 l-161 0 l0 -265 l242 0 l-25 -47 l-551 0 l0 47 l219 0 l0 265 l-205 0 l0 47 l205 0 l0 92 l115 0 l0 -92 l186 0 l-25 -47 Z" /><glyph glyph-name="uni5730" unicode="&#x5730;" d="M706 179 l-114 0 l0 365 l-108 -9 l0 -434 l465 0 l-26 -48 l-555 0 l0 473 l-24 -2 l0 47 l24 1 l0 96 l116 0 l0 -88 l108 7 l0 81 l114 0 l0 -74 l216 15 l0 -427 l-161 0 l-26 47 l71 0 l0 332 l-100 -8 l0 -374 ZM244 527 l76 0 l-25 -47 l-51 0 l0 -316 l76 16 l0 -44 l-269 -62 l0 46 l83 18 l0 342 l-83 0 l0 47 l83 0 l0 126 l110 0 l0 -126 Z" /><glyph glyph-name="uni573A" unicode="&#x573a;" d="M635 451 l168 0 l-26 -45 l-21 0 l-87 -352 l-114 0 l87 352 l-49 0 l-88 -352 l-114 0 l88 352 l-69 0 l247 217 l-200 0 l0 46 l425 0 l-247 -218 ZM382 100 l-299 -48 l0 47 l87 14 l0 385 l-87 0 l0 45 l87 0 l0 125 l132 0 l0 -125 l105 0 l-26 -45 l-79 0 l0 -364 l80 12 l0 -46 ZM803 99 l0 352 l114 0 l0 -397 l-153 0 l-23 45 l62 0 Z" /><glyph glyph-name="uni5740" unicode="&#x5740;" d="M721 110 l206 0 l-26 -47 l-554 0 l0 47 l56 0 l0 431 l116 0 l0 -431 l86 0 l0 548 l116 0 l0 -192 l174 0 l-26 -48 l-148 0 l0 -308 ZM341 132 l-268 -61 l0 45 l82 18 l0 342 l-82 0 l0 47 l82 0 l0 126 l111 0 l0 -126 l75 0 l-25 -47 l-50 0 l0 -316 l75 16 l0 -44 Z" /><glyph glyph-name="uni5747" unicode="&#x5747;" d="M822 535 l-462 0 l90 133 l132 0 l-61 -88 l417 0 l0 -523 l-240 0 l-30 46 l154 0 l0 432 ZM675 363 l-116 0 l-35 132 l115 0 l36 -132 ZM559 331 l126 0 l-166 -219 l-126 0 l166 219 ZM254 505 l75 0 l-24 -47 l-51 0 l0 -316 l75 16 l0 -44 l-268 -62 l0 46 l82 18 l0 342 l-82 0 l0 47 l82 0 l0 126 l111 0 l0 -126 Z" /><glyph glyph-name="uni574F" unicode="&#x574f;" d="M629 507 l88 0 l210 -263 l-133 0 l-107 135 l0 -321 l-111 0 l0 361 l-126 -184 l-121 0 l246 372 l-193 0 l0 42 l535 0 l-34 -42 l-186 0 l-68 -100 ZM340 470 l-62 0 l0 -318 l93 27 l-26 -57 l-272 -66 l0 51 l93 17 l0 346 l-93 0 l0 45 l93 0 l0 150 l112 0 l0 -150 l88 0 l-26 -45 Z" /><glyph glyph-name="uni5750" unicode="&#x5750;" d="M212 340 l-127 0 l108 277 l127 0 l-41 -105 l92 0 l52 -124 l0 265 l119 0 l0 -275 l93 239 l126 0 l-41 -105 l93 0 l72 -172 l-126 0 l-55 131 l-51 -131 l-111 0 l0 -85 l335 0 l-25 -44 l-310 0 l0 -97 l372 0 l-30 -47 l-798 0 l0 47 l337 0 l0 97 l-322 0 l0 44 l322 0 l0 85 l-105 0 l-55 131 l-51 -131 Z" /><glyph glyph-name="uni5751" unicode="&#x5751;" d="M910 52 l-211 0 l0 362 l-117 0 l0 -247 l-73 -112 l-143 0 l86 126 l0 281 l376 0 l0 -361 l111 0 l-29 -49 ZM376 112 l-316 -46 l0 44 l103 15 l0 349 l-103 0 l0 47 l103 0 l0 133 l116 0 l0 -133 l106 0 l-26 -47 l-80 0 l0 -332 l97 14 l0 -44 ZM577 669 l130 0 l15 -69 l207 0 l-26 -47 l-520 0 l0 47 l208 0 l-14 69 Z" /><glyph glyph-name="uni575A" unicode="&#x575a;" d="M566 103 l356 0 l-19 -48 l-825 0 l0 48 l374 0 l0 111 l-325 0 l0 48 l325 0 l0 53 l114 0 l0 -53 l321 0 l-19 -48 l-302 0 l0 -111 ZM778 601 l-323 0 l0 48 l438 0 l0 -108 l-1 0 l0 -13 l-123 -80 l128 -98 l-149 0 l-60 46 l-70 -46 l-149 0 l149 99 l-157 120 l149 0 l88 -68 l80 54 l0 46 ZM408 350 l-114 0 l0 316 l114 0 l0 -316 ZM222 361 l-114 0 l0 294 l114 0 l0 -294 Z" /><glyph glyph-name="uni575B" unicode="&#x575b;" d="M268 523 l75 0 l-24 -47 l-51 0 l0 -316 l75 16 l0 -44 l-268 -61 l0 45 l82 18 l0 342 l-82 0 l0 47 l82 0 l0 126 l111 0 l0 -126 ZM898 375 l-311 0 l-94 -238 l267 0 l-36 61 l129 0 l57 -109 l-124 0 l-19 35 l-21 -35 l-403 0 l124 286 l-118 0 l0 47 l575 0 l-26 -47 ZM842 588 l-445 0 l0 47 l471 0 l-26 -47 Z" /><glyph glyph-name="uni575F" unicode="&#x575f;" d="M912 502 l-34 0 l0 -94 l-153 -153 l193 -203 l-114 0 l-137 144 l-144 -144 l-124 0 l206 209 l-159 169 l114 0 l103 -110 l101 102 l0 80 l-345 0 l0 47 l213 0 l-56 114 l114 0 l56 -114 l193 0 l-27 -47 ZM393 467 l-98 0 l0 -301 l104 21 l0 -43 l-339 -67 l0 43 l121 24 l0 323 l-121 0 l0 43 l121 0 l0 158 l114 0 l0 -158 l98 0 l0 -43 Z" /><glyph glyph-name="uni576A" unicode="&#x576a;" d="M254 495 l0 -316 l75 16 l0 -44 l-268 -62 l0 46 l82 18 l0 342 l-82 0 l0 47 l82 0 l0 126 l111 0 l0 -126 l75 0 l-25 -47 l-50 0 ZM938 324 l-26 -45 l-213 0 l0 -226 l-109 0 l0 226 l-241 0 l0 45 l241 0 l0 260 l-216 0 l0 47 l553 0 l-25 -47 l-203 0 l0 -260 l239 0 ZM713 358 l62 190 l112 0 l-63 -190 l-111 0 ZM577 358 l-112 0 l-65 190 l114 0 l63 -190 Z" /><glyph glyph-name="uni578B" unicode="&#x578b;" d="M938 98 l-44 -45 l-833 0 l0 45 l385 0 l0 132 l-362 0 l0 45 l362 0 l0 36 l116 0 l0 -36 l341 0 l-35 -45 l-306 0 l0 -132 l376 0 ZM769 429 l-116 0 l0 188 l116 0 l0 -188 ZM735 383 l70 0 l0 285 l116 0 l0 -331 l-164 0 l-22 46 ZM153 466 l-92 0 l0 46 l98 0 l0 105 l-98 0 l0 46 l570 0 l-28 -46 l-83 0 l0 -105 l111 0 l-28 -46 l-83 0 l0 -146 l-116 0 l0 146 l-135 0 l-62 -146 l-117 0 l63 146 ZM275 512 l129 0 l0 105 l-129 0 l0 -105 Z" /><glyph glyph-name="uni57CB" unicode="&#x57cb;" d="M937 106 l-26 -47 l-556 0 l0 47 l224 0 l0 121 l-197 0 l0 47 l197 0 l0 86 l-235 0 l0 305 l470 0 l-26 -47 l-95 0 l0 -83 l121 0 l0 130 l114 0 l0 -305 l-235 0 l0 -86 l219 0 l-26 -47 l-193 0 l0 -121 l244 0 ZM255 461 l0 -315 l75 15 l0 -44 l-268 -61 l0 46 l82 17 l0 342 l-82 0 l0 48 l82 0 l0 126 l111 0 l0 -126 l75 0 l-25 -48 l-50 0 ZM579 404 l0 87 l-121 0 l0 -87 l121 0 ZM693 491 l0 -87 l121 0 l0 87 l-121 0 ZM458 618 l0 -83 l121 0 l0 83 l-121 0 Z" /><glyph glyph-name="uni57CE" unicode="&#x57ce;" d="M927 343 l-71 -31 l62 -259 l-114 0 l-51 214 l-59 -25 l0 65 l45 19 l-57 238 l-223 0 l0 -95 l95 0 l-21 -44 l-74 0 l0 -157 l-43 -215 l-114 0 l43 215 l0 340 l327 0 l-14 60 l114 0 l14 -60 l41 0 l-16 55 l98 0 l30 -99 l-143 0 l46 -193 l85 37 l0 -65 ZM293 514 l-51 0 l0 -378 l57 6 l0 -44 l-228 -21 l0 43 l57 5 l0 389 l-67 0 l0 43 l67 0 l0 111 l114 0 l0 -111 l67 0 l-16 -43 ZM668 53 l-171 0 l0 44 l57 0 l0 372 l114 0 l0 -416 Z" /><glyph glyph-name="uni57DF" unicode="&#x57df;" d="M322 467 l307 0 l-28 73 l-279 0 l0 48 l262 0 l-30 77 l121 0 l30 -77 l73 0 l-29 77 l122 0 l30 -77 l37 0 l-26 -48 l-190 0 l58 -152 l39 72 l114 0 l-105 -195 l81 -209 l-121 0 l-31 78 l-40 -75 l-114 0 l107 198 l-75 194 l0 -217 l-313 0 l0 233 ZM254 508 l75 0 l-24 -47 l-51 0 l0 -316 l75 16 l0 -44 l-268 -61 l0 45 l82 18 l0 342 l-82 0 l0 47 l82 0 l0 149 l111 0 l0 -149 ZM639 136 l-289 -20 l0 52 l289 19 l0 -51 ZM521 281 l0 178 l-30 -35 l-53 0 l0 -143 l83 0 Z" /><glyph glyph-name="uni57FA" unicode="&#x57fa;" d="M879 577 l-71 0 l0 -224 l98 0 l-27 -44 l-63 0 l93 -150 l-139 0 l-41 65 l-21 -34 l-145 0 l0 -91 l343 0 l-27 -44 l-777 0 l0 44 l342 0 l0 91 l-171 0 l0 33 l-44 -64 l-139 0 l102 150 l-90 0 l0 44 l98 0 l0 224 l-98 0 l0 44 l98 0 l0 44 l119 0 l0 -44 l370 0 l0 44 l119 0 l0 -44 l98 0 l-27 -44 ZM444 290 l119 0 l0 -56 l160 0 l-46 75 l-346 0 l-51 -75 l164 0 l0 56 ZM665 491 l-346 0 l0 -52 l370 0 l0 91 l-24 -39 ZM672 395 l-353 0 l0 -42 l370 0 l0 69 l-17 -27 ZM319 535 l370 0 l0 42 l-370 0 l0 -42 Z" /><glyph glyph-name="uni5802" unicode="&#x5802;" d="M562 99 l373 0 l-21 -46 l-849 0 l0 46 l374 0 l0 66 l-322 0 l0 46 l322 0 l0 62 l-246 0 l0 169 l486 0 l-21 -46 l-342 0 l0 -77 l368 0 l0 123 l124 0 l0 -169 l-246 0 l0 -62 l315 0 l-21 -46 l-294 0 l0 -66 ZM562 580 l250 0 l-21 -48 l-602 0 l0 -114 l-124 0 l0 162 l374 0 l0 88 l123 0 l0 -88 ZM812 580 l123 0 l0 -162 l-123 0 l0 162 ZM644 596 l17 72 l124 0 l-18 -72 l-123 0 ZM187 668 l123 0 l17 -72 l-123 0 l-17 72 Z" /><glyph glyph-name="uni5806" unicode="&#x5806;" d="M794 359 l0 -107 l127 0 l-26 -47 l-101 0 l0 -108 l127 0 l-26 -47 l-343 0 l0 47 l128 0 l0 108 l-128 0 l0 47 l128 0 l0 107 l-128 0 l0 48 l128 0 l0 107 l-128 0 l0 47 l150 0 l-44 105 l114 0 l44 -105 l105 0 l-26 -47 l-101 0 l0 -107 l127 0 l-26 -48 l-101 0 ZM295 138 l101 16 l0 -47 l-317 -50 l0 48 l102 16 l0 369 l-89 0 l0 47 l89 0 l0 133 l114 0 l0 -133 l88 0 l-26 -47 l-62 0 l0 -352 ZM538 573 l4 0 l0 -523 l-114 0 l0 390 l-86 0 l142 230 l114 0 l-60 -97 Z" /><glyph glyph-name="uni5854" unicode="&#x5854;" d="M802 265 l114 0 l0 -214 l-575 0 l0 214 l460 0 l-27 -47 l-319 0 l0 -124 l347 0 l0 171 ZM258 149 l75 16 l0 -44 l-268 -61 l0 45 l82 18 l0 342 l-82 0 l0 47 l82 0 l0 127 l111 0 l0 -127 l75 0 l-24 -47 l-51 0 l0 -316 ZM398 574 l-75 0 l0 47 l75 0 l0 49 l114 0 l0 -49 l232 0 l0 49 l114 0 l0 -49 l77 0 l-22 -47 l-55 0 l0 -48 l-114 0 l0 48 l-232 0 l0 -48 l-114 0 l0 48 ZM758 509 l173 -155 l-143 0 l-161 144 l-162 -144 l-142 0 l172 155 l263 0 ZM338 334 l582 0 l-22 -47 l-560 0 l0 47 Z" /><glyph glyph-name="uni585E" unicode="&#x585e;" d="M869 431 l-13 -47 l-111 0 l0 -45 l178 0 l-13 -48 l-100 0 l113 -149 l-108 0 l-113 149 l-405 0 l-112 -149 l-109 0 l113 149 l-113 0 l0 48 l185 0 l0 45 l-115 0 l0 47 l115 0 l0 39 l-115 0 l0 47 l115 0 l0 46 l109 0 l0 -46 l266 0 l0 46 l109 0 l0 -46 l124 0 l-13 -47 l-111 0 l0 -39 l124 0 ZM869 100 l-13 -47 l-710 0 l0 47 l310 0 l0 70 l-202 0 l0 47 l202 0 l0 59 l108 0 l0 -59 l175 0 l-13 -47 l-162 0 l0 -70 l305 0 ZM439 668 l110 0 l0 -42 l374 0 l0 -90 l-108 0 l0 86 l-24 -44 l-607 0 l0 -42 l-108 0 l0 90 l363 0 l0 42 ZM370 339 l266 0 l0 45 l-266 0 l0 -45 ZM370 431 l266 0 l0 39 l-266 0 l0 -39 Z" /><glyph glyph-name="uni586B" unicode="&#x586b;" d="M881 228 l45 0 l-20 -56 l-550 0 l0 56 l45 0 l0 307 l139 0 l16 40 l-189 0 l0 57 l211 0 l13 35 l133 0 l-14 -35 l203 0 l-21 -57 l-203 0 l-16 -40 l94 0 l-20 -56 l-232 0 l0 -19 l252 0 l0 75 l114 0 l0 -307 ZM269 467 l0 -317 l77 14 l0 -56 l-272 -51 l0 57 l81 15 l0 338 l-81 0 l0 57 l81 0 l0 140 l114 0 l0 -140 l80 0 l-20 -57 l-60 0 ZM844 160 l67 -107 l-141 0 l-67 107 l141 0 ZM596 160 l-67 -107 l-141 0 l67 107 l141 0 ZM515 404 l0 -24 l252 0 l0 24 l-252 0 ZM515 228 l252 0 l0 24 l-252 0 l0 -24 ZM515 308 l252 0 l0 16 l-252 0 l0 -16 Z" /><glyph glyph-name="uni5883" unicode="&#x5883;" d="M938 96 l-29 -43 l-222 0 l0 144 l-149 0 l0 -144 l-208 0 l-30 43 l124 0 l0 101 l-99 0 l0 231 l461 0 l-30 -44 l-317 0 l0 -50 l347 0 l0 94 l114 0 l0 -231 l-99 0 l0 -101 l137 0 ZM219 387 l0 -251 l69 17 l0 -44 l-227 -56 l0 43 l44 11 l0 280 l-44 0 l0 44 l44 0 l0 212 l114 0 l0 -212 l69 0 l-30 -44 l-39 0 ZM901 450 l-601 0 l0 44 l100 0 l-30 70 l114 0 l30 -70 l207 0 l26 70 l114 0 l-26 -70 l96 0 l-30 -44 ZM876 576 l-551 0 l0 44 l234 0 l0 48 l114 0 l0 -48 l233 0 l-30 -44 ZM439 241 l347 0 l0 49 l-347 0 l0 -49 Z" /><glyph glyph-name="uni5885" unicode="&#x5885;" d="M491 301 l-424 -44 l0 48 l163 16 l0 36 l-151 0 l0 49 l151 0 l0 19 l-148 0 l0 238 l413 0 l0 -238 l-153 0 l0 -19 l151 0 l-25 -49 l-126 0 l0 -24 l149 15 l0 -47 ZM550 107 l370 0 l-24 -49 l-834 0 l0 49 l372 0 l0 59 l-326 0 l0 48 l326 0 l0 73 l116 0 l0 -73 l325 0 l-27 -48 l-298 0 l0 -59 ZM796 451 l142 0 l0 -114 l-113 0 l0 68 l-62 0 l0 -139 l-160 0 l-22 46 l70 0 l0 93 l-118 0 l23 46 l71 0 l-76 112 l120 0 l37 -56 l75 108 l-232 0 l27 48 l360 0 l-142 -212 ZM347 617 l-5 0 l0 -48 l42 0 l0 81 l-37 -33 ZM384 471 l0 48 l-42 0 l0 -48 l42 0 ZM230 471 l0 48 l-36 0 l0 -48 l36 0 ZM194 617 l0 -48 l36 0 l0 48 l-36 0 Z" /><glyph glyph-name="uni5899" unicode="&#x5899;" d="M403 343 l478 0 l0 -278 l-478 0 l0 278 ZM329 101 l-250 -42 l0 48 l69 11 l0 306 l-69 0 l0 47 l69 0 l0 188 l114 0 l0 -188 l93 0 l-26 -47 l-67 0 l0 -287 l93 16 l-26 -52 ZM888 567 l-181 0 l0 -147 l213 0 l-27 -48 l-522 0 l0 48 l229 0 l0 147 l-203 0 l0 48 l203 0 l0 46 l107 0 l0 -46 l207 0 l-26 -48 ZM515 297 l0 -187 l256 0 l0 220 l-37 -33 l-219 0 ZM543 268 l198 0 l0 -139 l-198 0 l0 139 ZM534 548 l46 -104 l-112 0 l-48 104 l114 0 ZM889 548 l-46 -104 l-112 0 l47 104 l111 0 ZM604 234 l0 -71 l77 0 l0 85 l-15 -14 l-62 0 Z" /><glyph glyph-name="uni589E" unicode="&#x589e;" d="M338 595 l120 0 l-76 69 l123 0 l77 -69 l123 0 l54 69 l121 0 l-54 -69 l114 0 l0 -216 l-602 0 l0 216 ZM375 56 l0 290 l410 0 l-35 -44 l-261 0 l0 -63 l296 0 l0 107 l112 0 l0 -290 l-522 0 ZM253 522 l76 0 l-25 -47 l-51 0 l0 -316 l76 16 l0 -44 l-269 -62 l0 46 l83 17 l0 343 l-83 0 l0 47 l83 0 l0 126 l110 0 l0 -126 ZM489 102 l296 0 l0 89 l-296 0 l0 -89 ZM801 549 l-107 0 l0 -100 l65 70 l67 0 l0 76 l-25 -46 ZM582 549 l-132 0 l0 -30 l70 0 l62 -66 l0 96 ZM450 426 l71 0 l-71 76 l0 -76 ZM826 426 l0 72 l-68 -72 l68 0 Z" /><glyph glyph-name="uni58EB" unicode="&#x58eb;" d="M550 416 l0 -314 l320 0 l-24 -49 l-717 0 l0 49 l305 0 l0 314 l-344 0 l0 47 l344 0 l0 204 l116 0 l0 -204 l359 0 l-26 -47 l-333 0 Z" /><glyph glyph-name="uni58EE" unicode="&#x58ee;" d="M712 464 l0 -366 l218 0 l-18 -45 l-535 0 l0 45 l218 0 l0 366 l-245 0 l0 46 l245 0 l0 158 l117 0 l0 -158 l226 0 l-17 -46 l-209 0 ZM122 431 l-61 176 l116 0 l54 -156 l0 217 l118 0 l0 -615 l-118 0 l0 227 l-51 -172 l-116 0 l79 263 l88 0 l0 60 l-109 0 Z" /><glyph glyph-name="uni58F0" unicode="&#x58f0;" d="M756 310 l-26 -47 l-461 0 l0 -19 l-75 -193 l-115 0 l76 193 l0 194 l114 0 l0 -1 l487 0 l-26 -47 l-178 0 l0 -80 l204 0 ZM891 514 l-27 -47 l-732 0 l0 47 l306 0 l0 55 l-331 0 l0 47 l331 0 l0 53 l114 0 l0 -53 l368 0 l-26 -47 l-342 0 l0 -55 l339 0 ZM870 249 l-114 0 l0 189 l114 0 l0 -189 ZM269 310 l169 0 l0 80 l-169 0 l0 -80 Z" /><glyph glyph-name="uni58F6" unicode="&#x58f6;" d="M548 669 l0 -48 l358 0 l-26 -44 l-332 0 l0 -54 l307 0 l-30 -46 l-666 0 l0 46 l279 0 l0 54 l-335 0 l0 44 l335 0 l0 48 l110 0 ZM797 435 l-37 -44 l-557 0 l0 -61 l-106 0 l0 105 l700 0 ZM906 435 l0 -105 l-109 0 l0 105 l109 0 ZM185 132 l-61 147 l119 0 l65 -147 l-123 0 ZM541 95 l0 230 l109 0 l0 -230 l256 0 l-28 -44 l-784 0 l0 44 l256 0 l0 230 l109 0 l0 -230 l82 0 ZM869 283 l-47 -151 l-112 0 l45 151 l114 0 Z" /><glyph glyph-name="uni5904" unicode="&#x5904;" d="M392 53 l-90 112 l-89 -112 l-122 0 l150 188 l-126 159 l122 0 l65 -82 l66 82 l0 164 l-135 0 l-46 -126 l-121 0 l85 230 l121 0 l-22 -60 l240 0 l0 -208 l-127 -159 l113 -141 l458 0 l-14 -47 l-528 0 ZM565 135 l0 527 l116 0 l0 -527 l-116 0 ZM719 530 l121 0 l72 -222 l-119 0 l-74 222 Z" /><glyph glyph-name="uni5907" unicode="&#x5907;" d="M766 226 l0 111 l118 0 l0 -276 l-757 0 l0 276 l639 0 l-24 -45 l-182 0 l0 -66 l206 0 ZM895 573 l-34 0 l0 -71 l-224 -66 l280 -90 l-207 0 l-199 59 l-239 -59 l-194 0 l313 92 l-255 74 l0 43 l120 0 l0 -14 l254 -72 l240 71 l0 33 l-541 -1 l-119 0 l45 88 l121 0 l-22 -41 l687 2 l-26 -48 ZM451 105 l0 74 l-210 0 l0 -74 l210 0 ZM766 105 l0 74 l-206 0 l0 -74 l206 0 ZM241 292 l0 -66 l210 0 l0 66 l-210 0 Z" /><glyph glyph-name="uni590D" unicode="&#x590d;" d="M875 353 l-742 0 l0 205 l610 0 l-32 -47 l-447 0 l0 -31 l479 0 l0 78 l132 0 l0 -205 ZM709 147 l207 -31 l0 -62 l-410 62 l-414 -63 l0 63 l208 31 l-160 25 l0 60 l364 -54 l267 40 l0 99 l121 0 l0 -142 l-183 -28 ZM226 574 l-142 0 l89 94 l142 0 l-25 -26 l602 0 l-28 -48 l-618 0 l-20 -20 ZM300 317 l471 0 l-32 -47 l-483 0 l-24 -25 l-142 0 l89 94 l142 0 l-21 -22 ZM264 432 l0 -31 l479 0 l0 31 l-479 0 Z" /><glyph glyph-name="uni590F" unicode="&#x590f;" d="M77 668 l843 0 l-25 -44 l-486 0 l-24 -41 l383 0 l-25 -44 l-504 0 l0 -25 l529 0 l0 69 l114 0 l0 -253 l-757 0 l0 253 l144 0 l24 41 l-216 0 l0 44 ZM922 52 l-217 0 l-210 48 l-201 -48 l-217 0 l306 73 l-257 58 l217 0 l147 -33 l271 64 l0 26 l-524 0 l-17 -41 l-116 0 l45 108 l115 0 l-9 -23 l620 0 l0 -91 l2 -3 l-276 -65 l321 -73 ZM239 470 l0 -26 l529 0 l0 26 l-529 0 ZM768 374 l0 26 l-529 0 l0 -26 l529 0 Z" /><glyph glyph-name="uni5915" unicode="&#x5915;" d="M888 608 l0 -228 l-524 -323 l-210 0 l285 173 l-71 0 l-108 202 l145 0 l84 -172 l287 175 l0 125 l-476 0 l-58 -100 l-131 0 l114 203 l135 0 l-32 -55 l560 0 Z" /><glyph glyph-name="uni5916" unicode="&#x5916;" d="M105 71 l149 198 l-75 0 l-77 189 l116 0 l63 -154 l68 91 l0 155 l-123 0 l-8 -54 l-116 0 l24 154 l116 0 l-8 -55 l229 0 l0 -235 l-219 -289 l-139 0 ZM782 249 l-77 346 l116 0 l77 -346 l-116 0 ZM542 665 l133 0 l0 -610 l-133 0 l0 610 Z" /><glyph glyph-name="uni591A" unicode="&#x591a;" d="M908 265 l-145 -167 l0 -1 l-39 -45 l-606 0 l0 47 l275 0 l-76 88 l-32 -38 l-167 0 l180 209 l-206 0 l0 47 l274 0 l-75 87 l-33 -37 l-166 0 l184 213 l166 0 l-43 -50 l483 0 l0 -47 l-524 0 l-43 -51 l119 0 l99 -115 l39 0 l143 165 l166 0 l-144 -167 l-39 -45 l-233 0 l-39 -46 l482 0 l0 -47 ZM741 265 l-356 0 l-44 -50 l119 0 l99 -116 l39 0 l143 166 Z" /><glyph glyph-name="uni591C" unicode="&#x591c;" d="M525 323 l91 -66 l53 41 l-41 0 l-76 94 l114 0 l47 -61 l17 13 l0 112 l-177 0 l-44 -64 l-128 0 l96 143 l130 0 l-23 -33 l260 0 l0 -193 l-147 -110 l203 -146 l-160 0 l-122 87 l-116 -86 l-153 0 l189 144 l-174 125 l161 0 ZM319 375 l0 -324 l-116 0 l0 276 l-100 0 l146 208 l130 0 l-114 -160 l54 0 ZM911 615 l-26 -46 l-797 0 l0 46 l334 0 l0 54 l155 0 l0 -54 l334 0 Z" /><glyph glyph-name="uni591F" unicode="&#x591f;" d="M492 627 l0 -574 l-227 0 l0 47 l113 0 l0 527 l114 0 ZM342 186 l-238 0 l0 288 l238 0 l0 -288 ZM774 294 l-116 0 l-25 -52 l-114 0 l63 131 l-57 -11 l0 47 l103 21 l-41 82 l114 0 l31 -61 l75 16 l0 160 l114 0 l0 -185 l-286 -58 l66 0 l-20 -43 l130 0 l-37 -47 ZM926 134 l-401 -81 l0 47 l108 22 l-50 99 l115 0 l39 -78 l74 15 l0 183 l114 0 l0 -160 l1 0 l0 -47 ZM188 512 l-114 0 l68 156 l114 0 l-18 -41 l140 0 l-36 -48 l-125 0 l-29 -67 ZM681 627 l126 0 l-36 -48 l-112 0 l-26 -53 l-114 0 l68 142 l114 0 l-20 -41 ZM195 427 l0 -193 l56 0 l0 239 l-25 -46 l-31 0 Z" /><glyph glyph-name="uni5927" unicode="&#x5927;" d="M477 468 l-234 -415 l-122 0 l233 415 l-225 0 l0 46 l251 0 l87 154 l123 0 l-87 -154 l376 0 l-25 -46 l-377 0 ZM681 403 l198 -350 l-123 0 l-198 350 l123 0 Z" /><glyph glyph-name="uni5929" unicode="&#x5929;" d="M473 446 l447 0 l-27 -61 l-459 0 l-201 -318 l-139 0 l201 318 l-215 0 l0 61 l254 0 l93 146 l-328 0 l0 62 l794 0 l-27 -62 l-301 0 l-92 -146 ZM715 363 l188 -296 l-139 0 l-187 296 l138 0 Z" /><glyph glyph-name="uni592A" unicode="&#x592a;" d="M86 53 l240 449 l-228 0 l0 58 l259 0 l58 108 l123 0 l-58 -108 l434 0 l-24 -58 l-441 0 l-240 -449 l-123 0 ZM780 53 l-225 413 l123 0 l225 -413 l-123 0 ZM525 257 l109 -204 l-123 0 l-109 204 l123 0 Z" /><glyph glyph-name="uni592B" unicode="&#x592b;" d="M862 531 l-305 0 l0 -146 l364 0 l-25 -44 l-349 0 l-27 -26 l72 0 l318 -262 l-156 0 l-269 228 l-240 -228 l-156 0 l306 288 l-316 0 l0 44 l363 0 l0 146 l-328 0 l0 43 l328 0 l0 94 l115 0 l0 -94 l330 0 l-25 -43 Z" /><glyph glyph-name="uni592E" unicode="&#x592e;" d="M885 281 l-339 0 l-55 -43 l147 0 l267 -185 l-161 0 l-260 179 l-228 -179 l-162 0 l288 228 l-294 0 l0 45 l64 0 l0 273 l277 0 l0 69 l119 0 l0 -69 l186 0 l-27 -50 l-159 0 l0 -221 l186 0 l0 271 l113 0 l0 -273 l64 0 l-26 -45 ZM266 328 l163 0 l0 221 l-163 0 l0 -221 Z" /><glyph glyph-name="uni5931" unicode="&#x5931;" d="M563 310 l-327 -256 l-151 0 l327 256 l-327 0 l0 49 l351 0 l0 156 l-161 0 l-45 -120 l-121 0 l90 241 l121 0 l-26 -72 l142 0 l0 102 l127 0 l0 -102 l298 0 l-24 -49 l-274 0 l0 -156 l351 0 l-25 -49 l-326 0 ZM647 257 l267 -203 l-151 0 l-267 203 l151 0 Z" /><glyph glyph-name="uni5934" unicode="&#x5934;" d="M131 53 l282 271 l-323 0 l0 47 l364 0 l0 297 l114 0 l0 -297 l341 0 l-26 -47 l-329 0 l-283 -271 l-140 0 ZM778 53 l-232 236 l132 0 l231 -236 l-131 0 ZM277 425 l-155 116 l130 0 l156 -116 l-131 0 ZM297 552 l-137 116 l130 0 l138 -116 l-131 0 Z" /><glyph glyph-name="uni5939" unicode="&#x5939;" d="M352 394 l-125 0 l-86 141 l123 0 l88 -141 ZM733 271 l183 -216 l-142 0 l-181 216 l140 0 ZM637 394 l88 140 l123 0 l-86 -140 l-125 0 ZM353 313 l-283 0 l0 48 l372 0 l0 206 l-346 0 l0 48 l346 0 l0 51 l116 0 l0 -51 l363 0 l-19 -48 l-344 0 l0 -206 l372 0 l-20 -48 l-417 0 l-250 -258 l-142 0 l252 258 Z" /><glyph glyph-name="uni593A" unicode="&#x593a;" d="M253 403 l-158 0 l161 131 l-171 0 l0 47 l229 0 l107 87 l158 0 l-107 -87 l458 0 l-26 -47 l-137 0 l153 -131 l-130 0 l-152 131 l-224 0 l-161 -131 ZM434 100 l206 0 l0 212 l-570 0 l0 47 l570 0 l0 45 l114 0 l0 -45 l142 0 l-27 -47 l-115 0 l0 -259 l-297 0 l-23 47 ZM458 128 l-114 0 l-146 159 l114 0 l146 -159 Z" /><glyph glyph-name="uni5947" unicode="&#x5947;" d="M908 375 l-150 0 l0 -322 l-271 0 l-30 46 l187 0 l0 276 l-583 0 l0 44 l877 0 l-30 -44 ZM589 119 l-371 0 l0 236 l257 0 l-30 -37 l-113 0 l0 -163 l143 0 l0 200 l114 0 l0 -236 ZM312 575 l-125 0 l0 45 l165 0 l40 48 l134 0 l-41 -48 l327 0 l-27 -45 l-342 0 l-119 -142 l-132 0 l120 142 ZM540 559 l129 0 l114 -126 l-128 0 l-115 126 Z" /><glyph glyph-name="uni5948" unicode="&#x5948;" d="M410 53 l-25 45 l70 0 l0 217 l-375 0 l0 47 l839 0 l-27 -47 l-319 0 l0 -262 l-163 0 ZM251 456 l-144 0 l123 144 l-150 0 l0 41 l185 0 l23 27 l144 0 l-23 -27 l510 0 l-30 -41 l-515 0 l-123 -144 ZM887 456 l-133 0 l-21 -39 l-460 0 l0 47 l464 0 l-96 130 l144 0 l102 -138 ZM169 297 l119 0 l-61 -220 l-120 0 l62 220 ZM902 77 l-120 0 l-61 220 l119 0 l62 -220 Z" /><glyph glyph-name="uni594B" unicode="&#x594b;" d="M883 563 l-365 0 l-30 -22 l114 0 l334 -181 l-115 0 l0 -308 l-654 0 l0 289 l-103 0 l315 222 l-301 0 l0 48 l324 0 l0 58 l114 0 l0 -58 l394 0 l-27 -48 ZM680 341 l-129 0 l0 -97 l156 0 l0 145 l38 0 l-268 144 l-203 -144 l433 0 l-27 -48 ZM551 100 l156 0 l0 97 l-156 0 l0 -97 ZM281 100 l156 0 l0 97 l-156 0 l0 -97 ZM281 244 l156 0 l0 97 l-156 0 l0 -97 Z" /><glyph glyph-name="uni5954" unicode="&#x5954;" d="M928 375 l-128 0 l-26 30 l-21 -30 l-199 0 l0 -53 l-114 0 l0 53 l-214 0 l0 40 l-28 -30 l-126 0 l179 195 l-125 0 l0 47 l169 0 l31 36 l132 0 l-32 -36 l474 0 l-25 -47 l-119 0 l172 -205 ZM554 505 l0 -85 l206 0 l-141 160 l-237 0 l-150 -160 l208 0 l0 85 l114 0 ZM323 277 l361 0 l0 70 l109 0 l0 -70 l130 0 l-28 -48 l-102 0 l0 -172 l-109 0 l0 172 l-361 0 l0 -45 l-109 -127 l-133 0 l133 153 l0 19 l-130 0 l0 48 l130 0 l0 68 l109 0 l0 -68 Z" /><glyph glyph-name="uni5956" unicode="&#x5956;" d="M917 279 l-20 -48 l-386 0 l-260 -180 l-166 0 l260 180 l-262 0 l0 48 l347 0 l0 66 l114 0 l0 -66 l373 0 ZM760 196 l157 -145 l-142 0 l-155 145 l140 0 ZM86 651 l123 0 l59 -94 l68 0 l0 112 l114 0 l0 -308 l-114 0 l0 147 l-112 -147 l-123 0 l136 180 l-84 0 l-67 110 ZM717 667 l-40 -54 l219 0 l0 -148 l-218 -97 l-156 0 l260 132 l0 67 l-265 0 l71 100 l129 0 ZM662 452 l-116 0 l-42 84 l116 0 l42 -84 Z" /><glyph glyph-name="uni5957" unicode="&#x5957;" d="M842 539 l97 -82 l-139 0 l-23 20 l-14 -32 l-413 0 l0 -33 l511 0 l-20 -48 l-491 0 l0 -33 l511 0 l-20 -49 l-491 0 l0 -33 l565 0 l-20 -48 l-557 0 l-74 -99 l493 0 l-43 57 l114 0 l80 -105 l-806 0 l111 147 l-115 0 l0 48 l138 0 l0 215 l-12 -7 l-164 0 l168 103 l-154 0 l0 56 l246 0 l83 50 l164 0 l-82 -50 l452 0 l-21 -56 l-523 0 l-109 -67 l473 0 l-54 46 l139 0 Z" /><glyph glyph-name="uni5965" unicode="&#x5965;" d="M877 304 l-107 0 l0 300 l-28 -46 l-515 0 l0 -240 l86 91 l-70 0 l0 46 l203 0 l0 93 l116 0 l0 -93 l196 0 l-28 -46 l-168 0 l0 -107 l-116 0 l0 107 l-24 0 l-101 -107 l-201 0 l0 304 l78 0 l35 54 l129 0 l-36 -54 l444 0 l0 1 l107 0 l0 -303 ZM283 61 l-152 0 l198 151 l-257 0 l0 47 l318 0 l37 28 l150 0 l-37 -28 l387 0 l-26 -47 l-422 0 l-196 -151 ZM721 61 l-165 135 l140 0 l163 -135 l-138 0 ZM598 402 l99 0 l73 -98 l-95 0 l-77 98 ZM711 474 l-102 0 l36 69 l104 0 l-38 -69 ZM386 474 l-103 0 l-34 69 l101 0 l36 -69 Z" /><glyph glyph-name="uni5973" unicode="&#x5973;" d="M490 201 l-412 -147 l0 114 l250 89 l-199 70 l1 18 l16 204 l-68 0 l0 44 l71 0 l5 74 l114 0 l-5 -74 l455 0 l0 74 l114 0 l0 -74 l89 0 l0 -44 l-89 0 l0 -226 l-180 -64 l262 -91 l0 -114 l-424 147 ZM490 315 l228 81 l0 153 l-458 0 l-11 -150 l241 -84 Z" /><glyph glyph-name="uni5976" unicode="&#x5976;" d="M214 53 l-141 0 l100 133 l-94 114 l29 264 l-31 0 l0 47 l36 0 l7 56 l112 0 l-7 -56 l88 0 l5 56 l113 0 l-5 -56 l31 0 l-26 -47 l-9 0 l-20 -258 l-88 -118 l107 -135 l-136 0 l-38 45 l-33 -45 ZM550 53 l-108 0 l80 566 l-51 0 l0 48 l307 0 l-27 -48 l-121 0 l-80 -566 ZM882 668 l-44 -233 l88 0 l-48 -382 l-217 0 l-24 45 l139 0 l38 289 l-91 0 l55 280 l0 1 l104 0 ZM194 340 l49 -62 l45 60 l21 226 l-89 0 l-26 -224 Z" /><glyph glyph-name="uni5979" unicode="&#x5979;" d="M935 579 l0 -411 l-157 0 l-27 47 l79 0 l0 289 l-92 -21 l0 -315 l-105 0 l0 291 l-80 -18 l0 -338 l380 0 l-26 -48 l-459 0 l0 362 l-48 -11 l0 52 l48 11 l0 197 l105 0 l0 -173 l80 18 l0 155 l105 0 l0 -132 l197 45 ZM296 190 l122 -135 l-121 0 l-59 64 l-53 -64 l-121 0 l108 134 l-95 100 l22 230 l-35 0 l0 48 l39 0 l9 91 l116 0 l-9 -91 l196 0 l-26 -48 l-24 0 l0 -246 l-69 -83 ZM259 519 l-45 0 l-21 -215 l38 -41 l28 35 l0 221 Z" /><glyph glyph-name="uni597D" unicode="&#x597d;" d="M401 286 l-93 -102 l109 -116 l-142 0 l-36 40 l-37 -40 l-141 0 l108 116 l-93 102 l0 30 l-1 0 l-1 258 l-35 0 l0 47 l35 0 l0 32 l108 0 l0 -32 l113 0 l0 32 l108 0 l0 -32 l69 0 l-30 -47 l-39 0 l-1 -258 l-1 0 l0 -30 ZM811 435 l149 0 l-39 -47 l-113 0 l0 -321 l-281 0 l-24 45 l186 0 l0 276 l-239 0 l0 47 l235 0 l75 161 l-253 0 l0 47 l402 0 l-98 -208 ZM239 257 l55 59 l1 258 l-113 0 l1 -258 l56 -59 Z" /><glyph glyph-name="uni5982" unicode="&#x5982;" d="M875 72 l-346 0 l0 499 l346 0 l0 -499 ZM508 571 l-18 -45 l-20 0 l0 -211 l-107 -124 l124 -136 l-114 0 l-65 72 l-62 -72 l-115 0 l118 137 l-112 123 l30 211 l-43 0 l0 45 l50 0 l14 94 l113 0 l-14 -94 l221 0 ZM645 524 l0 -405 l115 0 l0 445 l-26 -40 l-89 0 ZM250 315 l54 -59 l51 59 l0 211 l-75 0 l-30 -211 Z" /><glyph glyph-name="uni5988" unicode="&#x5988;" d="M417 561 l0 -200 l-89 -128 l142 -180 l-126 0 l-75 95 l-67 -95 l-126 0 l125 180 l-83 105 l0 223 l-48 0 l0 48 l48 0 l0 59 l105 0 l0 -59 l255 0 l-19 -48 l-42 0 ZM887 667 l-1 -266 l44 0 l0 -349 l-271 0 l-24 45 l182 0 l0 260 l-326 0 l38 223 l110 0 l-29 -179 l164 0 l0 266 l113 0 ZM223 366 l38 -48 l53 76 l0 167 l-91 0 l0 -195 ZM797 252 l-27 -45 l-274 0 l0 45 l301 0 ZM490 622 l0 45 l283 0 l-33 -45 l-250 0 ZM774 668 l-1 -1 l1 0 l0 1 Z" /><glyph glyph-name="uni59A8" unicode="&#x59a8;" d="M450 538 l-44 0 l0 48 l226 0 l-35 82 l114 0 l35 -82 l182 0 l-27 -48 l-336 0 l0 -78 l211 0 l-27 -47 l-184 0 l0 -217 l-1 0 l-83 -144 l-114 0 l1 3 l-97 0 l-36 48 l-36 -48 l-114 0 l93 125 l-80 108 l0 250 l-26 0 l0 48 l26 0 l0 80 l114 0 l0 -80 l46 0 l0 80 l114 0 l0 -80 l34 0 l-26 -48 l-8 0 l0 -250 l-80 -108 l84 -112 l74 128 l0 342 ZM776 100 l0 360 l114 0 l0 -408 l-202 0 l-26 48 l114 0 ZM235 258 l23 30 l0 250 l-46 0 l0 -250 l23 -30 Z" /><glyph glyph-name="uni59C6" unicode="&#x59c6;" d="M876 134 l-16 0 l-5 -81 l-163 0 l-25 45 l70 0 l2 36 l-330 0 l22 249 l-15 0 l0 48 l20 0 l21 237 l322 0 l-26 -47 l-186 0 l-17 -190 l211 0 l18 237 l118 0 l-16 -237 l44 0 l-26 -48 l-22 0 l-14 -202 l39 0 l-26 -47 ZM216 53 l-141 0 l100 133 l-94 114 l29 264 l-32 0 l0 47 l37 0 l7 56 l115 0 l-7 -56 l75 0 l4 56 l116 0 l-4 -56 l30 0 l-26 -47 l-6 0 l-15 -258 l-88 -118 l107 -135 l-137 0 l-37 44 l-33 -44 ZM527 181 l216 0 l15 202 l-212 0 l-19 -202 ZM199 336 l45 -58 l45 60 l14 226 l-78 0 l-26 -228 ZM610 466 l-28 105 l127 0 l27 -105 l-126 0 ZM610 226 l-28 105 l127 0 l27 -105 l-126 0 Z" /><glyph glyph-name="uni59CB" unicode="&#x59cb;" d="M300 197 l122 -74 l0 -70 l-179 109 l-180 -109 l0 70 l122 74 l-100 61 l35 290 l-57 0 l0 49 l63 0 l9 70 l116 0 l-9 -70 l223 0 l-25 -49 l-40 0 l0 -290 l-100 -61 ZM452 349 l455 0 l0 -296 l-455 0 l0 296 ZM771 388 l-348 0 l145 252 l125 0 l-116 -204 l208 0 l-55 97 l128 0 l78 -145 l-125 0 l-19 35 l-21 -35 ZM564 98 l232 0 l0 239 l-37 -33 l-195 0 l0 -206 ZM243 232 l41 26 l0 290 l-48 0 l-35 -290 l42 -26 Z" /><glyph glyph-name="uni59D0" unicode="&#x59d0;" d="M905 97 l33 0 l0 -1 l-26 -43 l-478 0 l0 44 l41 0 l0 571 l316 0 l-26 -44 l-176 0 l0 -148 l202 0 l0 192 l114 0 l0 -571 ZM61 53 l111 149 l-105 125 l27 258 l-33 0 l0 44 l38 0 l4 39 l114 0 l-4 -39 l198 0 l0 -44 l-17 0 l0 -240 l-2 0 l-106 -143 l125 -149 l-114 0 l-65 77 l-57 -77 l-114 0 ZM589 97 l202 0 l0 148 l-202 0 l0 -148 ZM589 432 l0 -143 l202 0 l0 143 l-202 0 ZM225 274 l55 73 l0 238 l-72 0 l-27 -258 l44 -53 Z" /><glyph glyph-name="uni59D3" unicode="&#x59d3;" d="M220 118 l-164 -65 l0 56 l102 34 l-98 39 l35 324 l-39 0 l0 46 l44 0 l11 98 l114 0 l-11 -98 l197 0 l-28 -46 l-19 0 l2 -330 l-82 -33 l99 -34 l0 -56 l-163 65 ZM750 99 l194 0 l-28 -46 l-505 0 l0 46 l229 0 l0 197 l-187 0 l0 46 l187 0 l0 147 l-107 0 l-19 -83 l-122 0 l50 223 l123 0 l-21 -94 l96 0 l0 133 l110 0 l0 -133 l183 0 l-28 -46 l-155 0 l0 -147 l183 0 l-28 -46 l-155 0 l0 -197 ZM222 164 l30 10 l-2 332 l-41 0 l-35 -325 l48 -17 Z" /><glyph glyph-name="uni5A01" unicode="&#x5a01;" d="M899 623 l16 0 l-27 -48 l-189 0 l52 -143 l19 38 l0 67 l116 0 l0 -85 l-86 -157 l87 -239 l-122 0 l-38 105 l-57 -105 l-189 0 l-45 53 l-41 -51 l-121 0 l96 128 l-92 107 l-1 0 l1 1 l12 85 l-34 0 l0 46 l41 0 l5 33 l116 0 l-5 -33 l166 0 l0 -138 l-83 -104 l75 -95 l108 207 l-101 280 l-341 0 l0 -356 l-39 -163 l-114 0 l37 166 l0 402 l439 0 l-12 41 l121 0 l12 -41 l74 0 l-12 41 l123 0 l11 -41 l23 0 l-1 -1 ZM534 485 l-260 0 l0 44 l289 0 l-29 -44 ZM465 379 l-59 0 l-10 -70 l34 -44 l35 47 l0 67 Z" /><glyph glyph-name="uni5A03" unicode="&#x5a03;" d="M894 62 l-523 0 l0 45 l220 0 l0 131 l-193 0 l0 45 l193 0 l0 81 l114 0 l0 -81 l193 0 l-30 -45 l-163 0 l0 -131 l219 0 l-30 -45 ZM705 441 l210 0 l-30 -45 l-505 0 l0 45 l211 0 l0 97 l-193 0 l0 45 l193 0 l0 76 l114 0 l0 -76 l193 0 l-30 -45 l-163 0 l0 -97 ZM75 64 l88 130 l-67 105 l0 1 l24 208 l-45 0 l0 46 l51 0 l12 103 l98 0 l-12 -103 l121 0 l0 -261 l-76 -103 l76 -128 l-98 0 l-33 51 l-36 -49 l-103 0 ZM196 315 l23 -40 l29 44 l0 189 l-29 0 l-23 -193 Z" /><glyph glyph-name="uni5A5A" unicode="&#x5a5a;" d="M404 56 l-109 0 l-54 66 l-58 -66 l-115 0 l117 133 l-93 113 l23 235 l-47 0 l0 44 l52 0 l8 84 l109 0 l-8 -84 l170 0 l0 -279 l-102 -116 l107 -130 ZM903 56 l-109 0 l0 118 l-265 0 l0 -74 l261 0 l-30 -44 l-340 0 l0 280 l483 0 l0 -280 ZM634 380 l-214 -40 l0 297 l430 28 l0 -44 l-321 -21 l0 -75 l164 0 l-28 79 l114 0 l28 -79 l124 0 l0 -44 l-109 0 l29 -82 l80 0 l-19 -44 l-159 0 l-45 126 l-179 0 l0 -77 l105 20 l0 -44 ZM529 218 l265 0 l0 75 l-265 0 l0 -75 ZM201 302 l40 -49 l44 49 l0 235 l-61 0 l-23 -235 Z" /><glyph glyph-name="uni5A92" unicode="&#x5a92;" d="M212 53 l-120 0 l111 128 l-90 94 l23 244 l-33 0 l0 47 l37 0 l9 96 l110 0 l-9 -96 l200 0 l0 16 l-40 0 l0 47 l40 0 l0 39 l114 0 l0 -39 l169 0 l0 39 l114 0 l0 -39 l61 0 l-26 -47 l-35 0 l0 -252 l-142 0 l0 -20 l201 0 l-26 -47 l-175 0 l0 -17 l96 0 l90 -193 l-119 0 l-67 143 l0 -143 l-114 0 l0 146 l-61 -146 l-204 0 l-59 62 l-55 -62 ZM408 519 l0 -244 l-79 -90 l93 -101 l68 162 l101 0 l0 17 l-182 0 l0 47 l182 0 l0 20 l-141 0 l0 229 l-23 -40 l-19 0 ZM564 582 l0 -83 l169 0 l-26 -48 l-143 0 l0 -74 l169 0 l0 205 l-169 0 ZM265 254 l37 43 l0 222 l-56 0 l-20 -222 l39 -43 Z" /><glyph glyph-name="uni5AC1" unicode="&#x5ac1;" d="M61 53 l111 149 l-105 125 l28 258 l-34 0 l0 44 l38 0 l4 39 l114 0 l-4 -39 l199 0 l0 -44 l-18 0 l0 -240 l-108 -143 l126 -149 l-114 0 l-65 77 l-58 -77 l-114 0 ZM628 204 l-211 -138 l0 70 l211 138 l0 57 l-211 -138 l0 70 l211 138 l0 1 l-77 0 l-134 -87 l0 70 l92 60 l0 1 l2 0 l52 34 l-146 0 l0 44 l521 0 l0 -1 l-25 -43 l-243 0 l-52 -34 l124 0 l0 -148 l44 0 l38 104 l114 0 l-49 -133 l-36 0 l85 -194 l-114 0 l-82 186 l0 -208 l-162 0 l0 44 l48 0 l0 107 ZM531 540 l-114 0 l0 89 l212 0 l0 39 l113 0 l0 -39 l82 0 l-26 -44 l-267 0 l0 -45 ZM226 274 l54 71 l0 240 l-71 0 l-28 -258 l45 -53 ZM938 629 l0 -89 l-114 0 l0 89 l114 0 Z" /><glyph glyph-name="uni5B09" unicode="&#x5b09;" d="M228 595 l181 0 l-22 -48 l-38 0 l0 -302 l-1 0 l-75 -53 l93 -56 l0 -80 l-146 99 l-141 -99 l0 62 l93 69 l-91 61 l43 299 l-57 0 l0 48 l64 0 l10 66 l97 0 l-10 -66 ZM868 278 l62 0 l-23 -47 l-477 0 l0 47 l67 0 l0 56 l-60 0 l0 134 l376 0 l-25 -47 l-242 0 l0 -40 l267 0 l0 87 l109 0 l0 -134 l-54 0 l0 -56 ZM437 191 l485 0 l0 -135 l-485 0 l0 135 ZM734 551 l198 0 l-22 -47 l-478 0 l0 47 l193 0 l0 31 l-193 0 l0 47 l193 0 l0 35 l109 0 l0 -35 l198 0 l-22 -47 l-176 0 l0 -31 ZM222 547 l-43 -299 l42 -25 l31 23 l0 301 l-30 0 ZM813 191 l-25 -48 l-242 0 l0 -39 l267 0 l0 87 ZM605 278 l154 0 l0 56 l-154 0 l0 -56 Z" /><glyph glyph-name="uni5B50" unicode="&#x5b50;" d="M556 428 l0 -43 l334 0 l-26 -47 l-308 0 l0 -281 l-282 0 l-29 47 l196 0 l0 234 l-332 0 l0 47 l332 0 l0 43 l0 35 l210 153 l-478 0 l0 47 l632 0 l0 -49 l-249 -186 Z" /><glyph glyph-name="uni5B57" unicode="&#x5b57;" d="M781 504 l0 -69 l-205 -88 l-1 0 l0 -34 l333 0 l-26 -47 l-307 0 l0 -211 l-283 0 l-28 47 l195 0 l0 164 l-366 0 l0 47 l366 0 l0 43 l1 0 l0 27 l155 73 l-424 0 l0 47 l524 0 l2 1 l64 0 ZM900 617 l0 -91 l-112 0 l0 88 l-23 -44 l-559 0 l0 -44 l-114 0 l0 91 l349 0 l0 48 l114 0 l0 -48 l345 0 Z" /><glyph glyph-name="uni5B58" unicode="&#x5b58;" d="M267 420 l38 0 l0 -367 l-114 0 l0 277 l-112 0 l140 222 l-140 0 l0 48 l169 0 l43 68 l132 0 l-43 -68 l541 0 l-26 -48 l-545 0 l-83 -132 ZM759 283 l162 0 l-26 -47 l-136 0 l0 -183 l-227 0 l0 46 l113 0 l0 137 l-297 0 l0 47 l297 0 l0 84 l93 100 l-345 0 l0 46 l427 0 l0 -93 l-61 -63 l0 -74 Z" /><glyph glyph-name="uni5B63" unicode="&#x5b63;" d="M254 338 l-144 0 l176 141 l144 0 l-125 -100 l389 0 l-125 100 l144 0 l176 -141 l-144 0 l-8 6 l0 -16 l-157 -52 l0 -27 l299 0 l-25 -54 l-274 0 l0 -145 l-229 0 l-28 46 l140 0 l0 99 l-343 0 l0 54 l343 0 l0 36 l3 0 l131 43 l-325 0 l0 24 l-18 -14 ZM854 487 l-295 0 l0 -95 l-116 0 l0 95 l-323 0 l0 51 l323 0 l0 57 l-216 -6 l0 52 l428 12 l0 17 l117 0 l0 -66 l-213 -6 l0 -60 l320 0 l-25 -51 Z" /><glyph glyph-name="uni5B64" unicode="&#x5b64;" d="M285 358 l0 -303 l-163 0 l-25 45 l70 0 l0 258 l-103 0 l0 48 l103 0 l0 44 l105 172 l-188 0 l0 44 l298 0 l0 -44 l-97 -172 l0 -44 l107 0 l-27 -48 l-80 0 ZM512 341 l-71 -288 l-105 0 l70 288 l0 316 l529 10 l-20 -44 l-403 -8 l0 -274 ZM772 281 l29 -228 l-303 0 l0 75 l84 438 l98 0 l-84 -467 l107 0 l-26 182 l95 0 ZM866 589 l69 -536 l-102 0 l-73 536 l106 0 Z" /><glyph glyph-name="uni5B66" unicode="&#x5b66;" d="M460 231 l-347 0 l0 47 l346 0 l1 1 l0 2 l2 0 l151 121 l-366 0 l0 45 l506 0 l0 -50 l-159 -119 l308 0 l-26 -47 l-294 0 l0 -178 l-185 0 l-25 45 l88 0 l0 133 ZM195 459 l-112 0 l0 98 l548 0 l57 111 l121 0 l-57 -111 l164 0 l0 -98 l-112 0 l0 95 l-25 -43 l-584 0 l0 -52 ZM239 575 l-50 93 l123 0 l52 -93 l-125 0 ZM445 575 l-50 93 l123 0 l51 -93 l-124 0 Z" /><glyph glyph-name="uni5B69" unicode="&#x5b69;" d="M206 354 l-148 0 l0 48 l148 0 l0 36 l-3 0 l75 154 l-206 0 l0 51 l361 0 l-99 -205 l0 -36 l181 0 l-40 -48 l-141 0 l0 -291 l-215 0 l-26 50 l113 0 l0 241 ZM942 635 l-34 -47 l-255 0 l-64 -104 l68 0 l43 53 l125 0 l-281 -338 l-125 0 l199 239 l-169 0 l85 150 l-96 0 l30 47 l162 0 l0 26 l123 0 l0 -26 l189 0 ZM900 407 l-138 -167 l72 0 l96 -180 l-119 0 l-77 145 l-118 -142 l-125 0 l283 344 l126 0 Z" /><glyph glyph-name="uni5B81" unicode="&#x5b81;" d="M442 399 l-310 0 l0 44 l731 0 l-18 -44 l-289 0 l0 -345 l-210 0 l-17 44 l113 0 l0 301 ZM758 572 l-539 0 l0 -103 l-88 0 l0 147 l298 0 l0 51 l114 0 l0 -51 l233 0 l-18 -44 ZM868 616 l0 -147 l-92 0 l0 147 l92 0 Z" /><glyph glyph-name="uni5B83" unicode="&#x5b83;" d="M310 103 l614 0 l-27 -48 l-702 0 l0 427 l115 0 l0 -165 l597 115 l0 -60 l-597 -117 l0 -152 ZM924 618 l0 -121 l-113 0 l0 118 l-22 -44 l-600 0 l0 -74 l-114 0 l0 121 l369 0 l0 48 l114 0 l0 -48 l366 0 Z" /><glyph glyph-name="uni5B88" unicode="&#x5b88;" d="M723 427 l190 0 l-25 -49 l-165 0 l0 -319 l-199 0 l-24 45 l105 0 l0 274 l-519 0 l0 49 l519 0 l0 80 l118 0 l0 -80 ZM531 180 l-120 0 l-115 137 l119 0 l116 -137 ZM913 616 l0 -119 l-112 0 l0 74 l-600 0 l0 -74 l-115 0 l0 119 l385 0 l-13 46 l116 0 l12 -46 l327 0 Z" /><glyph glyph-name="uni5B89" unicode="&#x5b89;" d="M904 614 l0 -92 l-113 0 l0 88 l-23 -44 l-559 0 l0 -44 l-114 0 l0 92 l349 0 l0 47 l114 0 l0 -47 l346 0 ZM798 414 l0 -170 l-191 -53 l286 -76 l0 -56 l-391 106 l-391 -106 l0 56 l286 76 l-207 58 l70 165 l-165 0 l0 47 l182 0 l28 69 l118 0 l-28 -69 l510 0 l-22 -47 l-85 0 ZM376 414 l-58 -144 l184 -49 l181 47 l0 146 l-307 0 Z" /><glyph glyph-name="uni5B8C" unicode="&#x5b8c;" d="M258 436 l0 44 l483 0 l-30 -44 l-453 0 ZM658 314 l-317 0 l0 -51 l-90 -206 l-133 0 l90 224 l0 33 l-108 0 l0 44 l799 0 l-30 -44 l-76 0 l0 -211 l88 0 l-24 -46 l-199 0 l0 257 ZM769 470 l0 143 l-25 -33 l-514 0 l0 -110 l-130 0 l0 145 l332 0 l0 48 l128 0 l0 -48 l339 0 l0 -145 l-130 0 Z" /><glyph glyph-name="uni5B8F" unicode="&#x5b8f;" d="M514 374 l-145 -273 l406 0 l-57 116 l123 0 l81 -163 l-123 0 l-19 37 l-22 -37 l-547 0 l169 320 l134 0 ZM77 179 l127 232 l-90 0 l0 57 l121 0 l37 68 l128 0 l-37 -68 l517 0 l-28 -57 l-520 0 l-126 -232 l-129 0 ZM98 625 l321 0 l-18 41 l125 0 l18 -41 l375 0 l-10 -119 l-107 0 l9 74 l-603 0 l0 -71 l-110 0 l0 116 Z" /><glyph glyph-name="uni5B98" unicode="&#x5b98;" d="M253 453 l0 -80 l496 0 l0 127 l101 0 l0 -176 l-604 0 l0 -52 l526 0 l-25 -47 l-494 0 l0 -119 l520 0 l0 166 l101 0 l0 -220 l-747 0 l0 448 l622 0 l-25 -47 l-471 0 ZM196 517 l-111 0 l0 116 l347 0 l-12 36 l110 0 l12 -36 l372 0 l-9 -119 l-107 0 l9 74 l-611 0 l0 -71 Z" /><glyph glyph-name="uni5B9A" unicode="&#x5b9a;" d="M196 53 l-115 0 l63 240 l-1 96 l115 0 l1 -96 l-10 -36 l20 0 l110 -157 l58 0 l0 334 l-347 0 l0 47 l824 0 l-26 -47 l-329 0 l0 -106 l344 0 l-26 -47 l-318 0 l0 -181 l360 0 l-27 -48 l-603 0 l-66 106 l-27 -105 ZM567 668 l0 -39 l338 0 l0 -102 l-112 0 l0 99 l-24 -43 l-567 0 l0 -56 l-112 0 l0 102 l349 0 l0 39 l128 0 Z" /><glyph glyph-name="uni5B9D" unicode="&#x5b9d;" d="M890 61 l-793 0 l0 47 l345 0 l0 155 l-302 0 l0 47 l302 0 l0 133 l-293 0 l0 47 l715 0 l-26 -47 l-282 0 l0 -133 l299 0 l-26 -47 l-273 0 l0 -155 l360 0 l-26 -47 ZM553 660 l0 -39 l360 0 l0 -93 l-112 0 l0 90 l-25 -42 l-581 0 l0 -48 l-112 0 l0 93 l360 0 l0 39 l110 0 ZM745 117 l-51 113 l121 0 l49 -113 l-119 0 Z" /><glyph glyph-name="uni5B9E" unicode="&#x5b9e;" d="M904 615 l0 -92 l-112 0 l0 88 l-23 -44 l-560 0 l0 -44 l-114 0 l0 92 l349 0 l0 47 l114 0 l0 -47 l346 0 ZM647 522 l-148 -167 l410 0 l-25 -44 l-424 0 l-223 -253 l-146 0 l219 253 l-220 0 l0 44 l258 0 l144 167 l155 0 ZM224 548 l152 0 l48 -88 l-149 0 l48 -85 l-152 0 l-48 89 l148 0 l-47 84 ZM718 284 l172 -226 l-146 0 l-181 226 l155 0 Z" /><glyph glyph-name="uni5BA1" unicode="&#x5ba1;" d="M754 347 l-26 -48 l-173 0 l0 -83 l199 0 l-26 -48 l-173 0 l0 -114 l-114 0 l0 114 l-179 0 l0 -38 l-114 0 l0 348 l293 0 l0 72 l114 0 l0 -72 l199 0 l-26 -48 l-173 0 l0 -83 l199 0 ZM904 618 l0 -106 l-112 0 l0 103 l-23 -44 l-559 0 l0 -59 l-114 0 l0 106 l349 0 l0 48 l114 0 l0 -48 l345 0 ZM868 130 l-114 0 l0 348 l114 0 l0 -348 ZM262 347 l179 0 l0 83 l-179 0 l0 -83 ZM262 216 l179 0 l0 83 l-179 0 l0 -83 Z" /><glyph glyph-name="uni5BA2" unicode="&#x5ba2;" d="M838 420 l-229 -73 l296 -106 l-57 0 l0 -188 l-676 0 l0 196 l-78 0 l307 106 l-147 53 l-5 -5 l-129 0 l79 84 l-84 0 l0 119 l336 0 l-31 62 l121 0 l29 -62 l335 0 l0 -119 l-67 0 l0 -67 ZM291 102 l438 0 l0 110 l-438 0 l0 -110 ZM793 561 l-562 0 l0 -41 l15 16 l129 0 l-25 -26 l443 0 l0 51 ZM724 466 l-416 0 l-43 -46 l145 0 l88 -32 l226 78 ZM336 261 l325 0 l-152 55 l-173 -55 Z" /><glyph glyph-name="uni5BA4" unicode="&#x5ba4;" d="M273 356 l458 0 l-33 61 l124 0 l60 -108 l-127 0 l-24 43 l-25 -43 l-147 0 l0 -67 l324 0 l-26 -48 l-298 0 l0 -92 l355 0 l-25 -49 l-803 0 l0 49 l357 0 l0 92 l-326 0 l0 48 l326 0 l0 67 l-325 0 l88 143 l-47 0 l0 49 l-73 0 l0 119 l360 0 l-13 48 l116 0 l13 -48 l352 0 l0 -119 l-73 0 l-24 -49 l-485 0 l-59 -96 ZM202 501 l599 0 l0 73 l-599 0 l0 -73 Z" /><glyph glyph-name="uni5BB3" unicode="&#x5bb3;" d="M562 490 l0 -38 l322 0 l-26 -47 l-296 0 l0 -41 l334 0 l-26 -47 l-308 0 l0 -40 l193 0 l-28 -48 l-463 0 l0 -129 l492 0 l0 177 l115 0 l0 -226 l-728 0 l0 226 l305 0 l0 40 l-345 0 l0 47 l345 0 l0 41 l-292 0 l0 47 l292 0 l0 38 l-309 0 l0 32 l-70 0 l0 116 l369 0 l-9 31 l116 0 l9 -31 l376 0 l0 -119 l-58 0 l-16 -29 l-294 0 ZM448 537 l0 26 l114 0 l0 -26 l256 0 l0 55 l-633 0 l0 -55 l263 0 Z" /><glyph glyph-name="uni5BB6" unicode="&#x5bb6;" d="M726 486 l-281 0 l-7 -17 l-38 -12 l219 0 l0 -53 l210 62 l0 -66 l-210 -62 l0 -33 l88 0 l171 -203 l-137 0 l-122 145 l0 -192 l-210 0 l-31 47 l115 0 l0 97 l-372 -118 l0 66 l372 118 l0 67 l-372 -118 l0 66 l372 119 l0 11 l-239 0 l-133 -43 l0 59 l201 60 l-75 0 l0 46 l504 0 l-25 -46 ZM121 621 l326 0 l0 45 l114 0 l0 -45 l312 0 l0 -120 l-113 0 l0 74 l-523 0 l0 -74 l-116 0 l0 120 Z" /><glyph glyph-name="uni5BB9" unicode="&#x5bb9;" d="M230 265 l-138 0 l335 194 l145 0 l335 -194 l-138 0 l-5 3 l0 -209 l-530 0 l0 208 l-4 -2 ZM238 495 l-111 0 l0 117 l306 0 l-16 50 l112 0 l16 -50 l328 0 l0 -117 l-111 0 l0 112 l-26 -42 l-498 0 l0 -70 ZM349 259 l0 -152 l299 0 l0 191 l-27 -39 l-272 0 ZM698 306 l-198 115 l-200 -115 l398 0 ZM316 512 l117 0 l-166 -96 l-118 0 l167 96 ZM853 416 l-118 0 l-165 96 l116 0 l167 -96 Z" /><glyph glyph-name="uni5BBD" unicode="&#x5bbd;" d="M910 100 l-22 -47 l-380 0 l0 151 l-93 -151 l-296 0 l-22 47 l216 0 l129 210 l131 0 l-60 -98 l106 0 l0 -112 l291 0 ZM205 490 l-116 0 l0 119 l357 0 l0 59 l102 0 l0 -59 l348 0 l0 -119 l-112 0 l0 73 l-579 0 l0 -73 ZM730 410 l-102 0 l0 32 l-270 0 l0 -32 l-102 0 l0 32 l-43 0 l0 48 l43 0 l0 54 l102 0 l0 -54 l270 0 l0 54 l102 0 l0 -54 l52 0 l-23 -48 l-29 0 l0 -32 ZM271 384 l430 0 l-26 -47 l-375 0 l0 -154 l-105 0 l0 200 l76 0 l0 1 ZM806 183 l-105 0 l0 201 l105 0 l0 -201 Z" /><glyph glyph-name="uni5BC6" unicode="&#x5bc6;" d="M110 54 l0 10 l-1 0 l0 182 l114 0 l0 -144 l223 0 l0 178 l114 0 l0 -178 l222 0 l-26 -48 l-646 0 ZM897 52 l-114 0 l0 215 l114 0 l0 -215 ZM904 538 l-112 0 l0 88 l-23 -44 l-560 0 l0 -44 l-114 0 l0 91 l349 0 l0 40 l115 0 l0 -40 l345 0 l0 -91 ZM110 320 l177 63 l0 153 l121 0 l0 -110 l114 41 l-53 0 l-39 96 l120 0 l31 -75 l181 64 l0 -44 l-354 -126 l0 -47 l356 0 l-28 -44 l-449 0 l0 48 l-177 -63 l0 44 ZM227 375 l-116 0 l29 127 l116 0 l-29 -127 ZM882 343 l-121 0 l-45 141 l119 0 l47 -141 Z" /><glyph glyph-name="uni5BD2" unicode="&#x5bd2;" d="M655 217 l-5 -63 l-292 27 l5 60 l292 -24 ZM323 161 l352 -37 l-6 -62 l-351 36 l5 63 ZM790 515 l0 64 l-598 0 l0 -60 l-116 0 l0 106 l342 0 l-16 34 l121 0 l15 -34 l365 0 l0 -110 l-113 0 ZM208 122 l-140 0 l154 138 l-107 0 l0 47 l151 0 l0 51 l-137 0 l0 50 l137 0 l0 43 l-167 0 l0 47 l167 0 l0 37 l114 0 l0 -37 l240 0 l0 37 l113 0 l0 -37 l178 0 l-40 -47 l-138 0 l0 -43 l157 0 l-31 -50 l-126 0 l0 -51 l182 0 l-33 -47 l-100 0 l149 -133 l-139 0 l-73 64 l-79 69 l-278 0 l-100 -92 l-54 -46 ZM620 358 l-240 0 l0 -51 l240 0 l0 51 ZM380 451 l0 -43 l240 0 l0 43 l-240 0 Z" /><glyph glyph-name="uni5BDF" unicode="&#x5bdf;" d="M83 256 l834 0 l-29 -50 l-330 0 l0 -153 l-227 0 l-29 51 l140 0 l0 102 l-359 0 l0 50 ZM834 376 l67 -18 l0 -49 l-358 98 l0 125 l358 0 l0 -44 l-67 -112 ZM239 546 l-7 -14 l241 0 l0 -121 l-372 -95 l0 49 l41 11 l-11 6 l0 49 l73 -39 l59 15 l-30 16 l0 49 l93 -49 l31 8 l0 57 l-150 0 l-8 -13 l-106 0 l40 71 l106 0 ZM558 641 l244 0 l-31 -51 l-568 0 l0 -30 l-116 0 l0 81 l355 0 l0 27 l116 0 l0 -27 ZM209 338 l582 0 l-30 -51 l-552 0 l0 51 ZM151 178 l117 0 l-49 -125 l-117 0 l49 125 ZM852 178 l49 -125 l-113 0 l-50 125 l114 0 ZM802 641 l115 0 l0 -84 l-115 0 l0 84 ZM785 488 l-126 0 l0 -64 l75 -21 l51 85 Z" /><glyph glyph-name="uni5BF9" unicode="&#x5bf9;" d="M447 92 l-122 0 l-68 99 l-79 -138 l-122 0 l134 237 l-132 196 l0 67 l121 0 l0 -59 l68 -103 l57 100 l0 155 l122 0 l0 -160 l-112 -195 l133 -199 ZM918 505 l-63 0 l0 -453 l-282 36 l0 44 l160 -21 l0 394 l-290 0 l0 48 l290 0 l0 115 l122 0 l0 -115 l89 0 l-26 -48 ZM685 220 l-122 0 l-98 207 l122 0 l98 -207 ZM278 599 l-220 0 l0 47 l246 0 l-26 -47 Z" /><glyph glyph-name="uni5BFB" unicode="&#x5bfb;" d="M840 397 l-686 0 l0 47 l572 0 l0 63 l-556 0 l0 46 l556 0 l0 101 l-26 -38 l-546 0 l0 47 l686 0 l0 -266 ZM670 324 l248 0 l-26 -47 l-222 0 l0 -220 l-230 0 l-30 46 l144 0 l0 174 l-472 0 l0 47 l472 0 l0 53 l116 0 l0 -53 ZM273 139 l-55 103 l121 0 l54 -103 l-120 0 Z" /><glyph glyph-name="uni5BFC" unicode="&#x5bfc;" d="M874 471 l-644 0 l0 -67 l670 0 l-31 -44 l-751 0 l0 290 l635 0 l-35 -44 l-488 0 l0 -92 l532 0 l0 136 l112 0 l0 -179 ZM820 330 l0 -54 l87 0 l-29 -48 l-58 0 l0 -157 l-255 0 l-24 42 l168 0 l0 115 l-616 0 l0 48 l616 0 l0 54 l111 0 ZM350 195 l107 -124 l-130 0 l-116 124 l139 0 Z" /><glyph glyph-name="uni5C01" unicode="&#x5c01;" d="M717 186 l-109 0 l-43 249 l111 0 l41 -249 ZM342 555 l0 -122 l166 0 l-19 -44 l-428 0 l0 44 l167 0 l0 122 l-167 0 l0 43 l167 0 l0 70 l114 0 l0 -70 l166 0 l-19 -43 l-147 0 ZM921 522 l-37 0 l0 -469 l-245 0 l-25 46 l152 0 l0 423 l-240 0 l0 44 l240 0 l0 102 l118 0 l0 -102 l55 0 l-18 -44 ZM342 245 l0 -148 l166 0 l-19 -44 l-428 0 l0 44 l167 0 l0 148 l-167 0 l0 44 l167 0 l0 70 l114 0 l0 -70 l166 0 l-19 -44 l-147 0 Z" /><glyph glyph-name="uni5C06" unicode="&#x5c06;" d="M279 53 l0 259 l-70 -219 l-121 0 l99 310 l-31 0 l-72 211 l119 0 l67 -195 l9 0 l0 248 l114 0 l0 -614 l-114 0 ZM609 668 l-41 -54 l307 0 l0 -133 l-254 -131 l-191 0 l121 61 l-55 0 l-60 119 l116 0 l48 -95 l161 81 l0 52 l-352 0 l70 100 l130 0 ZM581 55 l-30 48 l174 0 l0 177 l-309 0 l0 45 l309 0 l0 46 l114 0 l0 -46 l77 0 l-17 -45 l-60 0 l0 -225 l-258 0 ZM584 241 l58 -97 l-107 0 l-57 97 l106 0 Z" /><glyph glyph-name="uni5C0A" unicode="&#x5c0a;" d="M860 529 l0 -296 l-119 0 l0 -18 l169 0 l-26 -48 l-143 0 l0 -110 l-232 0 l-27 48 l124 0 l0 62 l-515 0 l0 48 l515 0 l0 19 l-482 3 l0 291 l11 0 l0 1 l190 0 l0 32 l-236 0 l0 48 l152 0 l-29 54 l123 0 l30 -54 l203 0 l21 54 l122 0 l-21 -54 l200 0 l-26 -48 l-244 0 l0 -32 l240 0 ZM678 363 l-177 0 l0 118 l-60 0 l0 -48 l-17 -60 l-128 0 l29 74 l0 34 l-66 0 l0 -198 l466 -2 l0 246 l-26 -46 l-79 0 l0 -69 l86 0 l-28 -49 ZM671 305 l-375 0 l0 48 l401 0 l-26 -48 ZM428 57 l-137 0 l-78 86 l137 0 l78 -86 ZM441 529 l60 0 l0 32 l-60 0 l0 -32 Z" /><glyph glyph-name="uni5C0F" unicode="&#x5c0f;" d="M562 53 l-194 0 l-22 47 l92 0 l0 568 l124 0 l0 -615 ZM198 53 l-124 0 l99 587 l124 0 l-99 -587 ZM828 640 l98 -587 l-124 0 l-98 587 l124 0 Z" /><glyph glyph-name="uni5C11" unicode="&#x5c11;" d="M650 632 l134 0 l131 -340 l-132 0 l-133 340 ZM434 313 l0 355 l128 0 l0 -355 l-128 0 ZM247 302 l-132 0 l104 330 l135 0 l-107 -330 ZM331 53 l-247 0 l555 213 l276 0 l-584 -213 Z" /><glyph glyph-name="uni5C14" unicode="&#x5c14;" d="M877 421 l-115 0 l40 109 l-569 0 l-55 -99 l-116 0 l132 238 l116 0 l-51 -91 l677 0 l-59 -157 ZM299 98 l155 0 l0 392 l121 0 l0 -439 l-254 0 l-22 47 ZM702 368 l122 0 l114 -296 l-122 0 l-114 296 ZM200 79 l-121 0 l105 296 l122 0 l-106 -296 Z" /><glyph glyph-name="uni5C16" unicode="&#x5c16;" d="M557 380 l-114 0 l0 288 l114 0 l0 -288 ZM251 225 l-190 0 l0 62 l240 0 l61 73 l142 0 l-60 -73 l494 0 l-26 -62 l-519 0 l-143 -173 l-142 0 l143 173 ZM904 52 l-142 0 l-145 133 l143 0 l144 -133 ZM812 378 l-108 272 l114 0 l108 -272 l-114 0 ZM181 378 l-114 0 l114 272 l114 0 l-114 -272 Z" /><glyph glyph-name="uni5C1D" unicode="&#x5c1d;" d="M890 437 l-128 0 l0 111 l-25 -43 l-500 0 l0 -68 l-128 0 l0 114 l169 0 l-32 104 l113 0 l31 -104 l40 0 l0 117 l128 0 l0 -117 l41 0 l32 104 l112 0 l-32 -104 l179 0 l0 -114 ZM830 408 l-26 -48 l-646 0 l0 48 l672 0 ZM156 53 l69 203 l-102 0 l0 47 l742 0 l-26 -47 l-488 0 l-53 -155 l408 10 l-56 95 l131 0 l84 -153 l-124 0 l-7 12 l-453 -12 l-125 0 Z" /><glyph glyph-name="uni5C2C" unicode="&#x5c2c;" d="M151 196 l0 354 l-69 0 l0 43 l69 0 l0 75 l118 0 l0 -75 l199 0 l-20 -43 l-45 0 l0 -453 l513 0 l-28 -43 l-485 0 l0 -1 l-113 0 l0 497 l-21 0 l0 -380 l-55 -116 l-132 0 l69 142 ZM450 451 l99 198 l269 0 l99 -198 l-128 0 l-77 155 l-56 0 l-77 -155 l-129 0 ZM519 435 l118 0 l0 -204 l-38 -120 l-118 0 l38 120 l0 204 ZM735 435 l113 0 l0 -324 l-113 0 l0 324 Z" /><glyph glyph-name="uni5C31" unicode="&#x5c31;" d="M375 53 l-149 0 l-30 43 l65 0 l0 244 l-170 0 l0 196 l350 0 l-30 -36 l-206 0 l0 -124 l236 0 l0 160 l114 0 l0 -196 l-180 0 l0 -287 ZM719 503 l0 -293 l-48 -157 l-116 0 l50 157 l0 293 l-30 0 l0 43 l30 0 l0 121 l114 0 l0 -121 l65 0 l-19 74 l112 0 l21 -74 l41 0 l-30 -43 l-190 0 ZM853 97 l86 0 l-30 -44 l-170 0 l0 430 l114 0 l0 -386 ZM555 576 l-494 0 l0 44 l200 0 l0 48 l114 0 l0 -48 l210 0 l-30 -44 ZM215 290 l-53 -237 l-101 0 l54 237 l100 0 ZM502 290 l53 -237 l-100 0 l-54 237 l101 0 Z" /><glyph glyph-name="uni5C34" unicode="&#x5c34;" d="M919 177 l-33 -47 l-481 0 l0 47 l36 0 l0 196 l445 0 l0 -196 l33 0 ZM150 356 l0 224 l-70 0 l0 48 l70 0 l0 40 l116 0 l0 -40 l157 0 l-35 -48 l-122 0 l0 -238 l-58 -289 l-128 0 l70 303 ZM384 545 l0 -443 l535 0 l-28 -49 l-615 0 l0 492 l108 0 ZM919 651 l-33 -47 l-122 0 l-47 -160 l-70 0 l0 -52 l-94 0 l0 276 l94 0 l0 -174 l49 174 l86 0 l-5 -17 l142 0 ZM441 652 l94 0 l0 -260 l-94 0 l0 260 ZM822 392 l-53 165 l86 0 l51 -165 l-84 0 ZM535 177 l23 0 l0 149 l-23 0 l0 -149 ZM769 326 l0 -149 l23 0 l0 149 l-23 0 ZM652 326 l0 -149 l23 0 l0 149 l-23 0 Z" /><glyph glyph-name="uni5C39" unicode="&#x5c39;" d="M464 621 l0 -119 l286 0 l0 166 l112 0 l0 -166 l48 0 l0 -47 l-48 0 l0 -166 l-408 0 l-125 -236 l-125 0 l131 236 l-224 0 l0 48 l241 0 l0 118 l-263 0 l0 47 l263 0 l0 119 l-241 0 l0 47 l635 0 l-26 -47 l-256 0 ZM464 455 l0 -118 l286 0 l0 118 l-286 0 Z" /><glyph glyph-name="uni5C3D" unicode="&#x5c3d;" d="M256 312 l-124 0 l36 100 l0 255 l647 0 l0 -177 l-101 0 l73 -131 l70 0 l-24 -48 l-121 0 l0 1 l-13 0 l-98 178 l-310 0 l0 -78 l-35 -100 ZM850 168 l-628 0 l-85 96 l111 0 l42 -48 l583 0 l-23 -48 ZM211 53 l-84 96 l110 0 l43 -48 l583 0 l-23 -47 l-518 0 l0 -1 l-111 0 ZM291 621 l0 -85 l414 0 l0 118 l-37 -33 l-377 0 Z" /><glyph glyph-name="uni5C40" unicode="&#x5c40;" d="M938 669 l0 -201 l-696 0 l0 -160 l-65 -256 l-116 0 l67 256 l0 361 l696 0 l-28 -49 l-554 0 l0 -108 l582 0 l0 157 l114 0 ZM745 128 l-453 0 l0 227 l339 0 l-30 -37 l-195 0 l0 -153 l225 0 l0 190 l114 0 l0 -227 ZM775 428 l114 0 l0 -375 l-183 0 l-30 45 l99 0 l0 330 ZM262 428 l513 0 l-30 -43 l-483 0 l0 43 Z" /><glyph glyph-name="uni5C41" unicode="&#x5c41;" d="M215 449 l0 -234 l-38 -163 l-116 0 l38 167 l0 449 l690 0 l-34 -46 l-540 0 l0 -127 l574 0 l0 173 l112 0 l0 -219 l-686 0 ZM699 252 l0 -151 l239 0 l-26 -46 l-323 0 l0 369 l110 0 l0 -119 l239 52 l0 -51 l-239 -54 ZM363 271 l0 -169 l199 42 l-16 -49 l-167 -42 l-128 0 l0 371 l112 0 l0 -107 l201 0 l-16 -46 l-185 0 Z" /><glyph glyph-name="uni5C42" unicode="&#x5c42;" d="M295 402 l567 0 l-26 -47 l-541 0 l0 47 ZM140 668 l603 0 l-35 -46 l-453 0 l0 -109 l488 0 l0 155 l114 0 l0 -201 l-114 0 l0 5 l-2 -5 l-486 0 l0 -251 l-38 -163 l-114 0 l37 166 l0 449 ZM405 101 l319 10 l-56 95 l128 0 l85 -153 l-122 0 l-7 11 l-365 -11 l-121 0 l75 201 l-64 0 l0 47 l620 0 l-26 -47 l-409 0 l-57 -153 Z" /><glyph glyph-name="uni5C45" unicode="&#x5c45;" d="M657 305 l281 0 l0 -251 l-677 0 l0 251 l282 0 l0 50 l-282 0 l0 44 l282 0 l0 49 l114 0 l0 -49 l281 0 l-30 -44 l-251 0 l0 -50 ZM938 669 l0 -201 l-696 0 l0 -160 l-65 -256 l-116 0 l66 256 l0 361 l697 0 l-28 -49 l-554 0 l0 -108 l582 0 l0 157 l114 0 ZM824 305 l-30 -44 l-418 0 l0 -163 l448 0 l0 207 Z" /><glyph glyph-name="uni5C4A" unicode="&#x5c4a;" d="M151 667 l757 0 l0 -197 l-643 0 l0 -165 l-58 -251 l-116 0 l60 251 l0 362 ZM793 370 l114 0 l0 -310 l-626 0 l0 310 l256 0 l0 72 l114 0 l0 -72 l140 0 l-20 -47 l-120 0 l0 -93 l142 0 l0 140 ZM793 517 l0 149 l-27 -48 l-501 0 l0 -101 l528 0 ZM395 323 l0 -93 l142 0 l0 93 l-142 0 ZM537 107 l0 76 l-142 0 l0 -76 l142 0 ZM793 107 l0 76 l-142 0 l0 -76 l142 0 Z" /><glyph glyph-name="uni5C4B" unicode="&#x5c4b;" d="M238 213 l-51 -160 l-116 0 l55 170 l0 445 l774 0 l0 -188 l-109 0 l0 141 l-553 0 l0 -94 l553 0 l-26 -47 l-527 0 l0 -267 ZM928 100 l-26 -47 l-674 0 l0 47 l291 0 l0 70 l-256 0 l0 48 l256 0 l0 63 l-236 0 l0 45 l54 71 l-74 0 l0 47 l656 0 l-27 -47 l-431 0 l-51 -71 l374 0 l-25 -45 l-125 0 l0 -63 l275 0 l-27 -48 l-248 0 l0 -70 l294 0 ZM886 372 l35 -91 l-117 0 l-33 91 l115 0 Z" /><glyph glyph-name="uni5C51" unicode="&#x5c51;" d="M117 668 l803 0 l0 -180 l-687 0 l0 -272 l-39 -163 l-114 0 l37 166 l0 449 ZM645 390 l270 0 l0 -337 l-188 0 l-26 47 l100 0 l0 62 l-431 0 l0 -109 l-114 0 l0 337 l270 0 l0 79 l119 0 l0 -79 ZM801 668 l-35 -45 l-533 0 l0 -88 l568 0 l0 133 ZM801 390 l-26 -49 l-405 0 l0 -42 l431 0 l0 91 ZM801 210 l0 42 l-431 0 l0 -42 l431 0 ZM796 467 l124 0 l-42 -64 l-122 0 l40 64 ZM299 403 l-47 64 l122 0 l49 -64 l-124 0 Z" /><glyph glyph-name="uni5C55" unicode="&#x5c55;" d="M901 663 l0 -91 l1 0 l-1 -1 l0 -44 l-685 0 l0 -170 l129 0 l0 56 l-100 0 l0 44 l100 0 l0 48 l114 0 l0 -48 l204 0 l0 48 l113 0 l0 -48 l127 0 l-20 -44 l-107 0 l0 -56 l141 0 l-20 -44 l-502 0 l0 -213 l227 0 l-19 -44 l-322 0 l0 257 l-65 0 l0 -143 l-20 -113 l-113 0 l20 113 l0 494 l113 0 l0 -1 l685 0 ZM758 57 l-339 209 l154 0 l109 -67 l73 74 l98 0 l-100 -118 l160 -98 l-155 0 ZM216 617 l0 -45 l572 0 l0 77 l-26 -32 l-546 0 ZM459 357 l204 0 l0 56 l-204 0 l0 -56 Z" /><glyph glyph-name="uni5C5E" unicode="&#x5c5e;" d="M421 182 l117 0 l0 48 l-135 0 l0 -163 l-126 0 l0 210 l261 0 l0 22 l-212 0 l0 125 l212 0 l0 28 l-242 -8 l0 48 l594 17 l0 -47 l-238 -7 l0 -31 l212 0 l0 -125 l-212 0 l0 -22 l261 0 l0 -210 l-198 0 l-27 47 l110 0 l0 155 l-42 -39 l-104 0 l0 -48 l18 0 l-8 27 l96 0 l26 -73 l-363 0 l0 46 ZM202 62 l-116 0 l67 256 l0 341 l747 0 l0 -136 l-633 0 l0 -205 l-65 -256 ZM774 656 l-27 -46 l-480 0 l0 -39 l507 0 l0 85 ZM749 345 l0 66 l-27 -35 l-70 0 l0 -31 l97 0 ZM443 376 l0 -31 l95 0 l0 31 l-95 0 Z" /><glyph glyph-name="uni5C61" unicode="&#x5c61;" d="M811 359 l72 -57 l-133 0 l-71 57 l132 0 ZM284 293 l79 90 l-86 0 l0 41 l78 0 l-48 70 l128 0 l47 -70 l52 0 l0 73 l110 0 l0 -73 l54 0 l43 70 l128 0 l-43 -70 l72 0 l-26 -41 l-228 0 l0 -85 l-110 0 l0 85 l-46 0 l-80 -90 l-124 0 ZM900 668 l0 -149 l-652 0 l0 -303 l-38 -163 l-111 0 l39 167 l0 448 l642 0 l-32 -45 l-500 0 l0 -59 l532 0 l0 104 l120 0 ZM856 213 l0 -21 l1 0 l0 -43 l-140 -25 l163 -28 l0 -43 l-288 50 l-292 -50 l0 43 l166 29 l-155 27 l21 61 l-48 0 l0 45 l65 0 l8 22 l114 0 l-8 -22 l436 0 l-21 -45 l-22 0 ZM742 213 l-295 0 l-14 -39 l158 -28 l151 26 l0 41 Z" /><glyph glyph-name="uni5C65" unicode="&#x5c65;" d="M252 515 l0 -230 l-70 -228 l-116 0 l70 228 l0 381 l684 0 l-27 -48 l-541 0 l0 -56 l568 0 l0 104 l114 0 l0 -151 l-682 0 ZM481 399 l422 0 l0 -165 l-422 0 l0 165 ZM447 498 l-62 -130 l62 0 l-49 -102 l17 0 l0 -211 l-109 0 l0 173 l-40 0 l62 129 l-62 0 l67 141 l114 0 ZM784 118 l132 -20 l0 -43 l-252 40 l-202 -40 l0 43 l83 16 l-64 10 l0 42 l183 -29 l136 27 l0 3 l-327 0 l24 56 l114 0 l-6 -14 l298 0 l0 -68 l-3 0 l-116 -23 ZM563 408 l-114 0 l39 90 l114 0 l-10 -23 l342 0 l-22 -48 l-341 0 l-8 -19 ZM800 396 l-25 -39 l-192 0 l0 -19 l217 0 l0 58 ZM800 276 l0 19 l-217 0 l0 -19 l217 0 Z" /><glyph glyph-name="uni5C71" unicode="&#x5c71;" d="M247 98 l192 0 l0 570 l116 0 l0 -570 l196 0 l0 531 l116 0 l0 -576 l-734 0 l0 572 l114 0 l0 -527 Z" /><glyph glyph-name="uni5C81" unicode="&#x5c81;" d="M239 506 l196 0 l0 148 l116 0 l0 -148 l202 0 l0 109 l116 0 l0 -155 l-528 0 l-30 -61 l567 0 l-113 -293 l-66 0 l-578 -39 l0 44 l318 26 l-48 136 l116 0 l44 -127 l115 9 l78 201 l-597 0 l53 104 l-75 0 l0 151 l114 0 l0 -105 Z" /><glyph glyph-name="uni5C82" unicode="&#x5c82;" d="M102 377 l0 47 l763 0 l0 -183 l-644 0 l0 -125 l676 0 l-28 -47 l-767 0 l0 220 l645 0 l0 123 l-27 -35 l-618 0 ZM865 472 l-112 0 l0 24 l-649 -24 l0 154 l112 0 l0 -103 l216 9 l0 119 l110 0 l0 -116 l211 9 l0 84 l112 0 l0 -156 Z" /><glyph glyph-name="uni5C97" unicode="&#x5c97;" d="M112 472 l661 0 l-26 -48 l-521 0 l0 -371 l-114 0 l0 419 ZM262 136 l171 125 l-171 125 l133 0 l105 -77 l104 77 l133 0 l-171 -125 l171 -125 l-133 0 l-104 77 l-105 -77 l-133 0 ZM773 101 l0 371 l114 0 l0 -419 l-264 0 l0 48 l150 0 ZM226 646 l0 -86 l229 0 l0 108 l114 0 l0 -108 l204 0 l-26 -48 l-635 0 l0 134 l114 0 ZM773 512 l0 134 l114 0 l0 -134 l-114 0 Z" /><glyph glyph-name="uni5D1B" unicode="&#x5d1b;" d="M433 53 l-367 0 l0 567 l93 0 l0 -520 l43 0 l0 565 l94 0 l0 -565 l44 0 l1 519 l92 0 l0 -566 ZM462 667 l358 0 l-24 -45 l-223 0 l0 -92 l247 0 l0 137 l113 0 l0 -182 l-362 0 l0 -431 l-109 0 l0 613 ZM817 276 l0 -176 l44 0 l2 114 l70 0 l0 -161 l-325 0 l0 163 l73 0 l0 -116 l43 0 l0 176 l-116 0 l0 163 l73 0 l0 -116 l43 0 l0 115 l93 0 l0 -115 l44 0 l2 115 l70 0 l0 -162 l-116 0 Z" /><glyph glyph-name="uni5DE2" unicode="&#x5de2;" d="M740 427 l-178 0 l0 -47 l199 0 l0 91 l125 0 l0 -226 l-324 0 l0 -31 l339 0 l-21 -44 l-80 0 l86 -117 l-130 0 l-86 117 l-108 0 l0 -117 l-124 0 l0 117 l-109 0 l-85 -117 l-130 0 l85 117 l-100 0 l0 44 l339 0 l0 31 l-324 0 l0 226 l647 0 l-21 -44 ZM768 584 l-156 0 l112 84 l157 0 l-113 -84 ZM612 584 l156 0 l113 -84 l-157 0 l-112 84 ZM516 584 l-156 0 l113 84 l156 0 l-113 -84 ZM109 584 l156 0 l113 -84 l-156 0 l-113 84 ZM360 584 l156 0 l113 -84 l-156 0 l-113 84 ZM265 584 l-156 0 l113 84 l156 0 l-113 -84 ZM239 288 l199 0 l0 48 l-199 0 l0 -48 ZM562 288 l199 0 l0 48 l-199 0 l0 -48 ZM239 380 l199 0 l0 47 l-199 0 l0 -47 Z" /><glyph glyph-name="uni5DE5" unicode="&#x5de5;" d="M915 125 l-27 -47 l-803 0 l0 47 l371 0 l0 470 l-339 0 l0 48 l778 0 l-27 -48 l-298 0 l0 -470 l345 0 Z" /><glyph glyph-name="uni5DE6" unicode="&#x5de6;" d="M834 324 l-222 0 l0 -218 l288 0 l-26 -47 l-732 0 l0 47 l339 0 l0 218 l-184 0 l-61 -121 l-136 0 l160 315 l-125 0 l0 47 l149 0 l49 97 l136 0 l-49 -97 l457 0 l-27 -47 l-454 0 l-75 -147 l540 0 l-27 -47 Z" /><glyph glyph-name="uni5DE9" unicode="&#x5de9;" d="M866 101 l72 0 l-26 -48 l-160 0 l0 567 l-244 0 l0 -349 l-70 -218 l-116 0 l70 218 l0 396 l474 0 l0 -566 ZM252 578 l0 -370 l81 14 l0 -47 l-272 -44 l0 44 l77 14 l0 389 l-77 0 l0 44 l289 0 l-24 -44 l-74 0 ZM612 239 l-84 276 l114 0 l84 -276 l-114 0 Z" /><glyph glyph-name="uni5DEE" unicode="&#x5dee;" d="M385 579 l-24 -58 l506 0 l-26 -48 l-500 0 l-26 -61 l602 0 l-26 -47 l-596 0 l-26 -61 l608 0 l-25 -47 l-294 0 l0 -156 l340 0 l-25 -48 l-771 0 l0 48 l340 0 l0 156 l-193 0 l-23 -56 l-125 0 l69 164 l-87 0 l0 47 l107 0 l26 61 l-119 0 l0 48 l139 0 l24 58 l-177 0 l0 47 l93 0 l-15 42 l125 0 l15 -42 l401 0 l15 42 l125 0 l-16 -42 l91 0 l-26 -47 l-506 0 Z" /><glyph glyph-name="uni5DF1" unicode="&#x5df1;" d="M830 349 l-559 0 l0 -244 l594 0 l-40 -51 l-691 0 l0 347 l559 0 l0 263 l-29 -49 l-530 0 l0 51 l696 0 l0 -317 Z" /><glyph glyph-name="uni5DF2" unicode="&#x5df2;" d="M753 403 l0 265 l113 0 l0 -313 l-645 0 l0 -255 l681 0 l-26 -47 l-767 0 l0 453 l112 0 l0 -103 l532 0 ZM727 621 l-629 0 l0 47 l655 0 l-26 -47 Z" /><glyph glyph-name="uni5DF4" unicode="&#x5df4;" d="M556 605 l0 -210 l202 0 l0 256 l114 0 l0 -303 l-647 0 l0 -230 l661 0 l-14 -48 l-759 0 l0 581 l645 0 l-24 -46 l-178 0 ZM225 395 l219 0 l0 210 l-219 0 l0 -210 Z" /></font>
</defs>
</svg>
