<?xml version="1.0" standalone="no"?>
<!DOCTYPE svg PUBLIC "-//W3C//DTD SVG 20010904//EN"
 "http://www.w3.org/TR/2001/REC-SVG-20010904/DTD/svg10.dtd">
<svg version="1.0" xmlns="http://www.w3.org/2000/svg"
 width="409.000000pt" height="409.000000pt" viewBox="0 0 409.000000 409.000000"
 preserveAspectRatio="xMidYMid meet">
<metadata>
Created by potrace 1.14, written by Peter Selinger 2001-2017
</metadata>
<g transform="translate(0.000000,409.000000) scale(0.100000,-0.100000)"
fill="#000000" stroke="none">
<path d="M0 2045 l0 -2045 2045 0 2045 0 0 2045 0 2045 -2045 0 -2045 0 0
-2045z m2435 1637 c-2 -3 2 -16 9 -31 8 -14 17 -47 21 -73 6 -37 4 -51 -10
-64 -13 -13 -19 -14 -28 -4 -9 10 -9 14 1 17 23 9 14 87 -18 149 -16 32 -30
61 -30 63 0 3 13 -8 30 -24 16 -16 28 -31 25 -33z m-595 -17 c0 -3 -7 -22 -16
-43 -14 -34 -18 -76 -11 -144 1 -16 5 -28 8 -28 4 0 9 -9 12 -20 6 -22 -8 -28
-16 -7 -2 6 -8 8 -13 4 -5 -5 1 -17 15 -28 13 -10 21 -19 18 -19 -3 0 -14 -3
-24 -7 -10 -3 -15 -3 -11 2 4 4 2 17 -4 28 -23 44 5 267 35 267 4 0 7 -2 7 -5z
m525 -125 c3 -5 -1 -10 -9 -10 -9 0 -16 5 -16 10 0 6 4 10 9 10 6 0 13 -4 16
-10z m-100 -78 c-5 -20 -3 -23 15 -17 13 4 20 2 20 -6 0 -10 3 -10 12 -1 26
26 64 12 59 -20 -2 -13 11 -9 31 9 17 15 18 14 20 -28 1 -24 2 -54 2 -66 0
-13 3 -23 7 -23 8 0 31 -52 25 -58 -3 -3 -12 1 -21 8 -12 10 -23 7 -65 -20
l-50 -32 -77 17 c-43 9 -102 27 -130 40 -44 20 -53 28 -53 49 0 21 5 26 26 26
l26 0 -23 21 c-21 18 -21 20 -4 13 11 -4 35 -9 53 -12 35 -5 44 12 15 33 -15
11 -14 14 5 33 12 12 19 22 15 22 -3 0 6 11 22 24 18 15 26 30 22 40 -5 12 1
11 24 -6 23 -18 29 -28 24 -46z m137 -3 l-5 -32 -18 24 c-21 27 -24 39 -9 39
6 0 10 8 10 18 1 16 1 16 14 0 7 -10 11 -31 8 -49z m75 -25 c-10 -10 -37 10
-37 27 0 18 1 18 21 -2 11 -11 19 -23 16 -25z m-592 -34 c-5 -14 -2 -20 9 -20
20 0 21 -39 2 -66 -19 -25 -31 -12 -16 17 10 19 10 24 -4 34 -24 18 -20 55 6
55 5 0 6 -9 3 -20z m127 -56 c6 -13 17 -24 25 -24 7 0 13 -4 13 -10 0 -5 -9
-10 -20 -10 -11 0 -20 7 -20 15 0 9 -11 27 -25 41 -30 30 -32 38 -5 24 12 -6
26 -22 32 -36z m-62 -148 c-15 -15 -33 4 -19 20 10 12 14 12 20 2 5 -7 4 -17
-1 -22z m360 -17 c0 -11 -4 -19 -9 -19 -5 0 -16 -3 -25 -6 -12 -5 -16 0 -16
18 0 31 6 37 31 31 10 -3 19 -14 19 -24z m124 -67 c0 -23 4 -42 9 -42 5 0 7
-9 4 -20 -3 -10 1 -24 9 -31 22 -18 17 -28 -23 -46 -21 -10 -48 -26 -60 -37
-31 -26 -29 -12 3 30 34 44 47 159 20 170 -14 5 -15 9 -4 15 28 19 43 5 42
-39z m-1466 -201 c47 -35 67 -84 57 -139 -3 -20 -62 -149 -131 -287 -111 -225
-166 -357 -176 -423 l-3 -23 140 -2 c106 -2 152 -7 190 -21 70 -25 105 -61
105 -105 l-1 -36 -20 27 c-11 15 -36 32 -57 39 -47 17 -218 14 -292 -4 -51
-12 -55 -15 -53 -40 2 -31 -4 -33 -36 -11 -21 15 -26 15 -61 -1 -43 -20 -54
-16 -76 26 -17 35 -10 49 39 80 28 17 29 19 31 115 2 123 30 210 144 445 109
227 133 304 107 353 -20 37 -20 36 18 36 22 0 49 -11 75 -29z m472 -120 c39
-28 54 -67 40 -102 -15 -36 -67 -69 -108 -69 l-31 0 3 98 c2 53 5 99 5 101 2
9 68 -11 91 -28z m1866 -149 c21 -14 34 -51 34 -101 0 -45 3 -52 33 -72 60
-42 87 -72 87 -99 0 -28 -15 -59 -109 -232 -58 -107 -63 -145 -21 -140 35 4
88 43 175 129 41 41 79 72 85 68 5 -3 10 -18 10 -33 0 -34 -159 -193 -222
-222 -105 -48 -198 1 -198 105 0 46 29 133 86 253 46 98 50 112 35 112 -9 0
-181 -262 -181 -277 0 -18 -180 -184 -215 -199 -50 -20 -124 -18 -163 6 -54
33 -72 74 -72 163 0 134 56 268 158 378 77 84 90 85 194 16 45 -30 48 -35 48
-76 0 -95 -78 -185 -217 -251 -34 -16 -64 -34 -68 -40 -11 -18 -7 -110 5 -125
20 -25 77 -18 123 14 89 63 212 214 290 359 l39 73 -22 51 c-23 53 -23 106 1
134 12 15 66 19 85 6z m-1623 -96 c18 -7 43 -26 57 -41 30 -32 32 -93 7 -165
-19 -53 -13 -65 15 -30 11 14 65 71 120 128 98 103 100 104 129 92 16 -7 41
-26 55 -43 34 -41 31 -55 -61 -253 -56 -119 -75 -172 -75 -202 0 -49 14 -54
64 -22 61 37 105 96 127 167 39 125 116 256 193 326 54 51 87 53 163 14 33
-17 43 -14 43 15 0 43 92 -6 125 -67 16 -29 15 -37 -24 -197 -68 -281 -105
-377 -206 -528 -107 -161 -189 -232 -314 -270 -66 -21 -166 -26 -191 -10 -19
12 -15 14 54 28 144 29 227 106 331 311 37 73 126 294 120 299 -2 2 -41 -34
-87 -81 -50 -52 -94 -88 -112 -93 -40 -10 -76 12 -99 58 l-18 37 -42 -43 c-83
-87 -184 -78 -235 19 -20 38 -19 132 3 214 9 35 14 65 12 67 -6 6 -193 -199
-216 -236 -11 -19 -23 -54 -27 -77 -4 -29 -11 -43 -21 -43 -22 0 -71 56 -78
90 -4 17 -9 30 -12 30 -3 0 -26 -18 -50 -41 -57 -52 -116 -79 -176 -79 -98 0
-136 53 -123 167 6 51 20 91 100 301 20 51 36 105 36 122 0 16 4 31 10 35 12
8 76 -20 117 -51 45 -34 43 -61 -11 -176 -82 -176 -108 -239 -113 -279 -5 -36
-4 -39 19 -39 32 0 101 45 168 111 46 45 63 72 103 167 50 118 77 208 77 254
0 32 0 32 43 14z m117 -1286 c0 -25 -17 -35 -36 -19 -13 10 -12 14 2 30 19 21
34 16 34 -11z m1186 -51 l-6 -71 26 21 c39 31 62 27 81 -14 33 -70 -21 -162
-97 -164 -51 -1 -53 6 -45 143 7 118 6 126 -11 126 -17 1 -18 2 -3 13 9 7 27
13 39 14 22 2 23 0 16 -68z m-1736 -79 c23 -69 47 -128 53 -132 7 -4 -12 -8
-42 -8 -45 0 -52 2 -41 14 6 8 10 25 8 38 -3 20 -9 23 -54 26 -46 3 -51 1 -62
-23 -15 -33 -15 -35 3 -35 8 0 15 -4 15 -10 0 -5 -19 -10 -42 -10 l-41 0 21
23 c11 12 28 40 37 62 10 22 23 54 30 70 7 17 23 52 34 79 13 29 25 46 30 40
5 -5 28 -65 51 -134z m768 11 c2 -13 -2 -21 -12 -21 -8 0 -16 10 -18 23 -4 26
-35 26 -55 -1 -16 -20 -17 -104 -1 -120 18 -18 45 -15 68 8 11 11 20 15 20 10
0 -12 -49 -60 -61 -60 -17 0 -64 22 -71 33 -4 7 -8 33 -8 60 0 38 5 53 28 76
15 16 36 31 47 33 27 6 59 -14 63 -41z m207 11 c12 -33 -30 -66 -90 -71 -18
-1 -20 -42 -3 -59 17 -17 48 -15 70 5 10 9 18 11 18 5 0 -15 -49 -52 -70 -52
-10 0 -29 9 -44 21 -49 39 -27 147 36 173 33 14 73 3 83 -22z m615 23 c33 -17
43 -65 15 -65 -8 0 -15 -4 -15 -10 0 -5 -16 -12 -35 -16 -27 -5 -35 -11 -35
-28 0 -45 47 -61 83 -28 15 12 19 13 15 3 -8 -28 -55 -54 -82 -47 -47 12 -63
40 -56 98 6 42 13 57 41 80 39 33 33 32 69 13z m-1310 -23 l5 -24 23 27 c16
19 31 25 50 23 27 -3 27 -4 28 -81 2 -86 7 -100 29 -71 8 10 15 14 15 8 0 -20
-46 -55 -65 -48 -15 6 -17 17 -12 85 5 78 -3 98 -31 80 -19 -11 -42 -78 -42
-121 0 -34 -3 -40 -21 -40 -21 0 -21 3 -15 80 6 69 5 80 -8 80 -9 0 -16 -4
-16 -10 0 -5 -5 -10 -10 -10 -6 0 -3 11 6 26 21 31 56 29 64 -4z m264 12 c3
-8 3 -47 0 -85 -7 -70 3 -90 25 -51 6 9 11 12 11 5 0 -12 -38 -53 -49 -53 -3
0 -12 4 -20 9 -11 7 -12 25 -7 84 7 76 -3 105 -23 70 -5 -10 -12 -15 -16 -11
-10 10 33 48 54 48 10 0 22 -7 25 -16z m664 -56 c2 -41 -1 -68 -7 -68 -6 0 -8
-7 -5 -15 4 -8 16 -15 29 -15 27 0 44 35 54 112 4 39 11 54 24 56 16 3 17 -4
11 -81 -8 -94 0 -110 42 -82 27 17 54 70 54 105 0 15 -7 20 -25 20 -18 0 -25
5 -25 20 0 27 36 26 51 -1 14 -27 6 -92 -15 -124 -24 -36 -71 -58 -96 -45 -11
6 -18 15 -15 20 3 5 1 12 -5 15 -6 4 -20 -5 -31 -19 -23 -29 -50 -33 -69 -11
-13 15 -16 92 -5 126 8 24 -23 39 -36 18 -5 -8 -9 -10 -9 -5 0 19 35 47 54 44
19 -3 21 -11 24 -70z"/>
<path d="M2377 3341 c-4 -17 -3 -21 5 -13 5 5 8 16 6 23 -3 8 -7 3 -11 -10z"/>
<path d="M3260 2587 c0 -23 11 -47 22 -47 14 0 5 53 -9 58 -7 2 -13 -3 -13
-11z"/>
<path d="M2963 2395 c-49 -41 -128 -134 -121 -141 24 -24 188 125 188 171 0
15 -31 1 -67 -30z"/>
<path d="M2434 2405 c-31 -34 -139 -205 -182 -290 -11 -23 -24 -59 -27 -80
l-8 -40 28 25 c39 35 201 224 216 252 17 31 49 150 43 160 -11 17 -38 6 -70
-27z"/>
<path d="M3018 1147 c-20 -16 -30 -37 -37 -77 -10 -62 -8 -70 19 -70 24 0 53
42 53 78 0 21 -6 92 -8 92 0 0 -12 -10 -27 -23z"/>
<path d="M1153 1151 c-11 -28 -18 -52 -15 -55 3 -3 20 -6 39 -6 37 0 39 8 22
61 -18 53 -23 53 -46 0z"/>
<path d="M2141 1151 c-37 -37 -24 -69 20 -48 15 8 24 21 24 36 0 32 -19 37
-44 12z"/>
<path d="M2787 1152 c-10 -10 -17 -28 -17 -40 0 -19 3 -20 30 -11 29 11 47 40
35 59 -10 15 -30 12 -48 -8z"/>
</g>
</svg>
