<?xml version="1.0" standalone="no"?>
<!DOCTYPE svg PUBLIC "-//W3C//DTD SVG 20010904//EN"
 "http://www.w3.org/TR/2001/REC-SVG-20010904/DTD/svg10.dtd">
<svg version="1.0" xmlns="http://www.w3.org/2000/svg"
 width="479.000000pt" height="479.000000pt" viewBox="0 0 479.000000 479.000000"
 preserveAspectRatio="xMidYMid meet">
<metadata>
Created by potrace 1.14, written by Peter Selinger 2001-2017
</metadata>
<g transform="translate(0.000000,479.000000) scale(0.100000,-0.100000)"
fill="#000000" stroke="none">
<path d="M762 2775 c-63 -28 -109 -89 -106 -142 1 -21 3 -50 3 -64 1 -17 16
-42 41 -68 22 -22 35 -41 30 -41 -6 0 -10 -6 -10 -12 -1 -7 -9 -31 -20 -53
-11 -22 -19 -43 -20 -46 0 -4 -8 -24 -17 -45 -9 -22 -17 -41 -18 -44 -2 -8
-26 -64 -36 -82 -8 -15 5 -37 16 -26 2 2 29 66 60 143 31 77 61 144 66 149 5
5 29 11 55 13 31 2 57 11 78 27 53 41 76 66 77 84 5 84 4 99 -17 141 -34 68
-112 96 -182 66z"/>
<path d="M2434 2770 c-50 -11 -91 -41 -114 -82 -20 -36 -22 -54 -23 -196 0
-86 3 -176 7 -199 18 -99 142 -160 237 -118 82 36 114 97 114 215 l0 65 -77 3
-78 3 0 -54 c0 -46 3 -55 20 -60 25 -6 25 -18 2 -47 -24 -30 -70 -30 -94 1
-17 20 -19 39 -17 173 1 119 5 155 17 169 19 22 68 22 90 0 16 -16 18 -26 21
-95 1 -27 3 -28 55 -28 34 0 56 5 58 13 10 25 -3 114 -23 154 -31 64 -118 101
-195 83z"/>
<path d="M1419 2758 c-6 -10 -3 -571 2 -580 20 -32 25 26 27 291 1 248 -1 291
-14 291 -7 0 -15 -1 -15 -2z"/>
<path d="M1559 2718 c0 -24 0 -131 -1 -238 l0 -195 83 -3 c46 -2 86 -8 90 -13
3 -6 5 -25 2 -42 -4 -40 2 -58 19 -52 11 4 13 65 13 293 l0 287 -102 3 -103 3
-1 -43z"/>
<path d="M1879 2758 c-1 -2 -2 -133 -3 -291 -1 -324 -8 -298 77 -295 l38 2 -3
163 c-2 90 0 163 3 163 4 0 12 -12 18 -27 5 -16 21 -54 34 -85 14 -32 22 -60
19 -63 -3 -3 -1 -5 5 -5 6 0 14 -12 17 -27 4 -16 16 -49 28 -74 l20 -46 57 1
56 1 0 293 1 292 -59 0 -58 0 4 -160 c2 -88 1 -160 -3 -160 -3 0 -23 44 -44
98 -22 53 -47 115 -57 137 -9 22 -20 50 -24 63 -6 20 -13 22 -66 22 -32 0 -60
-1 -60 -2z"/>
<path d="M2706 2752 c-3 -5 -4 -62 -4 -129 0 -66 -3 -126 -6 -132 -4 -6 -4
-11 1 -11 8 0 9 -263 0 -277 -13 -21 27 -29 156 -29 l138 0 -3 55 -3 56 -75 0
c-41 0 -80 3 -86 7 -9 6 -9 107 1 116 2 3 35 4 73 4 l70 0 -1 54 -1 54 -73 0
c-73 0 -73 0 -74 28 -2 64 -1 93 4 98 2 3 40 6 83 7 l79 2 3 53 3 52 -140 0
c-77 0 -142 -4 -145 -8z"/>
<path d="M3038 2753 c0 -4 -2 -135 -2 -290 -1 -186 2 -284 9 -286 5 -2 30 -3
55 -3 l45 1 3 93 c3 89 4 93 24 90 16 -2 30 -21 53 -73 47 -109 46 -107 104
-111 37 -2 51 1 51 10 0 8 -18 54 -40 104 -40 90 -46 112 -32 112 11 0 52 64
58 91 23 100 -10 203 -78 243 -34 20 -54 24 -144 25 -57 1 -105 -2 -106 -6z
m207 -127 c17 -22 17 -108 1 -129 -8 -10 -33 -21 -55 -24 l-41 -6 0 90 c0 49
2 92 6 95 9 10 78 -10 89 -26z"/>
<path d="M3426 2752 c-3 -5 -3 -17 -2 -28 2 -10 -1 -25 -7 -31 -5 -7 -5 -13
-1 -13 5 0 9 -104 9 -237 -1 -131 1 -245 3 -254 3 -15 19 -17 116 -14 129 3
162 15 200 71 19 28 24 48 24 99 0 56 -3 67 -28 91 -25 26 -31 64 -9 64 11 0
23 66 21 113 -2 52 -38 113 -78 132 -35 16 -238 22 -248 7z m208 -129 c11 -22
11 -35 2 -63 -10 -32 -15 -35 -53 -38 l-43 -3 0 65 0 66 40 0 c33 0 42 -4 54
-27z m13 -244 c10 -20 10 -34 2 -57 -12 -35 -20 -39 -69 -38 l-35 1 -3 63 -3
63 48 -3 c40 -3 50 -7 60 -29z"/>
<path d="M3814 2468 l1 -293 55 0 55 0 3 118 c3 125 0 119 57 119 56 0 54 5
53 -111 0 -60 2 -113 6 -119 4 -8 71 -10 106 -3 3 1 5 123 5 271 -1 149 2 270
7 270 4 0 8 -10 9 -22 0 -13 3 -32 5 -43 3 -11 6 -29 8 -40 2 -11 13 -63 25
-115 50 -214 62 -272 63 -287 1 -29 20 -40 67 -39 56 2 60 4 66 37 8 45 27
124 32 139 5 13 11 50 15 88 3 27 16 10 23 -30 13 -75 15 -82 31 -155 12 -53
21 -73 33 -75 44 -4 101 -3 101 2 0 3 14 64 31 135 16 72 32 137 33 145 2 8 7
33 11 55 5 22 10 47 12 55 2 8 6 24 7 35 2 11 9 40 16 65 26 95 28 90 -39 90
-58 0 -59 0 -65 -32 -3 -18 -9 -44 -12 -58 -3 -14 -8 -38 -10 -55 -3 -16 -13
-66 -23 -110 -16 -70 -20 -77 -28 -56 -5 13 -9 37 -8 53 1 15 -1 28 -5 28 -4
0 -11 26 -16 58 -8 58 -10 70 -14 75 -1 1 -3 12 -4 24 -2 13 -5 25 -7 27 -6 6
-108 11 -113 5 -5 -4 -57 -254 -59 -281 -3 -35 -19 1 -20 45 -1 25 -5 43 -8
41 -4 -2 -9 15 -13 39 -11 74 -13 81 -26 140 l-13 58 -115 -3 -115 -3 1 -117
1 -118 -55 0 -54 0 0 120 0 120 -59 0 -58 0 1 -292z"/>
<path d="M66 2331 c-4 -6 -6 -31 -5 -54 3 -35 0 -42 -14 -39 -14 2 -17 -5 -17
-37 0 -22 5 -41 13 -44 10 -3 10 -9 -1 -26 -6 -11 -12 -23 -12 -25 0 -9 63 14
74 27 32 38 44 40 91 17 25 -12 65 -23 88 -25 48 -3 137 20 137 36 0 6 4 8 9
4 5 -3 12 -1 16 4 5 9 14 4 59 -34 21 -18 58 -36 63 -32 2 3 0 14 -6 25 -14
27 -14 31 4 28 24 -4 28 -14 17 -43 -42 -104 -44 -111 -33 -117 4 -3 16 14 25
37 10 23 25 55 33 72 13 28 12 31 -10 47 -17 12 -23 25 -21 49 2 23 -3 33 -16
36 -14 4 -17 12 -14 31 6 30 -3 72 -15 72 -4 0 -13 -11 -20 -24 -7 -13 -24
-28 -36 -34 -19 -9 -26 -7 -42 10 -50 56 -196 60 -261 6 -27 -23 -50 -18 -75
13 -16 21 -27 27 -31 20z"/>
<path d="M791 2238 c-23 -8 -24 -9 -5 -23 10 -8 22 -15 26 -15 21 -1 48 -37
48 -65 0 -52 -11 -74 -46 -96 -33 -20 -69 -71 -58 -81 8 -8 -18 -58 -30 -58
-6 0 4 -10 23 -22 25 -16 49 -22 92 -22 75 0 93 15 46 37 -47 23 -60 42 -59
85 2 37 30 87 50 87 13 0 52 44 53 59 2 35 11 60 25 70 13 10 9 15 -23 31 -43
21 -106 27 -142 13z"/>
<path d="M679 2163 c-1 -5 -1 -11 0 -15 0 -5 -3 -8 -8 -8 -21 0 -31 -124 -13
-155 7 -13 13 -7 32 29 27 50 39 56 104 50 52 -5 56 1 23 40 -17 19 -37 29
-66 33 -24 3 -45 12 -48 19 -5 15 -22 19 -24 7z"/>
<path d="M1015 2116 c-6 -6 -16 -23 -22 -38 -7 -16 -17 -28 -23 -28 -6 0 -9
-4 -6 -8 6 -10 -74 -9 -91 1 -22 14 -24 -13 -3 -43 15 -22 33 -32 61 -36 22
-4 47 -13 54 -21 31 -31 67 83 48 153 -6 23 -11 29 -18 20z"/>
<path d="M1418 2009 c-9 -6 -5 -9 13 -9 24 0 25 -2 21 -55 -3 -41 0 -55 10
-55 9 0 13 15 12 51 0 48 1 51 28 56 16 3 27 8 24 10 -9 9 -94 10 -108 2z"/>
<path d="M1730 1995 c0 -22 -3 -25 -24 -19 -33 8 -59 -28 -44 -62 6 -13 14
-24 17 -25 37 -5 61 -3 62 6 7 71 6 116 -2 120 -5 4 -9 -5 -9 -20z"/>
<path d="M1981 1992 c-12 -25 -14 -25 -25 -9 -13 17 -42 25 -32 8 4 -5 1 -11
-6 -13 -7 -3 -9 -11 -3 -24 4 -10 8 -29 8 -42 0 -15 4 -21 13 -18 7 3 15 0 18
-7 3 -8 5 -8 5 2 1 11 4 11 16 1 10 -9 15 -9 16 -1 1 6 3 16 4 21 1 6 3 13 4
18 1 4 5 13 10 21 15 23 44 -5 31 -29 -7 -13 -5 -21 8 -31 9 -7 14 -10 10 -5
-3 4 -2 21 2 37 5 17 5 29 -1 29 -5 0 -8 6 -6 13 1 7 -8 12 -23 12 -17 1 -24
6 -22 17 5 28 -15 29 -27 0z m-1 -43 c0 -5 -5 -7 -12 -3 -8 5 -9 2 -5 -10 4
-10 3 -15 -3 -11 -15 10 -12 35 5 35 8 0 15 -5 15 -11z"/>
<path d="M3490 2002 c0 -11 -9 -22 -20 -25 -13 -3 -20 0 -20 9 0 21 -18 17
-30 -6 -8 -15 -8 -20 1 -20 6 0 8 -7 5 -16 -9 -25 2 -51 24 -57 11 -3 20 -1
20 4 0 5 -3 9 -8 9 -4 0 -13 9 -20 21 -8 12 -9 18 -3 14 6 -3 11 1 11 9 0 9 5
16 10 16 6 0 13 0 17 0 4 0 8 -13 8 -29 0 -16 3 -33 8 -37 4 -4 7 2 7 14 0 30
10 52 25 52 17 0 25 -23 15 -40 -10 -16 -4 -30 12 -30 6 0 8 13 6 30 -3 17 0
30 4 30 5 0 2 7 -7 16 -8 9 -22 13 -30 10 -10 -3 -15 1 -15 14 0 10 -4 22 -10
25 -5 3 -10 -3 -10 -13z"/>
<path d="M2431 1993 c-6 -10 -11 -14 -11 -10 0 4 -10 -1 -21 -12 -26 -24 -34
-71 -13 -71 9 0 12 -5 8 -11 -8 -14 36 -2 53 15 16 15 21 98 6 103 -6 2 -16
-4 -22 -14z"/>
<path d="M3021 1993 c1 -10 0 -22 -1 -28 -7 -32 -3 -75 7 -80 7 -2 12 -1 12 3
-1 4 0 12 1 17 1 6 3 19 4 30 0 11 9 21 18 23 13 3 16 -3 13 -32 -2 -21 2 -37
9 -39 9 -4 12 5 11 24 -1 17 2 32 7 35 15 9 -31 37 -49 30 -12 -5 -14 -1 -10
14 3 13 0 20 -10 20 -8 0 -13 -8 -12 -17z"/>
<path d="M3731 1947 l-1 -63 32 2 c37 3 57 25 51 57 -5 23 -43 56 -43 37 0 -5
-4 -10 -9 -10 -6 0 -8 9 -6 20 2 12 -2 20 -9 20 -10 0 -14 -18 -15 -63z m68 4
c3 -1 -4 -8 -15 -16 -11 -8 -14 -15 -6 -15 6 0 12 -4 12 -9 0 -6 -9 -9 -19 -8
-15 1 -19 7 -16 27 3 31 2 29 23 25 9 -2 19 -4 21 -4z"/>
<path d="M4024 1993 c-8 -12 -24 -18 -50 -18 -32 0 -40 -4 -42 -22 -2 -14 3
-23 17 -28 25 -8 28 -26 4 -21 -39 7 -54 18 -43 31 7 8 4 17 -10 30 -30 27
-70 7 -70 -34 0 -34 27 -55 50 -41 8 5 18 6 24 3 5 -3 6 -1 2 5 -4 7 -2 12 3
12 6 0 11 -4 11 -9 0 -17 51 -19 67 -3 14 14 13 17 -3 29 -10 7 -22 13 -27 13
-4 0 -6 4 -3 9 10 16 71 8 68 -8 -2 -8 -1 -24 2 -36 4 -17 13 -22 36 -21 17 1
30 5 30 9 0 4 0 10 0 14 0 4 -5 2 -11 -4 -18 -18 -39 -3 -39 28 0 21 5 29 18
29 15 1 15 2 1 13 -9 7 -18 18 -20 25 -3 8 -7 7 -15 -5z"/>
<path d="M2573 1989 c-14 -14 -5 -79 14 -98 19 -18 27 -8 14 17 -15 29 -14 52
4 52 13 0 13 3 3 20 -15 23 -20 24 -35 9z"/>
<path d="M2721 1984 c-8 -9 -10 -19 -5 -23 5 -3 10 -19 11 -35 2 -30 20 -49
36 -39 5 3 4 10 -2 16 -18 18 -13 57 6 57 14 0 14 3 -5 20 -25 24 -23 23 -41
4z"/>
<path d="M1528 1968 c-23 -23 -23 -51 0 -71 15 -13 22 -14 42 -4 26 13 32 31
18 59 -14 30 -41 37 -60 16z"/>
<path d="M2490 1965 c-12 -23 -12 -28 0 -35 8 -6 21 -10 28 -10 7 0 10 -5 6
-11 -3 -6 -15 -9 -25 -6 -10 3 -21 2 -24 -3 -3 -4 7 -10 21 -13 32 -6 60 19
43 39 -6 8 -18 14 -25 14 -8 0 -14 5 -14 10 0 6 11 10 25 10 14 0 25 5 25 11
0 6 -9 9 -20 6 -10 -3 -21 0 -22 5 -2 5 -10 -2 -18 -17z"/>
<path d="M1778 1963 c-29 -34 -5 -83 37 -75 46 8 45 83 -2 90 -10 2 -26 -5
-35 -15z"/>
<path d="M2096 1967 c-12 -9 -17 -23 -14 -42 3 -26 7 -30 39 -33 35 -3 36 -2
34 30 -2 57 -22 72 -59 45z"/>
<path d="M2229 1971 c0 -3 -3 -26 -5 -51 -4 -36 -3 -43 7 -32 7 6 21 12 31 12
10 0 18 -6 18 -12 1 -8 6 -6 14 5 7 9 12 28 11 42 -2 16 2 25 11 25 9 0 14
-11 14 -34 0 -19 5 -38 10 -41 9 -6 13 12 13 60 0 8 -1 18 -2 23 -1 9 -121 12
-122 3z"/>
<path d="M2793 1962 c-19 -16 -20 -21 -8 -49 11 -25 19 -31 35 -28 34 7 51 25
47 52 -6 43 -41 54 -74 25z"/>
<path d="M2937 1966 c-7 -18 -3 -76 6 -76 4 0 18 0 31 0 20 0 24 4 21 21 -2
12 -12 28 -22 35 -14 11 -15 14 -3 12 9 -2 18 2 20 7 3 6 -7 10 -22 11 -15 1
-29 -4 -31 -10z"/>
<path d="M3130 1959 c-17 -32 -8 -62 21 -70 27 -7 46 12 54 51 6 33 -59 49
-75 19z"/>
<path d="M3228 1975 c-3 -6 -4 -19 -2 -30 3 -11 5 -28 6 -37 4 -29 28 -20 43
15 11 23 14 27 15 12 0 -11 7 -28 15 -38 13 -18 15 -16 34 24 14 28 18 46 11
53 -6 6 -12 3 -16 -10 -15 -48 -17 -50 -22 -29 -5 22 -21 45 -31 45 -4 0 -7
-10 -8 -21 -3 -40 -21 -44 -30 -8 -5 18 -12 29 -15 24z"/>
<path d="M3596 1964 c-9 -8 -14 -25 -12 -37 3 -12 5 -25 5 -28 2 -13 38 -16
57 -5 22 13 24 46 5 70 -17 20 -35 20 -55 0z"/>
<path d="M2624 1893 c2 -10 7 -18 12 -18 5 0 10 8 12 18 2 10 -3 17 -11 17 -9
0 -14 -8 -13 -17z"/>
</g>
</svg>
