<?xml version="1.0" standalone="no"?>
<!DOCTYPE svg PUBLIC "-//W3C//DTD SVG 20010904//EN"
 "http://www.w3.org/TR/2001/REC-SVG-20010904/DTD/svg10.dtd">
<svg version="1.0" xmlns="http://www.w3.org/2000/svg"
 width="409.000000pt" height="409.000000pt" viewBox="0 0 409.000000 409.000000"
 preserveAspectRatio="xMidYMid meet">
<metadata>
Created by potrace 1.14, written by Peter Selinger 2001-2017
</metadata>
<g transform="translate(0.000000,409.000000) scale(0.100000,-0.100000)"
fill="#000000" stroke="none">
<path d="M1795 4074 c-394 -53 -744 -203 -1044 -447 -79 -65 -212 -196 -265
-261 -17 -21 -43 -53 -57 -70 -98 -116 -253 -400 -312 -571 -43 -124 -65 -210
-86 -335 -6 -30 -13 -71 -16 -90 -13 -74 -13 -405 1 -505 20 -146 73 -371 103
-440 5 -11 16 -39 25 -63 109 -291 348 -618 607 -829 300 -244 690 -409 1067
-450 151 -17 440 -8 572 17 30 6 69 13 85 16 17 2 64 14 105 26 711 196 1264
758 1445 1466 26 103 27 111 47 237 14 89 17 404 4 505 -46 387 -203 755 -448
1058 -67 81 -224 241 -278 280 -19 15 -37 29 -40 32 -3 3 -36 28 -75 57 -231
168 -504 284 -817 348 -9 2 -38 7 -65 11 -26 3 -57 9 -68 11 -53 11 -398 9
-490 -3z"/>
</g>
</svg>
